<?xml version="1.0" encoding="UTF-8" standalone="no"?>
<!-- Created with Inkscape (http://www.inkscape.org/) -->

<svg
   width="181.90556mm"
   height="74.482269mm"
   viewBox="0 0 181.90556 74.48227"
   version="1.1"
   id="svg5"
   inkscape:version="1.1.2 (0a00cf5339, 2022-02-04, custom)"
   sodipodi:docname="commute2.svg"
   xmlns:inkscape="http://www.inkscape.org/namespaces/inkscape"
   xmlns:sodipodi="http://sodipodi.sourceforge.net/DTD/sodipodi-0.dtd"
   xmlns:xlink="http://www.w3.org/1999/xlink"
   xmlns="http://www.w3.org/2000/svg"
   xmlns:svg="http://www.w3.org/2000/svg">
  <sodipodi:namedview
     id="namedview7"
     pagecolor="#505050"
     bordercolor="#ffffff"
     borderopacity="1"
     inkscape:pageshadow="0"
     inkscape:pageopacity="0"
     inkscape:pagecheckerboard="1"
     inkscape:document-units="mm"
     showgrid="false"
     inkscape:zoom="1.1133233"
     inkscape:cx="338.62581"
     inkscape:cy="173.80397"
     inkscape:current-layer="layer1" />
  <defs
     id="defs2">
    <marker
       style="overflow:visible"
       id="Arrow1Lend"
       refX="0"
       refY="0"
       orient="auto"
       inkscape:stockid="Arrow1Lend"
       inkscape:isstock="true">
      <path
         transform="matrix(-0.8,0,0,-0.8,-10,0)"
         style="fill:context-stroke;fill-rule:evenodd;stroke:context-stroke;stroke-width:1pt"
         d="M 0,0 5,-5 -12.5,0 5,5 Z"
         id="path3872" />
    </marker>
    <marker
       style="overflow:visible"
       id="Arrow1Lend-6"
       refX="0"
       refY="0"
       orient="auto"
       inkscape:stockid="Arrow1Lend"
       inkscape:isstock="true">
      <path
         transform="matrix(-0.8,0,0,-0.8,-10,0)"
         style="fill:context-stroke;fill-rule:evenodd;stroke:context-stroke;stroke-width:1pt"
         d="M 0,0 5,-5 -12.5,0 5,5 Z"
         id="path3872-2" />
    </marker>
    <path
       id="MJSZ2-2211"
       stroke-width="10"
       d="m 60,948 q 3,2 605,2 h 602 l 58,-135 q 59,-138 63,-146 h -40 l -7,14 q -21,41 -56,78 -50,48 -111,77 -61,29 -141,43 -80,14 -151,17 -71,3 -183,4 H 574 543 251 l 8,-11 q 463,-633 465,-639 1,-2 0,-6 -3,-3 -264,-302 L 196,-356 q 0,-1 211,-1 52,0 141,0 89,0 128,-1 136,0 220,5 84,5 167,21 83,16 141,49 58,33 103,87 21,26 41,72 h 40 q 0,-1 -7,-21 -7,-20 -25,-65 -18,-45 -31,-84 l -58,-155 -601,-1 q -602,0 -605,2 -6,2 -6,9 0,2 2,6 l 533,610 q 0,1 -33,45 -33,44 -105,144 -72,100 -130,178 L 56,909 55,924 q 0,21 5,24 z" />
    <path
       id="MJMATHI-69"
       stroke-width="10"
       d="m 184,600 q 0,24 19,42 19,18 44,19 18,0 30,-12 12,-12 13,-30 0,-23 -20,-42 -20,-19 -44,-20 -15,0 -28,10 -13,10 -14,33 z M 21,287 q 0,8 9,31 9,23 24,51 15,28 44,51 29,23 60,22 39,0 65,-23 26,-23 27,-62 0,-17 -14,-56 -14,-39 -40,-105 -26,-66 -42,-113 -5,-22 -5,-32 0,-25 17,-25 9,0 19,3 10,3 23,14 13,11 27,35 14,24 25,59 3,12 5,14 2,2 17,2 20,0 20,-10 0,-8 -9,-31 -9,-23 -25,-51 -16,-28 -45,-50 -29,-22 -62,-22 -32,0 -59,21 -27,21 -28,64 0,17 5,32 5,15 43,114 38,101 44,121 6,20 7,39 0,24 -17,24 h -2 q -30,0 -55,-33 -25,-33 -38,-84 -1,-1 -2,-3 -1,-2 -1,-3 0,-1 -2,-2 -2,-1 -3,-1 -1,0 -4,0 -3,0 -8,0 H 27 q -6,6 -6,9 z" />
    <path
       id="MJMAIN-3D"
       stroke-width="10"
       d="m 56,347 q 0,13 14,20 h 637 q 15,-8 15,-20 0,-11 -14,-19 L 390,327 H 72 q -16,5 -16,20 z m 0,-194 q 0,15 16,20 h 636 q 14,-10 14,-20 0,-13 -15,-20 H 70 q -14,7 -14,20 z" />
    <path
       id="MJMAIN-30"
       stroke-width="10"
       d="m 96,585 q 56,81 153,81 48,0 96,-26 48,-26 78,-92 37,-83 37,-228 0,-155 -43,-237 -20,-42 -55,-67 -35,-25 -61,-31 -26,-6 -51,-7 -26,0 -52,6 -26,6 -61,32 -35,26 -55,67 -43,82 -43,237 0,174 57,265 z m 225,12 q -30,32 -71,32 -42,0 -72,-32 -25,-26 -33,-72 -8,-46 -8,-192 0,-158 8,-208 8,-50 36,-79 28,-30 69,-30 40,0 68,30 29,30 36,84 7,54 8,203 0,145 -8,191 -8,46 -33,73 z" />
    <path
       id="MJMATHI-6E"
       stroke-width="10"
       d="m 21,287 q 1,6 3,16 2,10 12,38 10,28 20,47 10,19 33,37 23,18 46,17 36,0 60,-18 24,-18 30,-34 6,-16 6,-21 0,-2 1,-2 l 11,11 q 61,64 139,64 54,0 87,-27 33,-27 34,-79 1,-52 -38,-157 -39,-105 -38,-127 0,-26 17,-26 6,0 9,1 29,5 52,38 23,33 35,80 2,8 20,8 20,0 20,-8 0,-1 -4,-15 -8,-29 -22,-57 -14,-28 -46,-56 -32,-28 -69,-27 -47,0 -68,27 -21,27 -21,56 0,19 36,120 36,101 37,152 0,59 -44,59 h -5 Q 288,404 229,303 L 222,291 189,157 Q 156,26 151,16 138,-11 108,-11 95,-11 87,-5 79,1 76,7 q -3,6 -2,10 0,13 38,163 38,150 40,163 1,5 1,23 0,39 -24,39 -38,0 -63,-100 -6,-20 -6,-21 -2,-6 -19,-6 H 27 q -6,6 -6,9 z" />
    <path
       id="MJMAIN-28"
       stroke-width="10"
       d="m 94,250 q 0,69 10,131 10,62 23,107 13,45 37,88 24,43 38,67 14,24 42,52 28,28 33,34 5,6 25,21 h 13 4 q 14,0 14,-9 0,-3 -17,-21 -17,-18 -41,-53 -24,-35 -49,-86 -25,-51 -42,-138 -17,-87 -17,-193 0,-106 17,-192 17,-86 41,-139 24,-53 49,-86 25,-33 42,-53 17,-20 17,-21 0,-9 -15,-9 h -3 -13 l -28,24 Q 180,-141 137,-14 94,113 94,250 Z" />
    <path
       id="MJMAIN-2B"
       stroke-width="10"
       d="m 56,237 q 0,0 0,13 0,13 14,20 h 299 v 150 l 1,150 q 10,13 19,13 13,0 20,-15 V 270 h 298 q 15,-8 15,-20 0,-12 -15,-20 H 409 V -68 q -8,-14 -18,-14 h -2 -2 q -12,0 -18,14 V 230 H 70 q -14,7 -14,20 z" />
    <path
       id="MJMAIN-31"
       stroke-width="10"
       d="m 213,578 -13,-5 q -14,-5 -40,-10 -26,-5 -58,-7 H 83 v 46 h 19 q 47,2 87,15 40,13 56,24 16,11 28,22 2,3 12,3 9,0 17,-6 V 361 l 1,-300 q 7,-7 12,-9 5,-2 24,-4 19,-2 62,-2 h 26 V 0 H 416 Q 395,3 257,3 121,3 100,0 H 88 v 46 h 26 q 22,0 38,0 16,0 25,1 9,1 16,3 7,2 8,2 1,0 6,5 5,5 6,4 z" />
    <path
       id="MJMAIN-29"
       stroke-width="10"
       d="m 60,749 4,1 q 5,0 10,0 h 12 l 28,-24 q 94,-85 137,-212 43,-127 43,-264 0,-68 -10,-131 -10,-63 -23,-107 -13,-44 -37,-88 -24,-44 -38,-67 -14,-23 -41,-51 -27,-28 -32,-33 -5,-5 -23,-19 -3,-3 -4,-4 H 74 q -8,0 -11,0 -3,0 -5,3 -2,3 -3,9 1,1 11,13 155,161 155,475 0,314 -155,475 -10,12 -11,13 0,8 5,11 z" />
    <path
       id="MJMAIN-32"
       stroke-width="10"
       d="m 109,429 q -27,0 -43,18 -16,18 -16,44 0,71 53,123 53,52 132,52 91,0 152,-56 61,-56 62,-145 0,-43 -20,-82 -20,-39 -48,-68 -28,-29 -80,-74 -36,-31 -100,-92 l -59,-56 76,-1 q 157,0 167,5 7,2 24,89 v 3 h 40 v -3 Q 448,183 436,95 424,7 421,3 V 0 H 50 v 19 12 q 0,7 6,15 6,8 30,35 29,32 50,56 9,10 34,37 25,27 34,37 9,10 29,33 20,23 28,34 8,11 23,30 15,19 21,32 6,13 15,29 9,16 13,32 4,16 7,30 3,14 3,33 0,63 -34,109 -34,46 -97,46 -33,0 -58,-17 -25,-17 -35,-33 -10,-16 -10,-19 0,-1 5,-1 18,0 37,-14 19,-14 19,-46 0,-25 -16,-42 -16,-17 -45,-18 z" />
    <path
       id="MJAMS-52"
       stroke-width="10"
       d="m 17,665 q 0,7 11,18 h 193 q 194,-2 218,-6 22,-4 42,-10 20,-6 35,-13 15,-7 28,-15 13,-8 22,-16 9,-8 18,-16 9,-8 13,-15 4,-7 10,-14 6,-7 7,-13 1,-6 4,-11 l 3,-6 q 5,-18 5,-51 0,-50 -13,-78 -35,-71 -140,-93 l -18,-5 q 7,-11 18,-29 11,-18 44,-66 33,-48 61,-85 28,-37 59,-69 31,-32 49,-37 19,-5 19,-19 0,-9 -12,-17 H 510 Q 503,6 404,159 L 306,310 H 268 V 183 q 2,-116 3,-124 3,-17 20,-21 4,-1 28,-3 25,0 34,-7 9,-11 0,-25 l -7,-4 H 28 q -12,6 -12,17 0,19 39,19 41,3 46,17 5,8 5,289 0,281 -5,291 -6,13 -46,16 -38,0 -38,17 z M 241,35 q -3,7 -4,10 -1,3 -2,33 -1,30 -2,85 -1,55 0,174 v 284 l 4,14 7,13 H 133 q 3,-7 4,-10 1,-3 2,-35 1,-32 2,-86 1,-54 0,-176 0,-210 -1,-252 -1,-42 -6,-52 -1,-1 -1,-2 z m 216,461 q 0,44 -8,74 -8,30 -24,45 -16,15 -25,19 -9,4 -23,9 -3,0 -38,5 -39,0 -58,-13 -10,-7 -11,-25 -1,-18 -2,-129 V 346 h 16 q 43,0 91,6 46,12 64,40 18,28 18,104 z m 35,41 q 0,0 0,-41 0,-41 -4,-69 -4,-28 -10,-38 -6,-10 -9,-18 -3,-8 -5,-10 0,-1 1,-1 4,0 32,10 96,30 96,125 0,97 -116,135 l -20,7 4,-11 q 13,-15 27,-65 4,-24 4,-65 z M 464,243 q -53,74 -54,74 -6,0 -9,-2 -17,0 -31,-3 H 346 L 526,35 h 93 l -13,15 q -53,59 -142,193 z" />
    <marker
       style="overflow:visible"
       id="Arrow1Lend-2"
       refX="0"
       refY="0"
       orient="auto"
       inkscape:stockid="Arrow1Lend"
       inkscape:isstock="true">
      <path
         transform="matrix(-0.8,0,0,-0.8,-10,0)"
         style="fill:context-stroke;fill-rule:evenodd;stroke:context-stroke;stroke-width:1pt"
         d="M 0,0 5,-5 -12.5,0 5,5 Z"
         id="path3872-7" />
    </marker>
    <marker
       style="overflow:visible"
       refX="0"
       refY="0"
       orient="auto"
       inkscape:stockid="Arrow1Lend-26428"
       inkscape:isstock="true"
       id="Arrow1Lend-26428">
      <path
         transform="matrix(-0.8,0,0,-0.8,-10,0)"
         style="fill:#ffffff;fill-rule:evenodd;stroke:#ffffff;stroke-width:1pt"
         d="M 0,0 5,-5 -12.5,0 5,5 Z"
         id="path31049" />
    </marker>
    <marker
       style="overflow:visible"
       refX="0"
       refY="0"
       orient="auto"
       inkscape:stockid="Arrow1Lend9438"
       inkscape:isstock="true"
       id="Arrow1Lend9438">
      <path
         transform="matrix(-0.8,0,0,-0.8,-10,0)"
         style="fill:#ffffff;fill-rule:evenodd;stroke:#ffffff;stroke-width:1pt"
         d="M 0,0 5,-5 -12.5,0 5,5 Z"
         id="path31052" />
    </marker>
    <marker
       style="overflow:visible"
       refX="0"
       refY="0"
       orient="auto"
       inkscape:stockid="Arrow1Lend1551"
       inkscape:isstock="true"
       id="Arrow1Lend1551">
      <path
         transform="matrix(-0.8,0,0,-0.8,-10,0)"
         style="fill:#ffffff;fill-rule:evenodd;stroke:#ffffff;stroke-width:1pt"
         d="M 0,0 5,-5 -12.5,0 5,5 Z"
         id="path31199" />
    </marker>
    <marker
       style="overflow:visible"
       refX="0"
       refY="0"
       orient="auto"
       inkscape:stockid="Arrow1Lend-26428"
       inkscape:isstock="true"
       id="Arrow1Lend-26428-0">
      <path
         transform="matrix(-0.8,0,0,-0.8,-10,0)"
         style="fill:#ffffff;fill-rule:evenodd;stroke:#ffffff;stroke-width:1pt"
         d="M 0,0 5,-5 -12.5,0 5,5 Z"
         id="path31049-2" />
    </marker>
    <marker
       style="overflow:visible"
       refX="0"
       refY="0"
       orient="auto"
       inkscape:stockid="Arrow1Lend-26428"
       inkscape:isstock="true"
       id="Arrow1Lend-26428-7">
      <path
         transform="matrix(-0.8,0,0,-0.8,-10,0)"
         style="fill:#ffffff;fill-rule:evenodd;stroke:#ffffff;stroke-width:1pt"
         d="M 0,0 5,-5 -12.5,0 5,5 Z"
         id="path31049-5" />
    </marker>
    <marker
       style="overflow:visible"
       refX="0"
       refY="0"
       orient="auto"
       inkscape:stockid="Arrow1Lend9438"
       inkscape:isstock="true"
       id="Arrow1Lend9438-2">
      <path
         transform="matrix(-0.8,0,0,-0.8,-10,0)"
         style="fill:#ffffff;fill-rule:evenodd;stroke:#ffffff;stroke-width:1pt"
         d="M 0,0 5,-5 -12.5,0 5,5 Z"
         id="path31052-2" />
    </marker>
  </defs>
  <g
     inkscape:label="Layer 1"
     inkscape:groupmode="layer"
     id="layer1"
     transform="translate(-6.2377389,-84.23202)">
    <text
       xml:space="preserve"
       style="font-size:10.5833px;line-height:1.25;font-family:'Times New Roman';-inkscape-font-specification:'Times New Roman, ';text-align:center;word-spacing:0px;text-anchor:middle;fill:#cdcdcd;fill-opacity:1;stroke:none;stroke-width:0.264583;stroke-opacity:1"
       x="30.378307"
       y="104.60769"
       id="text2093"><tspan
         sodipodi:role="line"
         id="tspan2091"
         style="fill:#cdcdcd;fill-opacity:1;stroke:none;stroke-width:0.264583;stroke-opacity:1"
         x="30.378307"
         y="104.60769">Dist(Tasks)</tspan></text>
    <text
       xml:space="preserve"
       style="font-size:6.26494px;line-height:1.25;font-family:'Times New Roman';-inkscape-font-specification:'Times New Roman, ';text-align:center;word-spacing:0px;text-anchor:middle;fill:#cdcdcd;fill-opacity:1;stroke:none;stroke-width:0.156624;stroke-opacity:1;opacity:0.1"
       x="95.617676"
       y="88.581993"
       id="text2093-9"><tspan
         sodipodi:role="line"
         id="tspan2091-3"
         style="fill:#cdcdcd;fill-opacity:1;stroke:none;stroke-width:0.156624;stroke-opacity:1"
         x="95.617676"
         y="88.581993">Description</tspan><tspan
         sodipodi:role="line"
         style="fill:#cdcdcd;fill-opacity:1;stroke:none;stroke-width:0.156624;stroke-opacity:1"
         x="95.617676"
         y="96.41317"
         id="tspan20245">Length of Demos</tspan></text>
    <text
       xml:space="preserve"
       style="font-size:6.26494px;line-height:1.25;font-family:'Times New Roman';-inkscape-font-specification:'Times New Roman, ';text-align:center;word-spacing:0px;text-anchor:middle;fill:#cdcdcd;fill-opacity:1;stroke:none;stroke-width:0.156624;stroke-opacity:1;opacity:0.1"
       x="96.743446"
       y="107.50221"
       id="text2093-9-7"><tspan
         sodipodi:role="line"
         style="fill:#cdcdcd;fill-opacity:1;stroke:none;stroke-width:0.156624;stroke-opacity:1"
         x="96.743446"
         y="107.50221"
         id="tspan20245-2">h</tspan></text>
    <g
       id="g24852"
       transform="translate(-30.742911,-9.6381677)"
       style="opacity:0.599434;fill:#9bffa4;fill-opacity:1">
      <text
         xml:space="preserve"
         style="font-size:6.26494px;line-height:1.25;font-family:'Times New Roman';-inkscape-font-specification:'Times New Roman, ';text-align:center;word-spacing:0px;text-anchor:middle;fill:#9bffa4;fill-opacity:1;stroke:none;stroke-width:0.156624;stroke-opacity:1"
         x="144.44476"
         y="153.72906"
         id="text2093-9-6"><tspan
           sodipodi:role="line"
           style="fill:#9bffa4;fill-opacity:1;stroke:none;stroke-width:0.156624;stroke-opacity:1"
           x="144.44476"
           y="153.72906"
           id="tspan20245-6">d</tspan></text>
    </g>
    <path
       style="opacity:0.1;fill:none;stroke:#ff9b9b;stroke-width:0.6;stroke-linecap:butt;stroke-linejoin:miter;stroke-miterlimit:4;stroke-dasharray:none;stroke-opacity:1;marker-end:url(#Arrow1Lend9438)"
       d="m 60.170883,107.98551 32.076372,27.28125"
       id="path3052"
       sodipodi:nodetypes="cc" />
    <path
       style="opacity:0.599434;fill:none;stroke:#9bffa4;stroke-width:0.6;stroke-linecap:butt;stroke-linejoin:miter;stroke-miterlimit:4;stroke-dasharray:none;stroke-opacity:1;marker-end:url(#Arrow1Lend9438-2)"
       d="M 83.660992,139.1461 51.58462,111.86485"
       id="path3052-8"
       sodipodi:nodetypes="cc" />
    <path
       style="opacity:0.1;fill:none;stroke:#ff9b9b;stroke-width:0.6;stroke-linecap:butt;stroke-linejoin:miter;stroke-miterlimit:4;stroke-dasharray:none;stroke-opacity:1;marker-end:url(#Arrow1Lend-26428)"
       d="m 102.71743,134.45689 35.18582,-25.07022"
       id="path3052-0"
       sodipodi:nodetypes="cc" />
    <path
       style="opacity:0.599434;fill:none;stroke:#9bffa4;stroke-width:0.6;stroke-linecap:butt;stroke-linejoin:miter;stroke-miterlimit:4;stroke-dasharray:none;stroke-opacity:1;marker-end:url(#Arrow1Lend-26428-0)"
       d="m 146.55685,111.71347 -27.43336,25.07022"
       id="path3052-0-3"
       sodipodi:nodetypes="cc" />
    <path
       style="fill:none;stroke:#ffffff;stroke-width:0.6;stroke-linecap:butt;stroke-linejoin:miter;stroke-miterlimit:4;stroke-dasharray:none;stroke-opacity:1;marker-end:url(#Arrow1Lend1551);opacity:0.1"
       d="M 60.785064,101.40179 H 139.34971"
       id="path6254"
       sodipodi:nodetypes="cc" />
    <g
       id="g18975"
       transform="translate(60.064981,-21.842272)"
       style="opacity:0.599434;fill:#9bffa4;fill-opacity:1;stroke:none;stroke-opacity:1">
      <text
         xml:space="preserve"
         style="font-size:10.5833px;line-height:1.25;font-family:'Times New Roman';-inkscape-font-specification:'Times New Roman, ';text-align:center;word-spacing:0px;text-anchor:middle;fill:#9bffa4;fill-opacity:1;stroke:none;stroke-width:0.264583;stroke-opacity:1"
         x="33.953278"
         y="174.3092"
         id="text2093-7-3"><tspan
           sodipodi:role="line"
           id="tspan2091-5-5"
           style="fill:#9bffa4;fill-opacity:1;stroke:none;stroke-width:0.264583;stroke-opacity:1"
           x="35.276192"
           y="174.3092">Dist      </tspan></text>
      <use
         xlink:href="#MJAMS-52"
         id="use17889"
         transform="matrix(0.0179549,0,0,-0.0179549,40.231866,177.86444)"
         style="fill:#9bffa4;fill-opacity:1;stroke:none;stroke-width:0;stroke-opacity:1"
         x="0"
         y="0"
         width="100%"
         height="100%" />
      <text
         xml:space="preserve"
         style="font-size:15.991px;line-height:1.25;font-family:'Times New Roman';-inkscape-font-specification:'Times New Roman, ';text-align:center;word-spacing:0px;text-anchor:middle;fill:#9bffa4;fill-opacity:1;stroke-width:0.399776"
         x="54.733398"
         y="124.60002"
         id="text27008"
         transform="scale(0.70902974,1.4103781)"><tspan
           sodipodi:role="line"
           id="tspan27006"
           style="fill:#9bffa4;fill-opacity:1;stroke-width:0.399776"
           x="54.733398"
           y="124.60002">(</tspan></text>
      <text
         xml:space="preserve"
         style="font-size:15.991px;line-height:1.25;font-family:'Times New Roman';-inkscape-font-specification:'Times New Roman, ';text-align:center;word-spacing:0px;text-anchor:middle;fill:#9bffa4;fill-opacity:1;stroke:none;stroke-width:0.399776;stroke-opacity:1"
         x="-79.785835"
         y="124.11429"
         id="text27008-2"
         transform="scale(-0.70902973,1.4103781)"><tspan
           sodipodi:role="line"
           id="tspan27006-6"
           style="fill:#9bffa4;fill-opacity:1;stroke-width:0.399776"
           x="-79.785835"
           y="124.11429">(</tspan></text>
    </g>
    <use
       xlink:href="#MJAMS-52"
       id="use17889-1"
       transform="matrix(0.0179549,0,0,-0.0179549,142.16344,105.76451)"
       style="fill:#cdcdcd;fill-opacity:1;stroke:none;stroke-width:0;stroke-opacity:1"
       x="0"
       y="0"
       width="100%"
       height="100%" />
  </g>
</svg>
