<?xml version="1.0" encoding="UTF-8" standalone="no"?>
<svg
   width="495.27527pt"
   height="374.7128pt"
   viewBox="0 0 495.27527 374.7128"
   version="1.1"
   id="svg178329"
   sodipodi:docname="experiment2.svg"
   inkscape:version="1.1.2 (0a00cf5339, 2022-02-04, custom)"
   xmlns:inkscape="http://www.inkscape.org/namespaces/inkscape"
   xmlns:sodipodi="http://sodipodi.sourceforge.net/DTD/sodipodi-0.dtd"
   xmlns:xlink="http://www.w3.org/1999/xlink"
   xmlns="http://www.w3.org/2000/svg"
   xmlns:svg="http://www.w3.org/2000/svg"
   xmlns:rdf="http://www.w3.org/1999/02/22-rdf-syntax-ns#"
   xmlns:cc="http://creativecommons.org/ns#"
   xmlns:dc="http://purl.org/dc/elements/1.1/">
  <sodipodi:namedview
     id="namedview178331"
     pagecolor="#505050"
     bordercolor="#ffffff"
     borderopacity="1"
     inkscape:pageshadow="0"
     inkscape:pageopacity="0"
     inkscape:pagecheckerboard="1"
     inkscape:document-units="pt"
     showgrid="false"
     inkscape:zoom="2.0435247"
     inkscape:cx="428.18175"
     inkscape:cy="203.81452"
     inkscape:current-layer="svg178329" />
  <metadata
     id="metadata177630">
    <rdf:RDF>
      <cc:Work>
        <dc:type
           rdf:resource="http://purl.org/dc/dcmitype/StillImage" />
        <dc:date>2022-05-07T22:05:41.480076</dc:date>
        <dc:format>image/svg+xml</dc:format>
        <dc:creator>
          <cc:Agent>
            <dc:title>Matplotlib v3.5.1, https://matplotlib.org/</dc:title>
          </cc:Agent>
        </dc:creator>
      </cc:Work>
    </rdf:RDF>
  </metadata>
  <defs
     id="defs177634">
    <style
       type="text/css"
       id="style177632">*{stroke-linejoin: round; stroke-linecap: butt}</style>
    <defs
       id="defs178054">
      <path
         id="DejaVuSans-78"
         d="M 3513,3500 2247,1797 3578,0 H 2900 L 1881,1375 863,0 H 184 L 1544,1831 300,3500 h 678 l 928,-1247 928,1247 z"
         transform="scale(0.015625)" />
      <path
         id="DejaVuSans-70"
         d="M 1159,525 V -1331 H 581 v 4831 h 578 v -531 q 182,312 458,463 277,152 661,152 638,0 1036,-506 399,-506 399,-1331 0,-825 -399,-1332 -398,-506 -1036,-506 -384,0 -661,152 -276,152 -458,464 z m 1957,1222 q 0,634 -261,995 -261,361 -717,361 -457,0 -718,-361 -261,-361 -261,-995 0,-634 261,-995 261,-361 718,-361 456,0 717,361 261,361 261,995 z"
         transform="scale(0.015625)" />
      <path
         id="DejaVuSans-3d"
         d="M 678,2906 H 4684 V 2381 H 678 Z m 0,-1275 H 4684 V 1100 H 678 Z"
         transform="scale(0.015625)" />
      <path
         id="DejaVuSans-27"
         d="M 1147,4666 V 2931 H 616 v 1735 z"
         transform="scale(0.015625)" />
      <path
         id="DejaVuSans-63"
         d="m 3122,3366 v -538 q -244,135 -489,202 -245,67 -495,67 -560,0 -870,-355 -309,-354 -309,-995 0,-641 309,-996 310,-354 870,-354 250,0 495,67 245,67 489,202 V 134 Q 2881,22 2623,-34 2366,-91 2075,-91 1284,-91 818,406 353,903 353,1747 q 0,856 470,1346 471,491 1290,491 265,0 518,-55 253,-54 491,-163 z"
         transform="scale(0.015625)" />
    </defs>
    <defs
       id="defs177888">
      <path
         id="DejaVuSans-28"
         d="m 1984,4856 q -418,-718 -622,-1422 -203,-703 -203,-1425 0,-721 205,-1429 205,-708 620,-1424 h -500 q -468,735 -701,1444 -233,709 -233,1409 0,697 231,1403 232,707 703,1444 z"
         transform="scale(0.015625)" />
      <path
         id="DejaVuSans-6d"
         d="m 3328,2828 q 216,388 516,572 300,184 706,184 547,0 844,-383 297,-382 297,-1088 V 0 h -578 v 2094 q 0,503 -179,746 -178,244 -543,244 -447,0 -707,-297 -259,-296 -259,-809 V 0 h -578 v 2094 q 0,506 -178,748 -178,242 -550,242 -441,0 -701,-298 -259,-298 -259,-808 V 0 H 581 v 3500 h 578 v -544 q 197,322 472,475 275,153 653,153 382,0 649,-194 267,-193 395,-562 z"
         transform="scale(0.015625)" />
      <path
         id="DejaVuSans-6c"
         d="m 603,4863 h 575 V 0 H 603 Z"
         transform="scale(0.015625)" />
      <path
         id="DejaVuSans-7a"
         d="M 353,3500 H 3084 V 2975 L 922,459 H 3084 V 0 H 275 V 525 L 2438,3041 H 353 Z"
         transform="scale(0.015625)" />
      <path
         id="DejaVuSans-64"
         d="m 2906,2969 v 1894 h 575 V 0 H 2906 V 525 Q 2725,213 2448,61 2172,-91 1784,-91 1150,-91 751,415 353,922 353,1747 q 0,825 398,1331 399,506 1033,506 388,0 664,-152 277,-151 458,-463 z M 947,1747 q 0,-634 261,-995 261,-361 717,-361 456,0 718,361 263,361 263,995 0,634 -263,995 -262,361 -718,361 -456,0 -717,-361 -261,-361 -261,-995 z"
         transform="scale(0.015625)" />
      <path
         id="DejaVuSans-29"
         d="m 513,4856 h 500 q 468,-737 701,-1444 233,-706 233,-1403 0,-700 -233,-1409 -233,-709 -701,-1444 H 513 q 415,716 620,1424 205,708 205,1429 0,722 -205,1425 -205,704 -620,1422 z"
         transform="scale(0.015625)" />
      <path
         id="DejaVuSans-20"
         transform="scale(0.015625)"
         d="" />
      <path
         id="DejaVuSans-75"
         d="m 544,1381 v 2119 h 575 V 1403 q 0,-497 193,-746 194,-248 582,-248 465,0 735,297 271,297 271,810 v 1984 h 575 V 0 H 2900 V 538 Q 2691,219 2414,64 2138,-91 1772,-91 1169,-91 856,284 544,659 544,1381 Z m 1447,2203 z"
         transform="scale(0.015625)" />
      <path
         id="DejaVuSans-67"
         d="m 2906,1791 q 0,625 -258,968 -257,344 -723,344 -462,0 -720,-344 -258,-343 -258,-968 0,-622 258,-966 258,-344 720,-344 466,0 723,344 258,344 258,966 z M 3481,434 q 0,-893 -397,-1329 -396,-436 -1215,-436 -303,0 -572,45 -269,45 -522,139 v 559 q 253,-137 500,-202 247,-66 503,-66 566,0 847,295 281,295 281,892 V 616 Q 2728,306 2450,153 2172,0 1784,0 1141,0 747,490 353,981 353,1791 q 0,812 394,1302 394,491 1037,491 388,0 666,-153 278,-153 456,-462 v 531 h 575 z"
         transform="scale(0.015625)" />
      <path
         id="DejaVuSans-79"
         d="m 2059,-325 q -243,-625 -475,-815 -231,-191 -618,-191 H 506 v 481 h 338 q 237,0 368,113 132,112 291,531 L 1606,56 191,3500 H 800 L 1894,763 2988,3500 h 609 z"
         transform="scale(0.015625)" />
      <path
         id="DejaVuSans-44"
         d="M 1259,4147 V 519 h 763 q 966,0 1414,437 448,438 448,1382 0,937 -448,1373 -448,436 -1414,436 z m -631,519 h 1297 q 1356,0 1990,-564 635,-564 635,-1764 Q 4550,1131 3912,565 3275,0 1925,0 H 628 Z"
         transform="scale(0.015625)" />
      <path
         id="DejaVuSans-46"
         d="M 628,4666 H 3309 V 4134 H 1259 V 2759 H 3109 V 2228 H 1259 V 0 H 628 Z"
         transform="scale(0.015625)" />
      <path
         id="DejaVuSans-41"
         d="M 2188,4044 1331,1722 h 1716 z m -357,622 h 716 L 4325,0 H 3669 L 3244,1197 H 1141 L 716,0 H 50 Z"
         transform="scale(0.015625)" />
      <path
         id="DejaVuSans-66"
         d="m 2375,4863 v -479 h -550 q -309,0 -430,-125 -120,-125 -120,-450 v -309 h 947 V 3053 H 1275 V 0 H 697 V 3053 H 147 v 447 h 550 v 244 q 0,584 272,851 272,268 862,268 z"
         transform="scale(0.015625)" />
    </defs>
    <defs
       id="defs178143">
      <path
         id="mbb86b33550"
         d="M 0,0 H 6"
         style="stroke:#262626;stroke-width:1.25" />
    </defs>
    <defs
       id="defs177763">
      <path
         id="DejaVuSans-49"
         d="m 628,4666 h 631 V 0 H 628 Z"
         transform="scale(0.015625)" />
      <path
         id="DejaVuSans-74"
         d="M 1172,4494 V 3500 H 2356 V 3053 H 1172 V 1153 q 0,-428 117,-550 117,-122 477,-122 h 590 V 0 H 1766 Q 1100,0 847,248 594,497 594,1153 V 3053 H 172 v 447 h 422 v 994 z"
         transform="scale(0.015625)" />
      <path
         id="DejaVuSans-65"
         d="M 3597,1894 V 1613 H 953 q 38,-594 358,-905 320,-311 892,-311 331,0 642,81 311,81 618,244 V 178 Q 3153,47 2828,-22 2503,-91 2169,-91 1331,-91 842,396 353,884 353,1716 q 0,859 464,1363 464,505 1252,505 706,0 1117,-455 411,-454 411,-1235 z m -575,169 q -6,471 -264,752 -258,282 -683,282 -481,0 -770,-272 -289,-272 -333,-766 z"
         transform="scale(0.015625)" />
      <path
         id="DejaVuSans-72"
         d="m 2631,2963 q -97,56 -211,82 -114,27 -251,27 -488,0 -749,-317 -261,-317 -261,-911 V 0 H 581 v 3500 h 578 v -544 q 182,319 472,473 291,155 707,155 59,0 131,-8 72,-7 159,-23 z"
         transform="scale(0.015625)" />
      <path
         id="DejaVuSans-61"
         d="m 2194,1759 q -697,0 -966,-159 -269,-159 -269,-544 0,-306 202,-486 202,-179 548,-179 479,0 768,339 289,339 289,901 v 128 z m 1147,238 V 0 H 2766 V 531 Q 2569,213 2275,61 1981,-91 1556,-91 q -537,0 -855,302 -317,302 -317,808 0,590 395,890 396,300 1180,300 h 807 v 57 q 0,397 -261,614 -261,217 -733,217 -300,0 -585,-72 -284,-72 -546,-216 v 532 q 315,122 612,182 297,61 578,61 760,0 1135,-394 375,-393 375,-1193 z"
         transform="scale(0.015625)" />
      <path
         id="DejaVuSans-69"
         d="m 603,3500 h 575 V 0 H 603 Z m 0,1363 h 575 V 4134 H 603 Z"
         transform="scale(0.015625)" />
      <path
         id="DejaVuSans-6f"
         d="m 1959,3097 q -462,0 -731,-361 -269,-361 -269,-989 0,-628 267,-989 268,-361 733,-361 460,0 728,362 269,363 269,988 0,622 -269,986 -268,364 -728,364 z m 0,487 q 750,0 1178,-488 429,-487 429,-1349 Q 3566,888 3137,398 2709,-91 1959,-91 1206,-91 779,398 353,888 353,1747 q 0,862 426,1349 427,488 1180,488 z"
         transform="scale(0.015625)" />
      <path
         id="DejaVuSans-6e"
         d="M 3513,2113 V 0 h -575 v 2094 q 0,497 -194,743 -194,247 -581,247 -466,0 -735,-297 -269,-296 -269,-809 V 0 H 581 v 3500 h 578 v -544 q 207,316 486,472 280,156 646,156 603,0 912,-373 310,-373 310,-1098 z"
         transform="scale(0.015625)" />
    </defs>
    <defs
       id="defs178299">
      <path
         id="DejaVuSans-Oblique-3b2"
         d="M 872,216 572,-1331 H -6 l 934,4809 q 278,1425 1610,1425 1350,0 1121,-1203 Q 3503,2844 2894,2531 3713,2250 3553,1416 3272,-69 1759,-66 1097,-63 872,216 Z m 147,750 q 240,-544 856,-541 900,0 1091,981 172,882 -1291,813 l 103,531 q 1131,-19 1328,1000 135,688 -597,684 -818,0 -1006,-975 z"
         transform="scale(0.015625)" />
    </defs>
    <defs
       id="defs177791">
      <path
         id="DejaVuSans-2e"
         d="m 684,794 h 660 V 0 H 684 Z"
         transform="scale(0.015625)" />
    </defs>
    <defs
       id="defs177670">
      <path
         id="DejaVuSans-31"
         d="M 794,531 H 1825 V 4091 L 703,3866 v 575 l 1116,225 h 631 V 531 H 3481 V 0 H 794 Z"
         transform="scale(0.015625)" />
    </defs>
    <defs
       id="defs177849">
      <path
         id="DejaVuSans-38"
         d="m 2034,2216 q -450,0 -708,-241 -257,-241 -257,-662 0,-422 257,-663 258,-241 708,-241 450,0 709,242 260,243 260,662 0,421 -258,662 -257,241 -711,241 z m -631,268 q -406,100 -633,378 -226,279 -226,679 0,559 398,884 399,325 1092,325 697,0 1094,-325 397,-325 397,-884 0,-400 -227,-679 -226,-278 -629,-378 456,-106 710,-416 255,-309 255,-755 Q 3634,634 3220,271 2806,-91 2034,-91 1263,-91 848,271 434,634 434,1313 q 0,446 256,755 257,310 713,416 z m -231,997 q 0,-362 226,-565 227,-203 636,-203 407,0 636,203 230,203 230,565 0,363 -230,566 -229,203 -636,203 -409,0 -636,-203 -226,-203 -226,-566 z"
         transform="scale(0.015625)" />
    </defs>
    <defs
       id="defs177658">
      <path
         id="DejaVuSans-35"
         d="M 691,4666 H 3169 V 4134 H 1269 V 2991 q 137,47 274,70 138,23 276,23 781,0 1237,-428 457,-428 457,-1159 Q 3513,744 3044,326 2575,-91 1722,-91 1428,-91 1123,-41 819,9 494,109 v 635 q 281,-153 581,-228 300,-75 634,-75 541,0 856,284 316,284 316,772 0,487 -316,771 -315,285 -856,285 -253,0 -505,-56 -251,-56 -513,-175 z"
         transform="scale(0.015625)" />
    </defs>
    <defs
       id="defs177646">
      <path
         id="DejaVuSans-30"
         d="m 2034,4250 q -487,0 -733,-480 -245,-479 -245,-1442 0,-959 245,-1439 246,-480 733,-480 491,0 736,480 246,480 246,1439 0,963 -246,1442 -245,480 -736,480 z m 0,500 q 785,0 1199,-621 414,-620 414,-1801 0,-1178 -414,-1799 -414,-620 -1199,-620 -784,0 -1198,620 -414,621 -414,1799 0,1181 414,1801 414,621 1198,621 z"
         transform="scale(0.015625)" />
    </defs>
    <defs
       id="defs177745">
      <path
         id="DejaVuSans-34"
         d="M 2419,4116 825,1625 h 1594 z m -166,550 h 794 V 1625 h 666 V 1100 H 3047 V 0 H 2419 V 1100 H 313 v 609 z"
         transform="scale(0.015625)" />
    </defs>
    <defs
       id="defs177720">
      <path
         id="DejaVuSans-33"
         d="m 2597,2516 q 453,-97 707,-404 255,-306 255,-756 0,-690 -475,-1069 -475,-378 -1350,-378 -293,0 -604,58 -311,58 -642,174 v 609 q 262,-153 574,-231 313,-78 654,-78 593,0 904,234 311,234 311,681 0,413 -289,645 -289,233 -804,233 h -544 v 519 h 569 q 465,0 712,186 247,186 247,536 0,359 -255,551 -254,193 -729,193 -260,0 -557,-57 -297,-56 -653,-174 v 562 q 360,100 674,150 314,50 592,50 719,0 1137,-327 419,-326 419,-882 0,-388 -222,-655 -222,-267 -631,-370 z"
         transform="scale(0.015625)" />
    </defs>
    <defs
       id="defs177695">
      <path
         id="DejaVuSans-32"
         d="M 1228,531 H 3431 V 0 H 469 v 531 q 359,372 979,998 621,627 780,809 303,340 423,576 121,236 121,464 0,372 -261,606 -261,235 -680,235 -297,0 -627,-103 -329,-103 -704,-313 v 638 q 381,153 712,231 332,78 607,78 725,0 1156,-363 431,-362 431,-968 0,-288 -108,-546 -107,-257 -392,-607 -78,-91 -497,-524 Q 1991,1309 1228,531 Z"
         transform="scale(0.015625)" />
    </defs>
    <defs
       id="defs178151">
      <path
         id="DejaVuSans-2212"
         d="M 678,2272 H 4684 V 1741 H 678 Z"
         transform="scale(0.015625)" />
    </defs>
    <defs
       id="defs177833">
      <path
         id="DejaVuSans-36"
         d="m 2113,2584 q -425,0 -674,-291 -248,-290 -248,-796 0,-503 248,-796 249,-292 674,-292 425,0 673,292 248,293 248,796 0,506 -248,796 -248,291 -673,291 z m 1253,1979 v -575 q -238,112 -480,171 -242,60 -480,60 -625,0 -955,-422 -329,-422 -376,-1275 184,272 462,417 279,145 613,145 703,0 1111,-427 408,-426 408,-1160 0,-719 -425,-1154 -425,-434 -1131,-434 -810,0 -1238,620 -428,621 -428,1799 0,1106 525,1764 525,658 1409,658 238,0 480,-47 242,-47 505,-140 z"
         transform="scale(0.015625)" />
    </defs>
    <defs
       id="defs178173">
      <path
         id="DejaVuSans-37"
         d="M 525,4666 H 3525 V 4397 L 1831,0 H 1172 L 2766,4134 H 525 Z"
         transform="scale(0.015625)" />
    </defs>
  </defs>
  <path
     d="M -47.392812,395.27811 H 672.60719 V -36.721875 H -47.392812 Z"
     style="fill:none"
     id="path177636" />
  <path
     d="M 42.607188,341.27811 H 489.00719 V 15.118125 H 42.607188 Z"
     style="fill:none"
     id="path177639" />
  <path
     d="M 90,378 V 51.84"
     clip-path="url(#p569f174dd0)"
     style="fill:#ffffff;fill-opacity:1;stroke:#ffffff;stroke-linecap:round"
     id="path177642"
     transform="translate(-47.392812,-36.721875)" />
  <use
     xlink:href="#DejaVuSans-30"
     id="use177648"
     x="0"
     y="0"
     width="100%"
     height="100%"
     transform="matrix(0.11,0,0,-0.11,39.107813,359.13639)"
     style="fill:#ffffff;fill-opacity:1" />
  <use
     xlink:href="#DejaVuSans-35"
     id="use177660"
     x="0"
     y="0"
     width="100%"
     height="100%"
     transform="matrix(0.11,0,0,-0.11,94.907808,359.13639)"
     style="fill:#ffffff;fill-opacity:1" />
  <use
     xlink:href="#DejaVuSans-31"
     id="use177672"
     x="0"
     y="0"
     width="100%"
     height="100%"
     transform="matrix(0.11,0,0,-0.11,147.20844,359.13639)"
     style="fill:#ffffff;fill-opacity:1" />
  <use
     xlink:href="#DejaVuSans-30"
     x="63.623047"
     id="use177674"
     y="0"
     width="100%"
     height="100%"
     transform="matrix(0.11,0,0,-0.11,147.20844,359.13639)"
     style="fill:#ffffff;fill-opacity:1" />
  <use
     xlink:href="#DejaVuSans-31"
     id="use177683"
     x="0"
     y="0"
     width="100%"
     height="100%"
     transform="matrix(0.11,0,0,-0.11,203.00844,359.13639)"
     style="fill:#ffffff;fill-opacity:1" />
  <use
     xlink:href="#DejaVuSans-35"
     x="63.623047"
     id="use177685"
     y="0"
     width="100%"
     height="100%"
     transform="matrix(0.11,0,0,-0.11,203.00844,359.13639)"
     style="fill:#ffffff;fill-opacity:1" />
  <use
     xlink:href="#DejaVuSans-32"
     id="use177697"
     x="0"
     y="0"
     width="100%"
     height="100%"
     transform="matrix(0.11,0,0,-0.11,258.80844,359.13639)"
     style="fill:#ffffff;fill-opacity:1" />
  <use
     xlink:href="#DejaVuSans-30"
     x="63.623047"
     id="use177699"
     y="0"
     width="100%"
     height="100%"
     transform="matrix(0.11,0,0,-0.11,258.80844,359.13639)"
     style="fill:#ffffff;fill-opacity:1" />
  <use
     xlink:href="#DejaVuSans-32"
     id="use177708"
     x="0"
     y="0"
     width="100%"
     height="100%"
     transform="matrix(0.11,0,0,-0.11,314.60844,359.13639)"
     style="fill:#ffffff;fill-opacity:1" />
  <use
     xlink:href="#DejaVuSans-35"
     x="63.623047"
     id="use177710"
     y="0"
     width="100%"
     height="100%"
     transform="matrix(0.11,0,0,-0.11,314.60844,359.13639)"
     style="fill:#ffffff;fill-opacity:1" />
  <use
     xlink:href="#DejaVuSans-33"
     id="use177722"
     x="0"
     y="0"
     width="100%"
     height="100%"
     transform="matrix(0.11,0,0,-0.11,370.40844,359.13639)"
     style="fill:#ffffff;fill-opacity:1" />
  <use
     xlink:href="#DejaVuSans-30"
     x="63.623047"
     id="use177724"
     y="0"
     width="100%"
     height="100%"
     transform="matrix(0.11,0,0,-0.11,370.40844,359.13639)"
     style="fill:#ffffff;fill-opacity:1" />
  <use
     xlink:href="#DejaVuSans-33"
     id="use177733"
     x="0"
     y="0"
     width="100%"
     height="100%"
     transform="matrix(0.11,0,0,-0.11,426.20844,359.13639)"
     style="fill:#ffffff;fill-opacity:1" />
  <use
     xlink:href="#DejaVuSans-35"
     x="63.623047"
     id="use177735"
     y="0"
     width="100%"
     height="100%"
     transform="matrix(0.11,0,0,-0.11,426.20844,359.13639)"
     style="fill:#ffffff;fill-opacity:1" />
  <path
     d="M 536.4,378 V 51.84"
     clip-path="url(#p569f174dd0)"
     style="fill:none;stroke:#ffffff;stroke-linecap:round"
     id="path177741"
     transform="translate(-47.392812,-36.721875)" />
  <use
     xlink:href="#DejaVuSans-34"
     id="use177747"
     x="0"
     y="0"
     width="100%"
     height="100%"
     transform="matrix(0.11,0,0,-0.11,482.00844,359.13639)"
     style="fill:#ffffff;fill-opacity:1" />
  <use
     xlink:href="#DejaVuSans-30"
     x="63.623047"
     id="use177749"
     y="0"
     width="100%"
     height="100%"
     transform="matrix(0.11,0,0,-0.11,482.00844,359.13639)"
     style="fill:#ffffff;fill-opacity:1" />
  <use
     xlink:href="#DejaVuSans-49"
     id="use177765"
     x="0"
     y="0"
     width="100%"
     height="100%"
     transform="matrix(0.12,0,0,-0.12,240.35688,374.54217)"
     style="fill:#ffffff;fill-opacity:1" />
  <use
     xlink:href="#DejaVuSans-74"
     x="29.492188"
     id="use177767"
     y="0"
     width="100%"
     height="100%"
     transform="matrix(0.12,0,0,-0.12,240.35688,374.54217)"
     style="fill:#ffffff;fill-opacity:1" />
  <use
     xlink:href="#DejaVuSans-65"
     x="68.701172"
     id="use177769"
     y="0"
     width="100%"
     height="100%"
     transform="matrix(0.12,0,0,-0.12,240.35688,374.54217)"
     style="fill:#ffffff;fill-opacity:1" />
  <use
     xlink:href="#DejaVuSans-72"
     x="130.22461"
     id="use177771"
     y="0"
     width="100%"
     height="100%"
     transform="matrix(0.12,0,0,-0.12,240.35688,374.54217)"
     style="fill:#ffffff;fill-opacity:1" />
  <use
     xlink:href="#DejaVuSans-61"
     x="171.33789"
     id="use177773"
     y="0"
     width="100%"
     height="100%"
     transform="matrix(0.12,0,0,-0.12,240.35688,374.54217)"
     style="fill:#ffffff;fill-opacity:1" />
  <use
     xlink:href="#DejaVuSans-74"
     x="232.61719"
     id="use177775"
     y="0"
     width="100%"
     height="100%"
     transform="matrix(0.12,0,0,-0.12,240.35688,374.54217)"
     style="fill:#ffffff;fill-opacity:1" />
  <use
     xlink:href="#DejaVuSans-69"
     x="271.82617"
     id="use177777"
     y="0"
     width="100%"
     height="100%"
     transform="matrix(0.12,0,0,-0.12,240.35688,374.54217)"
     style="fill:#ffffff;fill-opacity:1" />
  <use
     xlink:href="#DejaVuSans-6f"
     x="299.60938"
     id="use177779"
     y="0"
     width="100%"
     height="100%"
     transform="matrix(0.12,0,0,-0.12,240.35688,374.54217)"
     style="fill:#ffffff;fill-opacity:1" />
  <use
     xlink:href="#DejaVuSans-6e"
     x="360.79102"
     id="use177781"
     y="0"
     width="100%"
     height="100%"
     transform="matrix(0.12,0,0,-0.12,240.35688,374.54217)"
     style="fill:#ffffff;fill-opacity:1" />
  <path
     d="M 90,363.17455 H 536.4"
     clip-path="url(#p569f174dd0)"
     style="fill:none;stroke:#ffffff;stroke-linecap:round"
     id="path177787"
     transform="translate(-47.392812,-36.721875)" />
  <use
     xlink:href="#DejaVuSans-30"
     id="use177793"
     x="0"
     y="0"
     width="100%"
     height="100%"
     transform="matrix(0.11,0,0,-0.11,15.613751,330.6318)"
     style="fill:#ffffff;fill-opacity:1" />
  <use
     xlink:href="#DejaVuSans-2e"
     x="63.623047"
     id="use177795"
     y="0"
     width="100%"
     height="100%"
     transform="matrix(0.11,0,0,-0.11,15.613751,330.6318)"
     style="fill:#ffffff;fill-opacity:1" />
  <use
     xlink:href="#DejaVuSans-30"
     x="95.410156"
     id="use177797"
     y="0"
     width="100%"
     height="100%"
     transform="matrix(0.11,0,0,-0.11,15.613751,330.6318)"
     style="fill:#ffffff;fill-opacity:1" />
  <path
     d="M 90,303.87273 H 536.4"
     clip-path="url(#p569f174dd0)"
     style="fill:none;stroke:#ffffff;stroke-linecap:round"
     id="path177803"
     transform="translate(-47.392812,-36.721875)" />
  <use
     xlink:href="#DejaVuSans-30"
     id="use177806"
     x="0"
     y="0"
     width="100%"
     height="100%"
     transform="matrix(0.11,0,0,-0.11,15.613751,271.32999)"
     style="fill:#ffffff;fill-opacity:1" />
  <use
     xlink:href="#DejaVuSans-2e"
     x="63.623047"
     id="use177808"
     y="0"
     width="100%"
     height="100%"
     transform="matrix(0.11,0,0,-0.11,15.613751,271.32999)"
     style="fill:#ffffff;fill-opacity:1" />
  <use
     xlink:href="#DejaVuSans-32"
     x="95.410156"
     id="use177810"
     y="0"
     width="100%"
     height="100%"
     transform="matrix(0.11,0,0,-0.11,15.613751,271.32999)"
     style="fill:#ffffff;fill-opacity:1" />
  <path
     d="M 90,244.57091 H 536.4"
     clip-path="url(#p569f174dd0)"
     style="fill:none;stroke:#ffffff;stroke-linecap:round"
     id="path177816"
     transform="translate(-47.392812,-36.721875)" />
  <use
     xlink:href="#DejaVuSans-30"
     id="use177819"
     x="0"
     y="0"
     width="100%"
     height="100%"
     transform="matrix(0.11,0,0,-0.11,15.613751,212.02816)"
     style="fill:#ffffff;fill-opacity:1" />
  <use
     xlink:href="#DejaVuSans-2e"
     x="63.623047"
     id="use177821"
     y="0"
     width="100%"
     height="100%"
     transform="matrix(0.11,0,0,-0.11,15.613751,212.02816)"
     style="fill:#ffffff;fill-opacity:1" />
  <use
     xlink:href="#DejaVuSans-34"
     x="95.410156"
     id="use177823"
     y="0"
     width="100%"
     height="100%"
     transform="matrix(0.11,0,0,-0.11,15.613751,212.02816)"
     style="fill:#ffffff;fill-opacity:1" />
  <path
     d="M 90,185.26909 H 536.4"
     clip-path="url(#p569f174dd0)"
     style="fill:none;stroke:#ffffff;stroke-linecap:round"
     id="path177829"
     transform="translate(-47.392812,-36.721875)" />
  <use
     xlink:href="#DejaVuSans-30"
     id="use177835"
     x="0"
     y="0"
     width="100%"
     height="100%"
     transform="matrix(0.11,0,0,-0.11,15.613751,152.72634)"
     style="fill:#ffffff;fill-opacity:1" />
  <use
     xlink:href="#DejaVuSans-2e"
     x="63.623047"
     id="use177837"
     y="0"
     width="100%"
     height="100%"
     transform="matrix(0.11,0,0,-0.11,15.613751,152.72634)"
     style="fill:#ffffff;fill-opacity:1" />
  <use
     xlink:href="#DejaVuSans-36"
     x="95.410156"
     id="use177839"
     y="0"
     width="100%"
     height="100%"
     transform="matrix(0.11,0,0,-0.11,15.613751,152.72634)"
     style="fill:#ffffff;fill-opacity:1" />
  <path
     d="M 90,125.96727 H 536.4"
     clip-path="url(#p569f174dd0)"
     style="fill:none;stroke:#ffffff;stroke-linecap:round"
     id="path177845"
     transform="translate(-47.392812,-36.721875)" />
  <use
     xlink:href="#DejaVuSans-30"
     id="use177851"
     x="0"
     y="0"
     width="100%"
     height="100%"
     transform="matrix(0.11,0,0,-0.11,15.613751,93.424535)"
     style="fill:#ffffff;fill-opacity:1" />
  <use
     xlink:href="#DejaVuSans-2e"
     x="63.623047"
     id="use177853"
     y="0"
     width="100%"
     height="100%"
     transform="matrix(0.11,0,0,-0.11,15.613751,93.424535)"
     style="fill:#ffffff;fill-opacity:1" />
  <use
     xlink:href="#DejaVuSans-38"
     x="95.410156"
     id="use177855"
     y="0"
     width="100%"
     height="100%"
     transform="matrix(0.11,0,0,-0.11,15.613751,93.424535)"
     style="fill:#ffffff;fill-opacity:1" />
  <path
     d="M 90,66.665455 H 536.4"
     clip-path="url(#p569f174dd0)"
     style="fill:none;stroke:#ffffff;stroke-linecap:round"
     id="path177861"
     transform="translate(-47.392812,-36.721875)" />
  <use
     xlink:href="#DejaVuSans-31"
     id="use177864"
     x="0"
     y="0"
     width="100%"
     height="100%"
     transform="matrix(0.11,0,0,-0.11,15.613751,34.12272)"
     style="fill:#ffffff;fill-opacity:1" />
  <use
     xlink:href="#DejaVuSans-2e"
     x="63.623047"
     id="use177866"
     y="0"
     width="100%"
     height="100%"
     transform="matrix(0.11,0,0,-0.11,15.613751,34.12272)"
     style="fill:#ffffff;fill-opacity:1" />
  <use
     xlink:href="#DejaVuSans-30"
     x="95.410156"
     id="use177868"
     y="0"
     width="100%"
     height="100%"
     transform="matrix(0.11,0,0,-0.11,15.613751,34.12272)"
     style="fill:#ffffff;fill-opacity:1" />
  <use
     xlink:href="#DejaVuSans-28"
     id="use177890"
     x="0"
     y="0"
     width="100%"
     height="100%"
     transform="matrix(0,-0.12,-0.12,0,9.118125,304.18873)"
     style="fill:#ffffff;fill-opacity:1" />
  <use
     xlink:href="#DejaVuSans-6e"
     x="39.013672"
     id="use177892"
     y="0"
     width="100%"
     height="100%"
     transform="matrix(0,-0.12,-0.12,0,9.118125,304.18873)"
     style="fill:#ffffff;fill-opacity:1" />
  <use
     xlink:href="#DejaVuSans-6f"
     x="102.39258"
     id="use177894"
     y="0"
     width="100%"
     height="100%"
     transform="matrix(0,-0.12,-0.12,0,9.118125,304.18873)"
     style="fill:#ffffff;fill-opacity:1" />
  <use
     xlink:href="#DejaVuSans-72"
     x="163.57422"
     id="use177896"
     y="0"
     width="100%"
     height="100%"
     transform="matrix(0,-0.12,-0.12,0,9.118125,304.18873)"
     style="fill:#ffffff;fill-opacity:1" />
  <use
     xlink:href="#DejaVuSans-6d"
     x="202.9375"
     id="use177898"
     y="0"
     width="100%"
     height="100%"
     transform="matrix(0,-0.12,-0.12,0,9.118125,304.18873)"
     style="fill:#ffffff;fill-opacity:1" />
  <use
     xlink:href="#DejaVuSans-61"
     x="300.34961"
     id="use177900"
     y="0"
     width="100%"
     height="100%"
     transform="matrix(0,-0.12,-0.12,0,9.118125,304.18873)"
     style="fill:#ffffff;fill-opacity:1" />
  <use
     xlink:href="#DejaVuSans-6c"
     x="361.62891"
     id="use177902"
     y="0"
     width="100%"
     height="100%"
     transform="matrix(0,-0.12,-0.12,0,9.118125,304.18873)"
     style="fill:#ffffff;fill-opacity:1" />
  <use
     xlink:href="#DejaVuSans-69"
     x="389.41211"
     id="use177904"
     y="0"
     width="100%"
     height="100%"
     transform="matrix(0,-0.12,-0.12,0,9.118125,304.18873)"
     style="fill:#ffffff;fill-opacity:1" />
  <use
     xlink:href="#DejaVuSans-7a"
     x="417.19531"
     id="use177906"
     y="0"
     width="100%"
     height="100%"
     transform="matrix(0,-0.12,-0.12,0,9.118125,304.18873)"
     style="fill:#ffffff;fill-opacity:1" />
  <use
     xlink:href="#DejaVuSans-65"
     x="469.68555"
     id="use177908"
     y="0"
     width="100%"
     height="100%"
     transform="matrix(0,-0.12,-0.12,0,9.118125,304.18873)"
     style="fill:#ffffff;fill-opacity:1" />
  <use
     xlink:href="#DejaVuSans-64"
     x="531.20898"
     id="use177910"
     y="0"
     width="100%"
     height="100%"
     transform="matrix(0,-0.12,-0.12,0,9.118125,304.18873)"
     style="fill:#ffffff;fill-opacity:1" />
  <use
     xlink:href="#DejaVuSans-29"
     x="594.68555"
     id="use177912"
     y="0"
     width="100%"
     height="100%"
     transform="matrix(0,-0.12,-0.12,0,9.118125,304.18873)"
     style="fill:#ffffff;fill-opacity:1" />
  <use
     xlink:href="#DejaVuSans-20"
     x="633.69922"
     id="use177914"
     y="0"
     width="100%"
     height="100%"
     transform="matrix(0,-0.12,-0.12,0,9.118125,304.18873)"
     style="fill:#262626" />
  <use
     xlink:href="#DejaVuSans-6d"
     x="665.48633"
     id="use177916"
     y="0"
     width="100%"
     height="100%"
     transform="matrix(0,-0.12,-0.12,0,9.118125,304.18873)"
     style="fill:#ffffff;fill-opacity:1" />
  <use
     xlink:href="#DejaVuSans-69"
     x="762.89844"
     id="use177918"
     y="0"
     width="100%"
     height="100%"
     transform="matrix(0,-0.12,-0.12,0,9.118125,304.18873)"
     style="fill:#ffffff;fill-opacity:1" />
  <use
     xlink:href="#DejaVuSans-6e"
     x="790.68164"
     id="use177920"
     y="0"
     width="100%"
     height="100%"
     transform="matrix(0,-0.12,-0.12,0,9.118125,304.18873)"
     style="fill:#ffffff;fill-opacity:1" />
  <use
     xlink:href="#DejaVuSans-75"
     x="854.06055"
     id="use177922"
     y="0"
     width="100%"
     height="100%"
     transform="matrix(0,-0.12,-0.12,0,9.118125,304.18873)"
     style="fill:#ffffff;fill-opacity:1" />
  <use
     xlink:href="#DejaVuSans-6d"
     x="917.43945"
     id="use177924"
     y="0"
     width="100%"
     height="100%"
     transform="matrix(0,-0.12,-0.12,0,9.118125,304.18873)"
     style="fill:#ffffff;fill-opacity:1" />
  <use
     xlink:href="#DejaVuSans-75"
     x="1014.8516"
     id="use177926"
     y="0"
     width="100%"
     height="100%"
     transform="matrix(0,-0.12,-0.12,0,9.118125,304.18873)"
     style="fill:#ffffff;fill-opacity:1" />
  <use
     xlink:href="#DejaVuSans-6d"
     x="1078.2305"
     id="use177928"
     y="0"
     width="100%"
     height="100%"
     transform="matrix(0,-0.12,-0.12,0,9.118125,304.18873)"
     style="fill:#ffffff;fill-opacity:1" />
  <use
     xlink:href="#DejaVuSans-20"
     x="1175.6426"
     id="use177930"
     y="0"
     width="100%"
     height="100%"
     transform="matrix(0,-0.12,-0.12,0,9.118125,304.18873)"
     style="fill:#262626" />
  <use
     xlink:href="#DejaVuSans-65"
     x="1207.4297"
     id="use177932"
     y="0"
     width="100%"
     height="100%"
     transform="matrix(0,-0.12,-0.12,0,9.118125,304.18873)"
     style="fill:#ffffff;fill-opacity:1" />
  <use
     xlink:href="#DejaVuSans-6e"
     x="1268.9531"
     id="use177934"
     y="0"
     width="100%"
     height="100%"
     transform="matrix(0,-0.12,-0.12,0,9.118125,304.18873)"
     style="fill:#ffffff;fill-opacity:1" />
  <use
     xlink:href="#DejaVuSans-65"
     x="1332.332"
     id="use177936"
     y="0"
     width="100%"
     height="100%"
     transform="matrix(0,-0.12,-0.12,0,9.118125,304.18873)"
     style="fill:#ffffff;fill-opacity:1" />
  <use
     xlink:href="#DejaVuSans-72"
     x="1393.8555"
     id="use177938"
     y="0"
     width="100%"
     height="100%"
     transform="matrix(0,-0.12,-0.12,0,9.118125,304.18873)"
     style="fill:#ffffff;fill-opacity:1" />
  <use
     xlink:href="#DejaVuSans-67"
     x="1433.2188"
     id="use177940"
     y="0"
     width="100%"
     height="100%"
     transform="matrix(0,-0.12,-0.12,0,9.118125,304.18873)"
     style="fill:#ffffff;fill-opacity:1" />
  <use
     xlink:href="#DejaVuSans-79"
     x="1496.6953"
     id="use177942"
     y="0"
     width="100%"
     height="100%"
     transform="matrix(0,-0.12,-0.12,0,9.118125,304.18873)"
     style="fill:#ffffff;fill-opacity:1" />
  <use
     xlink:href="#DejaVuSans-20"
     x="1555.875"
     id="use177944"
     y="0"
     width="100%"
     height="100%"
     transform="matrix(0,-0.12,-0.12,0,9.118125,304.18873)"
     style="fill:#262626" />
  <use
     xlink:href="#DejaVuSans-44"
     x="1587.6621"
     id="use177946"
     y="0"
     width="100%"
     height="100%"
     transform="matrix(0,-0.12,-0.12,0,9.118125,304.18873)"
     style="fill:#ffffff;fill-opacity:1" />
  <use
     xlink:href="#DejaVuSans-46"
     x="1664.6641"
     id="use177948"
     y="0"
     width="100%"
     height="100%"
     transform="matrix(0,-0.12,-0.12,0,9.118125,304.18873)"
     style="fill:#ffffff;fill-opacity:1" />
  <use
     xlink:href="#DejaVuSans-41"
     x="1713.0586"
     id="use177950"
     y="0"
     width="100%"
     height="100%"
     transform="matrix(0,-0.12,-0.12,0,9.118125,304.18873)"
     style="fill:#ffffff;fill-opacity:1" />
  <use
     xlink:href="#DejaVuSans-20"
     x="1781.4668"
     id="use177952"
     y="0"
     width="100%"
     height="100%"
     transform="matrix(0,-0.12,-0.12,0,9.118125,304.18873)"
     style="fill:#262626" />
  <use
     xlink:href="#DejaVuSans-66"
     x="1813.2539"
     id="use177954"
     y="0"
     width="100%"
     height="100%"
     transform="matrix(0,-0.12,-0.12,0,9.118125,304.18873)"
     style="fill:#ffffff;fill-opacity:1" />
  <use
     xlink:href="#DejaVuSans-6f"
     x="1848.459"
     id="use177956"
     y="0"
     width="100%"
     height="100%"
     transform="matrix(0,-0.12,-0.12,0,9.118125,304.18873)"
     style="fill:#ffffff;fill-opacity:1" />
  <use
     xlink:href="#DejaVuSans-75"
     x="1909.6406"
     id="use177958"
     y="0"
     width="100%"
     height="100%"
     transform="matrix(0,-0.12,-0.12,0,9.118125,304.18873)"
     style="fill:#ffffff;fill-opacity:1" />
  <use
     xlink:href="#DejaVuSans-6e"
     x="1973.0195"
     id="use177960"
     y="0"
     width="100%"
     height="100%"
     transform="matrix(0,-0.12,-0.12,0,9.118125,304.18873)"
     style="fill:#ffffff;fill-opacity:1" />
  <use
     xlink:href="#DejaVuSans-64"
     x="2036.3984"
     id="use177962"
     y="0"
     width="100%"
     height="100%"
     transform="matrix(0,-0.12,-0.12,0,9.118125,304.18873)"
     style="fill:#ffffff;fill-opacity:1" />
  <path
     d="m 90,136.60242 h 11.16 11.16 11.16 11.16 11.16 11.16 11.16 11.16 11.16 11.16 11.16 l 11.16,225.12972 h 11.16 11.16 11.16 11.16 11.16 11.16 11.16 11.16 11.16 11.16 11.16 11.16 11.16 11.16 11.16 11.16 11.16 11.16 11.16 11.16 11.16 11.16 11.16 11.16 11.16 11.16 11.16"
     clip-path="url(#p569f174dd0)"
     style="fill:none;stroke:#ebebeb;stroke-width:1.5;stroke-dasharray:5.55, 2.4;stroke-dashoffset:0;stroke-opacity:1"
     id="path177968"
     transform="translate(-47.392812,-36.721875)" />
  <path
     d="m 90,66.665455 11.16,62.770145 11.16,230.00031 h 11.16 l 11.16,2.29623 h 11.16 11.16 11.16 11.16 11.16 11.16 11.16 11.16 11.16 11.16 11.16 11.16 11.16 11.16 11.16 11.16 11.16 11.16 11.16 11.16 11.16 11.16 11.16 11.16 11.16 11.16 11.16 11.16 11.16 11.16 11.16 11.16 11.16 11.16 11.16"
     clip-path="url(#p569f174dd0)"
     style="fill:none;stroke:#485fd1;stroke-width:1.5;stroke-linecap:round"
     id="path177971"
     transform="translate(-47.392812,-36.721875)" />
  <path
     d="m 90,66.665455 11.16,39.355545 11.16,36.72461 11.16,214.14626 h 11.16 l 11.16,2.54404 h 11.16 l 11.16,0.56153 h 11.16 11.16 11.16 11.16 11.16 11.16 11.16 11.16 11.16 11.16 l 11.16,1.7347 h 11.16 11.16 11.16 11.16 11.16 11.16 11.16 11.16 11.16 11.16 11.16 11.16 11.16 11.16 11.16 11.16 11.16 11.16 11.16 11.16 11.16"
     clip-path="url(#p569f174dd0)"
     style="fill:none;stroke:#5572df;stroke-width:1.5;stroke-linecap:round"
     id="path177974"
     transform="translate(-47.392812,-36.721875)" />
  <path
     d="m 90,66.665455 11.16,39.355545 11.16,253.41491 h 11.16 l 11.16,1.84721 h 11.16 l 11.16,0.44902 h 11.16 11.16 11.16 11.16 11.16 11.16 11.16 11.16 11.16 11.16 11.16 11.16 11.16 11.16 11.16 11.16 11.16 11.16 11.16 11.16 11.16 11.16 11.16 11.16 11.16 11.16 11.16 11.16 11.16 11.16 11.16 11.16 11.16"
     clip-path="url(#p569f174dd0)"
     style="fill:none;stroke:#6384eb;stroke-width:1.5;stroke-linecap:round"
     id="path177977"
     transform="translate(-47.392812,-36.721875)" />
  <path
     d="m 90,66.665455 11.16,35.577315 11.16,254.6491 h 11.16 l 11.16,3.10944 h 11.16 11.16 11.16 11.16 11.16 11.16 11.16 11.16 l 11.16,1.73083 h 11.16 11.16 11.16 11.16 11.16 11.16 11.16 11.16 11.16 11.16 11.16 11.16 11.16 11.16 11.16 11.16 11.16 11.16 11.16 11.16 l 11.16,1.44241 h 11.16 11.16 11.16 11.16 11.16"
     clip-path="url(#p569f174dd0)"
     style="fill:none;stroke:#7295f4;stroke-width:1.5;stroke-linecap:round"
     id="path177980"
     transform="translate(-47.392812,-36.721875)" />
  <path
     d="m 90,66.665455 11.16,39.355545 11.16,255.71114 h 11.16 11.16 11.16 11.16 11.16 11.16 11.16 11.16 11.16 11.16 11.16 11.16 11.16 11.16 11.16 11.16 11.16 11.16 11.16 11.16 11.16 11.16 11.16 11.16 11.16 11.16 11.16 11.16 11.16 11.16 11.16 11.16 11.16 11.16 11.16 11.16 11.16"
     clip-path="url(#p569f174dd0)"
     style="fill:none;stroke:#81a4fb;stroke-width:1.5;stroke-linecap:round"
     id="path177983"
     transform="translate(-47.392812,-36.721875)" />
  <path
     d="m 90,66.665455 11.16,62.770145 11.16,7.16682 h 11.16 l 11.16,223.39889 h 11.16 11.16 l 11.16,1.73083 h 11.16 11.16 11.16 11.16 11.16 11.16 11.16 11.16 11.16 11.16 11.16 11.16 11.16 11.16 11.16 11.16 11.16 11.16 11.16 11.16 11.16 11.16 11.16 11.16 11.16 11.16 11.16 11.16 11.16 11.16 11.16 11.16"
     clip-path="url(#p569f174dd0)"
     style="fill:none;stroke:#90b2fe;stroke-width:1.5;stroke-linecap:round"
     id="path177986"
     transform="translate(-47.392812,-36.721875)" />
  <path
     d="m 90,66.665455 11.16,39.355545 11.16,250.87087 11.16,4.84027 h 11.16 11.16 11.16 11.16 11.16 11.16 11.16 11.16 11.16 11.16 11.16 11.16 11.16 11.16 11.16 11.16 11.16 11.16 11.16 11.16 11.16 11.16 11.16 11.16 11.16 11.16 11.16 11.16 11.16 11.16 11.16 11.16 11.16 11.16 11.16 11.16"
     clip-path="url(#p569f174dd0)"
     style="fill:none;stroke:#9fbfff;stroke-width:1.5;stroke-linecap:round"
     id="path177989"
     transform="translate(-47.392812,-36.721875)" />
  <path
     d="m 90,66.665455 11.16,62.770145 11.16,227.45627 h 11.16 l 11.16,2.54404 h 11.16 11.16 11.16 11.16 11.16 11.16 l 11.16,2.29623 h 11.16 11.16 11.16 11.16 11.16 11.16 11.16 11.16 11.16 11.16 11.16 11.16 11.16 11.16 11.16 11.16 11.16 11.16 11.16 11.16 11.16 11.16 l 11.16,1.44241 h 11.16 11.16 11.16 11.16 11.16"
     clip-path="url(#p569f174dd0)"
     style="fill:none;stroke:#afcafc;stroke-width:1.5;stroke-linecap:round"
     id="path177992"
     transform="translate(-47.392812,-36.721875)" />
  <path
     d="m 90,66.665455 11.16,62.770145 11.16,8.88355 11.16,4.42646 11.16,217.2557 h 11.16 11.16 11.16 11.16 11.16 11.16 l 11.16,1.73083 h 11.16 11.16 11.16 11.16 11.16 11.16 11.16 11.16 11.16 11.16 11.16 11.16 11.16 11.16 11.16 11.16 11.16 11.16 11.16 11.16 11.16 11.16 11.16 11.16 11.16 11.16 11.16 11.16"
     clip-path="url(#p569f174dd0)"
     style="fill:none;stroke:#bed2f6;stroke-width:1.5;stroke-linecap:round"
     id="path177995"
     transform="translate(-47.392812,-36.721875)" />
  <path
     d="m 90,66.665455 h 11.16 11.16 l 11.16,39.355545 11.16,23.4146 h 11.16 11.16 l 11.16,227.45627 11.16,3.10944 h 11.16 11.16 11.16 l 11.16,1.73083 h 11.16 11.16 11.16 11.16 11.16 11.16 11.16 11.16 11.16 11.16 11.16 11.16 11.16 11.16 11.16 11.16 11.16 11.16 11.16 11.16 11.16 11.16 11.16 11.16 11.16 11.16 11.16"
     clip-path="url(#p569f174dd0)"
     style="fill:none;stroke:#cbd8ee;stroke-width:1.5;stroke-linecap:round"
     id="path177998"
     transform="translate(-47.392812,-36.721875)" />
  <path
     d="m 90,66.665455 h 11.16 11.16 11.16 11.16 l 11.16,44.347375 11.16,248.98461 h 11.16 l 11.16,1.7347 h 11.16 11.16 11.16 11.16 11.16 11.16 11.16 11.16 11.16 11.16 11.16 11.16 11.16 11.16 11.16 11.16 11.16 11.16 11.16 11.16 11.16 11.16 11.16 11.16 11.16 11.16 11.16 11.16 11.16 11.16 11.16"
     clip-path="url(#p569f174dd0)"
     style="fill:none;stroke:#d7dce3;stroke-width:1.5;stroke-linecap:round"
     id="path178001"
     transform="translate(-47.392812,-36.721875)" />
  <path
     d="m 90,66.665455 11.16,35.577315 11.16,27.19283 h 11.16 11.16 l 11.16,8.88355 h 11.16 11.16 l 11.16,218.57272 11.16,2.54404 h 11.16 11.16 11.16 11.16 11.16 11.16 11.16 11.16 11.16 11.16 11.16 11.16 l 11.16,2.29623 h 11.16 11.16 11.16 11.16 11.16 11.16 11.16 11.16 11.16 11.16 11.16 11.16 11.16 11.16 11.16 11.16 11.16"
     clip-path="url(#p569f174dd0)"
     style="fill:none;stroke:#e2dad5;stroke-width:1.5;stroke-linecap:round"
     id="path178004"
     transform="translate(-47.392812,-36.721875)" />
  <path
     d="m 90,66.665455 h 11.16 l 11.16,62.770145 11.16,7.16682 h 11.16 11.16 11.16 11.16 l 11.16,12.90925 h 11.16 11.16 11.16 l 11.16,10.75775 h 11.16 l 11.16,196.62245 11.16,4.84027 h 11.16 11.16 11.16 11.16 11.16 11.16 11.16 11.16 11.16 11.16 11.16 11.16 11.16 11.16 11.16 11.16 11.16 11.16 11.16 11.16 11.16 11.16 11.16 11.16"
     clip-path="url(#p569f174dd0)"
     style="fill:none;stroke:#ecd3c5;stroke-width:1.5;stroke-linecap:round"
     id="path178007"
     transform="translate(-47.392812,-36.721875)" />
  <path
     d="m 90,66.665455 h 11.16 11.16 l 11.16,62.770145 h 11.16 l 11.16,7.16682 h 11.16 11.16 l 11.16,225.12972 h 11.16 11.16 11.16 11.16 11.16 11.16 11.16 11.16 11.16 11.16 11.16 11.16 11.16 11.16 11.16 11.16 11.16 11.16 11.16 11.16 11.16 11.16 11.16 11.16 11.16 11.16 11.16 11.16 11.16 11.16 11.16"
     clip-path="url(#p569f174dd0)"
     style="fill:none;stroke:#f2c9b4;stroke-width:1.5;stroke-linecap:round"
     id="path178010"
     transform="translate(-47.392812,-36.721875)" />
  <path
     d="m 90,66.665455 11.16,35.577315 11.16,34.35965 h 11.16 l 11.16,220.28945 h 11.16 11.16 11.16 11.16 11.16 11.16 11.16 11.16 11.16 11.16 11.16 l 11.16,4.84027 h 11.16 11.16 11.16 11.16 11.16 11.16 11.16 11.16 11.16 11.16 11.16 11.16 11.16 11.16 11.16 11.16 11.16 11.16 11.16 11.16 11.16 11.16 11.16"
     clip-path="url(#p569f174dd0)"
     style="fill:none;stroke:#f6bda2;stroke-width:1.5;stroke-linecap:round"
     id="path178013"
     transform="translate(-47.392812,-36.721875)" />
  <path
     d="m 90,66.665455 h 11.16 11.16 11.16 l 11.16,62.770145 11.16,230.00031 h 11.16 11.16 11.16 11.16 11.16 11.16 11.16 11.16 11.16 l 11.16,2.29623 h 11.16 11.16 11.16 11.16 11.16 11.16 11.16 11.16 11.16 11.16 11.16 11.16 11.16 11.16 11.16 11.16 11.16 11.16 11.16 11.16 11.16 11.16 11.16 11.16"
     clip-path="url(#p569f174dd0)"
     style="fill:none;stroke:#f7ad90;stroke-width:1.5;stroke-linecap:round"
     id="path178016"
     transform="translate(-47.392812,-36.721875)" />
  <path
     d="m 90,66.665455 h 11.16 11.16 11.16 l 11.16,62.770145 11.16,8.88355 h 11.16 11.16 11.16 11.16 11.16 l 11.16,218.56918 11.16,2.54758 h 11.16 11.16 11.16 11.16 11.16 11.16 11.16 11.16 11.16 l 11.16,1.84721 h 11.16 11.16 11.16 l 11.16,0.44902 h 11.16 11.16 11.16 11.16 11.16 11.16 11.16 11.16 11.16 11.16 11.16 11.16 11.16"
     clip-path="url(#p569f174dd0)"
     style="fill:none;stroke:#f59d7e;stroke-width:1.5;stroke-linecap:round"
     id="path178019"
     transform="translate(-47.392812,-36.721875)" />
  <path
     d="m 90,66.665455 h 11.16 11.16 l 11.16,290.226415 h 11.16 l 11.16,3.10557 h 11.16 l 11.16,0.004 h 11.16 11.16 11.16 11.16 11.16 11.16 11.16 11.16 11.16 11.16 l 11.16,1.73083 h 11.16 11.16 11.16 11.16 11.16 11.16 11.16 11.16 11.16 11.16 11.16 11.16 11.16 11.16 11.16 11.16 11.16 11.16 11.16 11.16 11.16"
     clip-path="url(#p569f174dd0)"
     style="fill:none;stroke:#f08b6e;stroke-width:1.5;stroke-linecap:round"
     id="path178022"
     transform="translate(-47.392812,-36.721875)" />
  <path
     d="m 90,66.665455 h 11.16 l 11.16,35.577315 h 11.16 11.16 l 11.16,36.07638 11.16,4.42646 h 11.16 11.16 l 11.16,217.2557 h 11.16 11.16 11.16 11.16 11.16 l 11.16,1.73083 h 11.16 11.16 11.16 11.16 11.16 11.16 11.16 11.16 11.16 11.16 11.16 11.16 11.16 11.16 11.16 11.16 11.16 11.16 11.16 11.16 11.16 11.16 11.16 11.16"
     clip-path="url(#p569f174dd0)"
     style="fill:none;stroke:#e9785d;stroke-width:1.5;stroke-linecap:round"
     id="path178025"
     transform="translate(-47.392812,-36.721875)" />
  <path
     d="m 90,66.665455 h 11.16 11.16 11.16 l 11.16,62.770145 11.16,7.16682 11.16,1.71673 h 11.16 l 11.16,218.56918 h 11.16 l 11.16,0.004 h 11.16 11.16 11.16 11.16 11.16 11.16 11.16 l 11.16,2.54404 11.16,2.29623 h 11.16 11.16 11.16 11.16 11.16 11.16 11.16 11.16 11.16 11.16 11.16 11.16 11.16 11.16 11.16 11.16 11.16 11.16 11.16 11.16"
     clip-path="url(#p569f174dd0)"
     style="fill:none;stroke:#df634e;stroke-width:1.5;stroke-linecap:round"
     id="path178028"
     transform="translate(-47.392812,-36.721875)" />
  <path
     d="m 90,66.665455 h 11.16 11.16 11.16 l 11.16,69.936965 11.16,225.12972 h 11.16 11.16 11.16 11.16 11.16 11.16 11.16 11.16 11.16 11.16 11.16 11.16 11.16 11.16 11.16 11.16 11.16 11.16 11.16 11.16 11.16 11.16 11.16 11.16 11.16 11.16 11.16 11.16 11.16 11.16 11.16 11.16 11.16 11.16"
     clip-path="url(#p569f174dd0)"
     style="fill:none;stroke:#d24b40;stroke-width:1.5;stroke-linecap:round"
     id="path178031"
     transform="translate(-47.392812,-36.721875)" />
  <path
     d="m 90,66.665455 h 11.16 11.16 11.16 11.16 11.16 l 11.16,52.645285 11.16,10.12486 11.16,8.88355 h 11.16 l 11.16,218.57272 h 11.16 11.16 11.16 11.16 11.16 11.16 11.16 11.16 l 11.16,4.84027 h 11.16 11.16 11.16 11.16 11.16 11.16 11.16 11.16 11.16 11.16 11.16 11.16 11.16 11.16 11.16 11.16 11.16 11.16 11.16 11.16"
     clip-path="url(#p569f174dd0)"
     style="fill:none;stroke:#c43032;stroke-width:1.5;stroke-linecap:round"
     id="path178034"
     transform="translate(-47.392812,-36.721875)" />
  <path
     d="M 42.607188,341.27811 V 15.118125"
     style="fill:#ffffff;fill-opacity:1;stroke:#ffffff;stroke-width:1.25;stroke-linecap:square;stroke-linejoin:miter"
     id="path178037" />
  <path
     d="M 489.00719,341.27811 V 15.118125"
     style="fill:none;stroke:#ffffff;stroke-width:1.25;stroke-linecap:square;stroke-linejoin:miter"
     id="path178040" />
  <path
     d="M 42.607188,341.27811 H 489.00719"
     style="fill:#ffffff;fill-opacity:1;stroke:#ffffff;stroke-width:1.25;stroke-linecap:square;stroke-linejoin:miter"
     id="path178043" />
  <path
     d="M 42.607188,15.118125 H 489.00719"
     style="fill:none;stroke:#ffffff;stroke-width:1.25;stroke-linecap:square;stroke-linejoin:miter"
     id="path178046" />
  <use
     xlink:href="#DejaVuSans-65"
     id="use178056"
     x="0"
     y="0"
     width="100%"
     height="100%"
     transform="matrix(0.12,0,0,-0.12,187.08813,9.118125)"
     style="fill:#ffffff;fill-opacity:1" />
  <use
     xlink:href="#DejaVuSans-78"
     x="59.773438"
     id="use178058"
     y="0"
     width="100%"
     height="100%"
     transform="matrix(0.12,0,0,-0.12,187.08813,9.118125)"
     style="fill:#ffffff;fill-opacity:1" />
  <use
     xlink:href="#DejaVuSans-70"
     x="118.95312"
     id="use178060"
     y="0"
     width="100%"
     height="100%"
     transform="matrix(0.12,0,0,-0.12,187.08813,9.118125)"
     style="fill:#ffffff;fill-opacity:1" />
  <use
     xlink:href="#DejaVuSans-65"
     x="182.42969"
     id="use178062"
     y="0"
     width="100%"
     height="100%"
     transform="matrix(0.12,0,0,-0.12,187.08813,9.118125)"
     style="fill:#ffffff;fill-opacity:1" />
  <use
     xlink:href="#DejaVuSans-72"
     x="243.95312"
     id="use178064"
     y="0"
     width="100%"
     height="100%"
     transform="matrix(0.12,0,0,-0.12,187.08813,9.118125)"
     style="fill:#ffffff;fill-opacity:1" />
  <use
     xlink:href="#DejaVuSans-69"
     x="285.06641"
     id="use178066"
     y="0"
     width="100%"
     height="100%"
     transform="matrix(0.12,0,0,-0.12,187.08813,9.118125)"
     style="fill:#ffffff;fill-opacity:1" />
  <use
     xlink:href="#DejaVuSans-6d"
     x="312.84961"
     id="use178068"
     y="0"
     width="100%"
     height="100%"
     transform="matrix(0.12,0,0,-0.12,187.08813,9.118125)"
     style="fill:#ffffff;fill-opacity:1" />
  <use
     xlink:href="#DejaVuSans-65"
     x="410.26172"
     id="use178070"
     y="0"
     width="100%"
     height="100%"
     transform="matrix(0.12,0,0,-0.12,187.08813,9.118125)"
     style="fill:#ffffff;fill-opacity:1" />
  <use
     xlink:href="#DejaVuSans-6e"
     x="471.78516"
     id="use178072"
     y="0"
     width="100%"
     height="100%"
     transform="matrix(0.12,0,0,-0.12,187.08813,9.118125)"
     style="fill:#ffffff;fill-opacity:1" />
  <use
     xlink:href="#DejaVuSans-74"
     x="535.16406"
     id="use178074"
     y="0"
     width="100%"
     height="100%"
     transform="matrix(0.12,0,0,-0.12,187.08813,9.118125)"
     style="fill:#ffffff;fill-opacity:1" />
  <use
     xlink:href="#DejaVuSans-3d"
     x="574.37305"
     id="use178076"
     y="0"
     width="100%"
     height="100%"
     transform="matrix(0.12,0,0,-0.12,187.08813,9.118125)"
     style="fill:#ffffff;fill-opacity:1" />
  <use
     xlink:href="#DejaVuSans-27"
     x="658.16211"
     id="use178078"
     y="0"
     width="100%"
     height="100%"
     transform="matrix(0.12,0,0,-0.12,187.08813,9.118125)"
     style="fill:#ffffff;fill-opacity:1" />
  <use
     xlink:href="#DejaVuSans-49"
     x="685.65234"
     id="use178080"
     y="0"
     width="100%"
     height="100%"
     transform="matrix(0.12,0,0,-0.12,187.08813,9.118125)"
     style="fill:#ffffff;fill-opacity:1" />
  <use
     xlink:href="#DejaVuSans-6e"
     x="715.14453"
     id="use178082"
     y="0"
     width="100%"
     height="100%"
     transform="matrix(0.12,0,0,-0.12,187.08813,9.118125)"
     style="fill:#ffffff;fill-opacity:1" />
  <use
     xlink:href="#DejaVuSans-63"
     x="778.52344"
     id="use178084"
     y="0"
     width="100%"
     height="100%"
     transform="matrix(0.12,0,0,-0.12,187.08813,9.118125)"
     style="fill:#ffffff;fill-opacity:1" />
  <use
     xlink:href="#DejaVuSans-72"
     x="833.50391"
     id="use178086"
     y="0"
     width="100%"
     height="100%"
     transform="matrix(0.12,0,0,-0.12,187.08813,9.118125)"
     style="fill:#ffffff;fill-opacity:1" />
  <use
     xlink:href="#DejaVuSans-65"
     x="872.36719"
     id="use178088"
     y="0"
     width="100%"
     height="100%"
     transform="matrix(0.12,0,0,-0.12,187.08813,9.118125)"
     style="fill:#ffffff;fill-opacity:1" />
  <use
     xlink:href="#DejaVuSans-6d"
     x="933.89062"
     id="use178090"
     y="0"
     width="100%"
     height="100%"
     transform="matrix(0.12,0,0,-0.12,187.08813,9.118125)"
     style="fill:#ffffff;fill-opacity:1" />
  <use
     xlink:href="#DejaVuSans-65"
     x="1031.3027"
     id="use178092"
     y="0"
     width="100%"
     height="100%"
     transform="matrix(0.12,0,0,-0.12,187.08813,9.118125)"
     style="fill:#ffffff;fill-opacity:1" />
  <use
     xlink:href="#DejaVuSans-6e"
     x="1092.8262"
     id="use178094"
     y="0"
     width="100%"
     height="100%"
     transform="matrix(0.12,0,0,-0.12,187.08813,9.118125)"
     style="fill:#ffffff;fill-opacity:1" />
  <use
     xlink:href="#DejaVuSans-74"
     x="1156.2051"
     id="use178096"
     y="0"
     width="100%"
     height="100%"
     transform="matrix(0.12,0,0,-0.12,187.08813,9.118125)"
     style="fill:#ffffff;fill-opacity:1" />
  <use
     xlink:href="#DejaVuSans-61"
     x="1195.4141"
     id="use178098"
     y="0"
     width="100%"
     height="100%"
     transform="matrix(0.12,0,0,-0.12,187.08813,9.118125)"
     style="fill:#ffffff;fill-opacity:1" />
  <use
     xlink:href="#DejaVuSans-6c"
     x="1256.6934"
     id="use178100"
     y="0"
     width="100%"
     height="100%"
     transform="matrix(0.12,0,0,-0.12,187.08813,9.118125)"
     style="fill:#ffffff;fill-opacity:1" />
  <use
     xlink:href="#DejaVuSans-27"
     x="1284.4766"
     id="use178102"
     y="0"
     width="100%"
     height="100%"
     transform="matrix(0.12,0,0,-0.12,187.08813,9.118125)"
     style="fill:#ffffff;fill-opacity:1" />
  <path
     d="m 385.56938,40.064062 h 95.73781 q 2.2,0 2.2,-2.199999 V 22.818125 q 0,-2.2 -2.2,-2.2 h -95.73781 q -2.2,0 -2.2,2.2 v 15.045938 q 0,2.199999 2.2,2.199999 z"
     style="opacity:0.8;fill:#000000;fill-opacity:1;stroke:#cccccc;stroke-linejoin:miter"
     id="path178107" />
  <path
     d="m 387.76938,29.526406 h 11 11"
     style="fill:none;stroke:#ffffff;stroke-width:1.5;stroke-dasharray:5.55, 2.4;stroke-dashoffset:0;stroke-opacity:1"
     id="path178110" />
  <use
     xlink:href="#DejaVuSans-65"
     id="use178113"
     x="0"
     y="0"
     width="100%"
     height="100%"
     transform="matrix(0.11,0,0,-0.11,418.56938,33.376406)"
     style="fill:#fcfcfc;fill-opacity:1" />
  <use
     xlink:href="#DejaVuSans-6e"
     x="61.523438"
     id="use178115"
     y="0"
     width="100%"
     height="100%"
     transform="matrix(0.11,0,0,-0.11,418.56938,33.376406)"
     style="fill:#fcfcfc;fill-opacity:1" />
  <use
     xlink:href="#DejaVuSans-75"
     x="124.90234"
     id="use178117"
     y="0"
     width="100%"
     height="100%"
     transform="matrix(0.11,0,0,-0.11,418.56938,33.376406)"
     style="fill:#fcfcfc;fill-opacity:1" />
  <use
     xlink:href="#DejaVuSans-6d"
     x="188.28125"
     id="use178119"
     y="0"
     width="100%"
     height="100%"
     transform="matrix(0.11,0,0,-0.11,418.56938,33.376406)"
     style="fill:#fcfcfc;fill-opacity:1" />
  <use
     xlink:href="#DejaVuSans-65"
     x="285.69336"
     id="use178121"
     y="0"
     width="100%"
     height="100%"
     transform="matrix(0.11,0,0,-0.11,418.56938,33.376406)"
     style="fill:#fcfcfc;fill-opacity:1" />
  <use
     xlink:href="#DejaVuSans-72"
     x="347.2168"
     id="use178123"
     y="0"
     width="100%"
     height="100%"
     transform="matrix(0.11,0,0,-0.11,418.56938,33.376406)"
     style="fill:#fcfcfc;fill-opacity:1" />
  <use
     xlink:href="#DejaVuSans-61"
     x="388.33008"
     id="use178125"
     y="0"
     width="100%"
     height="100%"
     transform="matrix(0.11,0,0,-0.11,418.56938,33.376406)"
     style="fill:#fcfcfc;fill-opacity:1" />
  <use
     xlink:href="#DejaVuSans-74"
     x="449.60938"
     id="use178127"
     y="0"
     width="100%"
     height="100%"
     transform="matrix(0.11,0,0,-0.11,418.56938,33.376406)"
     style="fill:#fcfcfc;fill-opacity:1" />
  <use
     xlink:href="#DejaVuSans-65"
     x="488.81836"
     id="use178129"
     y="0"
     width="100%"
     height="100%"
     transform="matrix(0.11,0,0,-0.11,418.56938,33.376406)"
     style="fill:#fcfcfc;fill-opacity:1" />
  <path
     clip-path="url(#p6416bc4a14)"
     style="fill:#eaeaf2;stroke:#eaeaf2;stroke-width:0.01;stroke-linejoin:miter"
     id="path178139"
     d=""
     transform="translate(-47.392812,-36.721875)" />
  <defs
     id="defs178327">
    <clipPath
       id="p569f174dd0">
      <rect
         x="90"
         y="51.84"
         width="446.39999"
         height="326.16"
         id="rect178321" />
    </clipPath>
    <clipPath
       id="p6416bc4a14">
      <rect
         x="564.29999"
         y="67.371429"
         width="16.308001"
         height="310.62857"
         id="rect178324" />
    </clipPath>
  </defs>
</svg>
