<?xml version="1.0" encoding="UTF-8" standalone="no"?>
<svg
   width="1094.1857pt"
   height="360pt"
   viewBox="0 0 1094.1857 360"
   version="1.1"
   id="svg8537"
   sodipodi:docname="teaching_scores2.svg"
   inkscape:version="1.1.2 (0a00cf5339, 2022-02-04, custom)"
   xmlns:inkscape="http://www.inkscape.org/namespaces/inkscape"
   xmlns:sodipodi="http://sodipodi.sourceforge.net/DTD/sodipodi-0.dtd"
   xmlns:xlink="http://www.w3.org/1999/xlink"
   xmlns="http://www.w3.org/2000/svg"
   xmlns:svg="http://www.w3.org/2000/svg"
   xmlns:rdf="http://www.w3.org/1999/02/22-rdf-syntax-ns#"
   xmlns:cc="http://creativecommons.org/ns#"
   xmlns:dc="http://purl.org/dc/elements/1.1/">
  <sodipodi:namedview
     id="namedview8539"
     pagecolor="#505050"
     bordercolor="#ffffff"
     borderopacity="1"
     inkscape:pageshadow="0"
     inkscape:pageopacity="0"
     inkscape:pagecheckerboard="1"
     inkscape:document-units="pt"
     showgrid="false"
     inkscape:zoom="0.77825842"
     inkscape:cx="255.69913"
     inkscape:cy="-319.30268"
     inkscape:current-layer="svg8537" />
  <metadata
     id="metadata8057">
    <rdf:RDF>
      <cc:Work>
        <dc:type
           rdf:resource="http://purl.org/dc/dcmitype/StillImage" />
        <dc:date>2022-05-08T12:24:59.611319</dc:date>
        <dc:format>image/svg+xml</dc:format>
        <dc:creator>
          <cc:Agent>
            <dc:title>Matplotlib v3.5.1, https://matplotlib.org/</dc:title>
          </cc:Agent>
        </dc:creator>
      </cc:Work>
    </rdf:RDF>
  </metadata>
  <defs
     id="defs8061">
    <style
       type="text/css"
       id="style8059">*{stroke-linejoin: round; stroke-linecap: butt}</style>
    <defs
       id="defs8258">
      <path
         id="DejaVuSans-70"
         d="M 1159,525 V -1331 H 581 v 4831 h 578 v -531 q 182,312 458,463 277,152 661,152 638,0 1036,-506 399,-506 399,-1331 0,-825 -399,-1332 -398,-506 -1036,-506 -384,0 -661,152 -276,152 -458,464 z m 1957,1222 q 0,634 -261,995 -261,361 -717,361 -457,0 -718,-361 -261,-361 -261,-995 0,-634 261,-995 261,-361 718,-361 456,0 717,361 261,361 261,995 z"
         transform="scale(0.015625)" />
      <path
         id="DejaVuSans-3d"
         d="M 678,2906 H 4684 V 2381 H 678 Z m 0,-1275 H 4684 V 1100 H 678 Z"
         transform="scale(0.015625)" />
      <path
         id="DejaVuSans-2c"
         d="m 750,794 h 659 V 256 L 897,-744 H 494 L 750,256 Z"
         transform="scale(0.015625)" />
      <path
         id="DejaVuSans-33"
         d="m 2597,2516 q 453,-97 707,-404 255,-306 255,-756 0,-690 -475,-1069 -475,-378 -1350,-378 -293,0 -604,58 -311,58 -642,174 v 609 q 262,-153 574,-231 313,-78 654,-78 593,0 904,234 311,234 311,681 0,413 -289,645 -289,233 -804,233 h -544 v 519 h 569 q 465,0 712,186 247,186 247,536 0,359 -255,551 -254,193 -729,193 -260,0 -557,-57 -297,-56 -653,-174 v 562 q 360,100 674,150 314,50 592,50 719,0 1137,-327 419,-326 419,-882 0,-388 -222,-655 -222,-267 -631,-370 z"
         transform="scale(0.015625)" />
    </defs>
    <defs
       id="defs8497">
      <path
         id="DejaVuSans-34"
         d="M 2419,4116 825,1625 h 1594 z m -166,550 h 794 V 1625 h 666 V 1100 H 3047 V 0 H 2419 V 1100 H 313 v 609 z"
         transform="scale(0.015625)" />
    </defs>
    <defs
       id="defs8076">
      <path
         id="md40130f608"
         d="M 0,0 V 12"
         style="stroke:#000000;stroke-width:2.5" />
    </defs>
    <defs
       id="defs8132">
      <path
         id="DejaVuSans-68"
         d="M 3513,2113 V 0 h -575 v 2094 q 0,497 -194,743 -194,247 -581,247 -466,0 -735,-297 -269,-296 -269,-809 V 0 H 581 v 4863 h 578 V 2956 q 207,316 486,472 280,156 646,156 603,0 912,-373 310,-373 310,-1098 z"
         transform="scale(0.015625)" />
      <path
         id="DejaVuSans-6f"
         d="m 1959,3097 q -462,0 -731,-361 -269,-361 -269,-989 0,-628 267,-989 268,-361 733,-361 460,0 728,362 269,363 269,988 0,622 -269,986 -268,364 -728,364 z m 0,487 q 750,0 1178,-488 429,-487 429,-1349 Q 3566,888 3137,398 2709,-91 1959,-91 1206,-91 779,398 353,888 353,1747 q 0,862 426,1349 427,488 1180,488 z"
         transform="scale(0.015625)" />
      <path
         id="DejaVuSans-77"
         d="m 269,3500 h 575 l 719,-2731 715,2731 h 678 l 719,-2731 716,2731 h 575 L 4050,0 H 3372 L 2619,2869 1863,0 h -679 z"
         transform="scale(0.015625)" />
      <path
         id="DejaVuSans-69"
         d="m 603,3500 h 575 V 0 H 603 Z m 0,1363 h 575 V 4134 H 603 Z"
         transform="scale(0.015625)" />
      <path
         id="DejaVuSans-6e"
         d="M 3513,2113 V 0 h -575 v 2094 q 0,497 -194,743 -194,247 -581,247 -466,0 -735,-297 -269,-296 -269,-809 V 0 H 581 v 3500 h 578 v -544 q 207,316 486,472 280,156 646,156 603,0 912,-373 310,-373 310,-1098 z"
         transform="scale(0.015625)" />
      <path
         id="DejaVuSans-67"
         d="m 2906,1791 q 0,625 -258,968 -257,344 -723,344 -462,0 -720,-344 -258,-343 -258,-968 0,-622 258,-966 258,-344 720,-344 466,0 723,344 258,344 258,966 z M 3481,434 q 0,-893 -397,-1329 -396,-436 -1215,-436 -303,0 -572,45 -269,45 -522,139 v 559 q 253,-137 500,-202 247,-66 503,-66 566,0 847,295 281,295 281,892 V 616 Q 2728,306 2450,153 2172,0 1784,0 1141,0 747,490 353,981 353,1791 q 0,812 394,1302 394,491 1037,491 388,0 666,-153 278,-153 456,-462 v 531 h 575 z"
         transform="scale(0.015625)" />
    </defs>
    <defs
       id="defs8153">
      <path
         id="m5552ad1645"
         d="M 0,0 H -12"
         style="stroke:#000000;stroke-width:2.5" />
    </defs>
    <defs
       id="defs8214">
      <path
         id="DejaVuSans-63"
         d="m 3122,3366 v -538 q -244,135 -489,202 -245,67 -495,67 -560,0 -870,-355 -309,-354 -309,-995 0,-641 309,-996 310,-354 870,-354 250,0 495,67 245,67 489,202 V 134 Q 2881,22 2623,-34 2366,-91 2075,-91 1284,-91 818,406 353,903 353,1747 q 0,856 470,1346 471,491 1290,491 265,0 518,-55 253,-54 491,-163 z"
         transform="scale(0.015625)" />
      <path
         id="DejaVuSans-20"
         transform="scale(0.015625)"
         d="" />
      <path
         id="DejaVuSans-2d"
         d="M 313,2009 H 1997 V 1497 H 313 Z"
         transform="scale(0.015625)" />
      <path
         id="DejaVuSans-35"
         d="M 691,4666 H 3169 V 4134 H 1269 V 2991 q 137,47 274,70 138,23 276,23 781,0 1237,-428 457,-428 457,-1159 Q 3513,744 3044,326 2575,-91 1722,-91 1428,-91 1123,-41 819,9 494,109 v 635 q 281,-153 581,-228 300,-75 634,-75 541,0 856,284 316,284 316,772 0,487 -316,771 -315,285 -856,285 -253,0 -505,-56 -251,-56 -513,-175 z"
         transform="scale(0.015625)" />
    </defs>
    <defs
       id="defs8112">
      <path
         id="DejaVuSans-54"
         d="M -19,4666 H 3928 V 4134 H 2272 V 0 H 1638 V 4134 H -19 Z"
         transform="scale(0.015625)" />
      <path
         id="DejaVuSans-72"
         d="m 2631,2963 q -97,56 -211,82 -114,27 -251,27 -488,0 -749,-317 -261,-317 -261,-911 V 0 H 581 v 3500 h 578 v -544 q 182,319 472,473 291,155 707,155 59,0 131,-8 72,-7 159,-23 z"
         transform="scale(0.015625)" />
      <path
         id="DejaVuSans-75"
         d="m 544,1381 v 2119 h 575 V 1403 q 0,-497 193,-746 194,-248 582,-248 465,0 735,297 271,297 271,810 v 1984 h 575 V 0 H 2900 V 538 Q 2691,219 2414,64 2138,-91 1772,-91 1169,-91 856,284 544,659 544,1381 Z m 1447,2203 z"
         transform="scale(0.015625)" />
    </defs>
    <defs
       id="defs8180">
      <path
         id="DejaVuSans-31"
         d="M 794,531 H 1825 V 4091 L 703,3866 v 575 l 1116,225 h 631 V 531 H 3481 V 0 H 794 Z"
         transform="scale(0.015625)" />
    </defs>
    <defs
       id="defs8198">
      <path
         id="DejaVuSans-32"
         d="M 1228,531 H 3431 V 0 H 469 v 531 q 359,372 979,998 621,627 780,809 303,340 423,576 121,236 121,464 0,372 -261,606 -261,235 -680,235 -297,0 -627,-103 -329,-103 -704,-313 v 638 q 381,153 712,231 332,78 607,78 725,0 1156,-363 431,-362 431,-968 0,-288 -108,-546 -107,-257 -392,-607 -78,-91 -497,-524 Q 1991,1309 1228,531 Z"
         transform="scale(0.015625)" />
    </defs>
    <defs
       id="defs8162">
      <path
         id="DejaVuSans-30"
         d="m 2034,4250 q -487,0 -733,-480 -245,-479 -245,-1442 0,-959 245,-1439 246,-480 733,-480 491,0 736,480 246,480 246,1439 0,963 -246,1442 -245,480 -736,480 z m 0,500 q 785,0 1199,-621 414,-620 414,-1801 0,-1178 -414,-1799 -414,-620 -1199,-620 -784,0 -1198,620 -414,621 -414,1799 0,1181 414,1801 414,621 1198,621 z"
         transform="scale(0.015625)" />
      <path
         id="DejaVuSans-2e"
         d="m 684,794 h 660 V 0 H 684 Z"
         transform="scale(0.015625)" />
    </defs>
    <defs
       id="defs8088">
      <path
         id="DejaVuSans-46"
         d="M 628,4666 H 3309 V 4134 H 1259 V 2759 H 3109 V 2228 H 1259 V 0 H 628 Z"
         transform="scale(0.015625)" />
      <path
         id="DejaVuSans-61"
         d="m 2194,1759 q -697,0 -966,-159 -269,-159 -269,-544 0,-306 202,-486 202,-179 548,-179 479,0 768,339 289,339 289,901 v 128 z m 1147,238 V 0 H 2766 V 531 Q 2569,213 2275,61 1981,-91 1556,-91 q -537,0 -855,302 -317,302 -317,808 0,590 395,890 396,300 1180,300 h 807 v 57 q 0,397 -261,614 -261,217 -733,217 -300,0 -585,-72 -284,-72 -546,-216 v 532 q 315,122 612,182 297,61 578,61 760,0 1135,-394 375,-393 375,-1193 z"
         transform="scale(0.015625)" />
      <path
         id="DejaVuSans-6c"
         d="m 603,4863 h 575 V 0 H 603 Z"
         transform="scale(0.015625)" />
      <path
         id="DejaVuSans-73"
         d="m 2834,3397 v -544 q -243,125 -506,187 -262,63 -544,63 -428,0 -642,-131 -214,-131 -214,-394 0,-200 153,-314 153,-114 616,-217 l 197,-44 q 612,-131 870,-370 258,-239 258,-667 0,-488 -386,-773 Q 2250,-91 1575,-91 1294,-91 989,-36 684,19 347,128 v 594 q 319,-166 628,-249 309,-82 613,-82 406,0 624,139 219,139 219,392 0,234 -158,359 -157,125 -692,241 l -200,47 q -534,112 -772,345 -237,233 -237,639 0,494 350,762 350,269 994,269 318,0 599,-47 282,-46 519,-140 z"
         transform="scale(0.015625)" />
      <path
         id="DejaVuSans-65"
         d="M 3597,1894 V 1613 H 953 q 38,-594 358,-905 320,-311 892,-311 331,0 642,81 311,81 618,244 V 178 Q 3153,47 2828,-22 2503,-91 2169,-91 1331,-91 842,396 353,884 353,1716 q 0,859 464,1363 464,505 1252,505 706,0 1117,-455 411,-454 411,-1235 z m -575,169 q -6,471 -264,752 -258,282 -683,282 -481,0 -770,-272 -289,-272 -333,-766 z"
         transform="scale(0.015625)" />
    </defs>
    <clipPath
       id="p7b385eea65-6">
      <rect
         x="443.19666"
         y="50.919998"
         width="286.48166"
         height="219.66"
         id="rect8529-2" />
    </clipPath>
    <clipPath
       id="clipPath15231">
      <rect
         x="443.19666"
         y="50.919998"
         width="286.48166"
         height="219.66"
         id="rect15229" />
    </clipPath>
    <clipPath
       id="clipPath15235">
      <rect
         x="443.19666"
         y="50.919998"
         width="286.48166"
         height="219.66"
         id="rect15233" />
    </clipPath>
    <clipPath
       id="clipPath15239">
      <rect
         x="443.19666"
         y="50.919998"
         width="286.48166"
         height="219.66"
         id="rect15237" />
    </clipPath>
  </defs>
  <path
     d="M 14.185701,360 H 1094.1857 V 0 H 14.185701 Z"
     style="fill:none"
     id="path8063" />
  <use
     xlink:href="#DejaVuSans-20"
     x="268.64844"
     id="use8226"
     y="0"
     width="100%"
     height="100%"
     transform="matrix(0,-0.24,-0.24,0,73.502576,224.02937)" />
  <use
     xlink:href="#DejaVuSans-20"
     x="336.51953"
     id="use8230"
     y="0"
     width="100%"
     height="100%"
     transform="matrix(0,-0.24,-0.24,0,73.502576,224.02937)" />
  <use
     xlink:href="#DejaVuSans-20"
     x="290.37695"
     id="use8270"
     y="0"
     width="100%"
     height="100%"
     transform="matrix(0.24,0,0,-0.24,204.60778,44.92)" />
  <use
     xlink:href="#DejaVuSans-20"
     x="405.95312"
     id="use8274"
     y="0"
     width="100%"
     height="100%"
     transform="matrix(0.24,0,0,-0.24,204.60778,44.92)" />
  <g
     id="g16236"
     transform="translate(14.185701)">
    <path
       d="M 412.795,270.58 H 699.27667 V 50.92 H 412.795 Z"
       style="fill:none"
       id="path8066" />
    <path
       d="M 133.11908,270.58 H 247.71175 V 83.151946 H 133.11908 Z"
       clip-path="url(#p4f1833ab72)"
       style="fill:#176d9c"
       id="path8069"
       transform="translate(294)" />
    <path
       d="M 276.35992,270.58 H 390.95258 V 112.7071 H 276.35992 Z"
       clip-path="url(#p4f1833ab72)"
       style="fill:#c38820"
       id="path8072"
       transform="translate(294)" />
    <use
       xlink:href="#md40130f608"
       x="190.41542"
       y="270.57999"
       style="fill:#ffffff;fill-opacity:1;stroke:#bfbfbf;stroke-width:2.5;stroke-opacity:1"
       id="use8078"
       width="100%"
       height="100%"
       transform="translate(294)" />
    <use
       xlink:href="#DejaVuSans-46"
       id="use8090"
       x="0"
       y="0"
       width="100%"
       height="100%"
       transform="matrix(0.22,0,0,-0.22,456.79682,302.79656)"
       style="fill:#ffffff;fill-opacity:1" />
    <use
       xlink:href="#DejaVuSans-61"
       x="48.394531"
       id="use8092"
       y="0"
       width="100%"
       height="100%"
       transform="matrix(0.22,0,0,-0.22,456.79682,302.79656)"
       style="fill:#ffffff;fill-opacity:1" />
    <use
       xlink:href="#DejaVuSans-6c"
       x="109.67383"
       id="use8094"
       y="0"
       width="100%"
       height="100%"
       transform="matrix(0.22,0,0,-0.22,456.79682,302.79656)"
       style="fill:#ffffff;fill-opacity:1" />
    <use
       xlink:href="#DejaVuSans-73"
       x="137.45703"
       id="use8096"
       y="0"
       width="100%"
       height="100%"
       transform="matrix(0.22,0,0,-0.22,456.79682,302.79656)"
       style="fill:#ffffff;fill-opacity:1" />
    <use
       xlink:href="#DejaVuSans-65"
       x="189.55664"
       id="use8098"
       y="0"
       width="100%"
       height="100%"
       transform="matrix(0.22,0,0,-0.22,456.79682,302.79656)"
       style="fill:#ffffff;fill-opacity:1" />
    <use
       xlink:href="#md40130f608"
       x="333.65625"
       y="270.57999"
       style="fill:#ffffff;fill-opacity:1;stroke:#bfbfbf;stroke-width:2.5;stroke-opacity:1"
       id="use8104"
       width="100%"
       height="100%"
       transform="translate(294)" />
    <use
       xlink:href="#DejaVuSans-54"
       id="use8114"
       x="0"
       y="0"
       width="100%"
       height="100%"
       transform="matrix(0.22,0,0,-0.22,604.29844,302.79656)"
       style="fill:#ffffff;fill-opacity:1" />
    <use
       xlink:href="#DejaVuSans-72"
       x="46.333984"
       id="use8116"
       y="0"
       width="100%"
       height="100%"
       transform="matrix(0.22,0,0,-0.22,604.29844,302.79656)"
       style="fill:#ffffff;fill-opacity:1" />
    <use
       xlink:href="#DejaVuSans-75"
       x="87.447266"
       id="use8118"
       y="0"
       width="100%"
       height="100%"
       transform="matrix(0.22,0,0,-0.22,604.29844,302.79656)"
       style="fill:#ffffff;fill-opacity:1" />
    <use
       xlink:href="#DejaVuSans-65"
       x="150.82617"
       id="use8120"
       y="0"
       width="100%"
       height="100%"
       transform="matrix(0.22,0,0,-0.22,604.29844,302.79656)"
       style="fill:#ffffff;fill-opacity:1" />
    <use
       xlink:href="#DejaVuSans-73"
       id="use8134"
       x="0"
       y="0"
       width="100%"
       height="100%"
       transform="matrix(0.24,0,0,-0.24,506.46646,329.60812)"
       style="fill:#ffffff;fill-opacity:1" />
    <use
       xlink:href="#DejaVuSans-68"
       x="52.099609"
       id="use8136"
       y="0"
       width="100%"
       height="100%"
       transform="matrix(0.24,0,0,-0.24,506.46646,329.60812)"
       style="fill:#ffffff;fill-opacity:1" />
    <use
       xlink:href="#DejaVuSans-6f"
       x="115.47852"
       id="use8138"
       y="0"
       width="100%"
       height="100%"
       transform="matrix(0.24,0,0,-0.24,506.46646,329.60812)"
       style="fill:#ffffff;fill-opacity:1" />
    <use
       xlink:href="#DejaVuSans-77"
       x="176.66016"
       id="use8140"
       y="0"
       width="100%"
       height="100%"
       transform="matrix(0.24,0,0,-0.24,506.46646,329.60812)"
       style="fill:#ffffff;fill-opacity:1" />
    <use
       xlink:href="#DejaVuSans-69"
       x="258.44727"
       id="use8142"
       y="0"
       width="100%"
       height="100%"
       transform="matrix(0.24,0,0,-0.24,506.46646,329.60812)"
       style="fill:#ffffff;fill-opacity:1" />
    <use
       xlink:href="#DejaVuSans-6e"
       x="286.23047"
       id="use8144"
       y="0"
       width="100%"
       height="100%"
       transform="matrix(0.24,0,0,-0.24,506.46646,329.60812)"
       style="fill:#ffffff;fill-opacity:1" />
    <use
       xlink:href="#DejaVuSans-67"
       x="349.60938"
       id="use8146"
       y="0"
       width="100%"
       height="100%"
       transform="matrix(0.24,0,0,-0.24,506.46646,329.60812)"
       style="fill:#ffffff;fill-opacity:1" />
    <use
       xlink:href="#m5552ad1645"
       x="118.795"
       y="270.57999"
       style="fill:#ffffff;fill-opacity:1;stroke:#bfbfbf;stroke-width:2.5;stroke-opacity:1"
       id="use8155"
       width="100%"
       height="100%"
       transform="translate(294)" />
    <use
       xlink:href="#m5552ad1645"
       x="118.795"
       y="195.7981"
       style="fill:#ffffff;fill-opacity:1;stroke:#bfbfbf;stroke-width:2.5;stroke-opacity:1"
       id="use8174"
       width="100%"
       height="100%"
       transform="translate(294)" />
    <use
       xlink:href="#m5552ad1645"
       x="118.795"
       y="121.0162"
       style="fill:#ffffff;fill-opacity:1;stroke:#bfbfbf;stroke-width:2.5;stroke-opacity:1"
       id="use8192"
       width="100%"
       height="100%"
       transform="translate(294)" />
    <path
       d="M 190.41542,104.92389 V 61.38"
       clip-path="url(#p4f1833ab72)"
       style="fill:none;stroke:#bfbfbf;stroke-width:5.4;stroke-linecap:square;stroke-opacity:1"
       id="path8242"
       transform="translate(294)" />
    <path
       d="M 333.65625,134.54445 V 90.895711"
       clip-path="url(#p4f1833ab72)"
       style="fill:none;stroke:#bfbfbf;stroke-width:5.4;stroke-linecap:square;stroke-opacity:1"
       id="path8245"
       transform="translate(294)" />
    <path
       d="M 412.795,270.58 V 50.92"
       style="fill:none;stroke:#bfbfbf;stroke-width:2.5;stroke-linecap:square;stroke-linejoin:miter;stroke-opacity:1"
       id="path8248" />
    <path
       d="M 412.795,270.58 H 699.27667"
       style="fill:none;stroke:#bfbfbf;stroke-width:2.5;stroke-linecap:square;stroke-linejoin:miter;stroke-opacity:1"
       id="path8251" />
    <use
       xlink:href="#DejaVuSans-67"
       id="use8260"
       x="0"
       y="0"
       width="100%"
       height="100%"
       transform="matrix(0.24,0,0,-0.24,484.42208,44.92)"
       style="fill:#ffffff;fill-opacity:1" />
    <use
       xlink:href="#DejaVuSans-72"
       x="63.476562"
       id="use8262"
       y="0"
       width="100%"
       height="100%"
       transform="matrix(0.24,0,0,-0.24,484.42208,44.92)"
       style="fill:#ffffff;fill-opacity:1" />
    <use
       xlink:href="#DejaVuSans-6f"
       x="102.33984"
       id="use8264"
       y="0"
       width="100%"
       height="100%"
       transform="matrix(0.24,0,0,-0.24,484.42208,44.92)"
       style="fill:#ffffff;fill-opacity:1" />
    <use
       xlink:href="#DejaVuSans-75"
       x="163.52148"
       id="use8266"
       y="0"
       width="100%"
       height="100%"
       transform="matrix(0.24,0,0,-0.24,484.42208,44.92)"
       style="fill:#ffffff;fill-opacity:1" />
    <use
       xlink:href="#DejaVuSans-70"
       x="226.90039"
       id="use8268"
       y="0"
       width="100%"
       height="100%"
       transform="matrix(0.24,0,0,-0.24,484.42208,44.92)"
       style="fill:#ffffff;fill-opacity:1" />
    <use
       xlink:href="#DejaVuSans-3d"
       x="322.16406"
       id="use8272"
       y="0"
       width="100%"
       height="100%"
       transform="matrix(0.24,0,0,-0.24,484.42208,44.92)"
       style="fill:#ffffff;fill-opacity:1" />
    <use
       xlink:href="#DejaVuSans-32"
       x="437.74023"
       id="use8276"
       y="0"
       width="100%"
       height="100%"
       transform="matrix(0.24,0,0,-0.24,484.42208,44.92)"
       style="fill:#ffffff;fill-opacity:1" />
    <use
       xlink:href="#DejaVuSans-2c"
       x="501.36328"
       id="use8278"
       y="0"
       width="100%"
       height="100%"
       transform="matrix(0.24,0,0,-0.24,484.42208,44.92)"
       style="fill:#ffffff;fill-opacity:1" />
    <use
       xlink:href="#DejaVuSans-33"
       x="533.15039"
       id="use8280"
       y="0"
       width="100%"
       height="100%"
       transform="matrix(0.24,0,0,-0.24,484.42208,44.92)"
       style="fill:#ffffff;fill-opacity:1" />
  </g>
  <use
     xlink:href="#DejaVuSans-20"
     x="290.37695"
     id="use8390"
     y="0"
     width="100%"
     height="100%"
     transform="matrix(0.24,0,0,-0.24,540.4582,44.92)" />
  <use
     xlink:href="#DejaVuSans-20"
     x="405.95312"
     id="use8394"
     y="0"
     width="100%"
     height="100%"
     transform="matrix(0.24,0,0,-0.24,540.4582,44.92)" />
  <path
     d="M 781.78403,270.58 H 1068.2657 V 50.92 H 781.78403 Z"
     style="fill:none"
     id="path8402" />
  <path
     d="M 781.92242,270.58 H 896.51508 V 198.62006 H 781.92242 Z"
     clip-path="url(#p3f70b32139)"
     style="opacity:1;fill:#176d9c"
     id="path8405"
     transform="translate(14.185701)" />
  <path
     d="M 925.16325,270.58 H 1039.7559 V 125.17075 H 925.16325 Z"
     clip-path="url(#p3f70b32139)"
     style="opacity:1;fill:#c38820"
     id="path8408"
     transform="translate(14.185701)" />
  <use
     xlink:href="#md40130f608"
     x="839.21875"
     y="270.57999"
     style="fill:#ffffff;fill-opacity:1;stroke:#bfbfbf;stroke-width:2.5;stroke-opacity:1"
     id="use8411"
     width="100%"
     height="100%"
     transform="translate(14.185701)" />
  <use
     xlink:href="#DejaVuSans-46"
     id="use8416"
     x="0"
     y="0"
     width="100%"
     height="100%"
     transform="matrix(0.22,0,0,-0.22,825.78586,302.79656)"
     style="fill:#ffffff;fill-opacity:1" />
  <use
     xlink:href="#DejaVuSans-61"
     x="48.394531"
     id="use8418"
     y="0"
     width="100%"
     height="100%"
     transform="matrix(0.22,0,0,-0.22,825.78586,302.79656)"
     style="fill:#ffffff;fill-opacity:1" />
  <use
     xlink:href="#DejaVuSans-6c"
     x="109.67383"
     id="use8420"
     y="0"
     width="100%"
     height="100%"
     transform="matrix(0.22,0,0,-0.22,825.78586,302.79656)"
     style="fill:#ffffff;fill-opacity:1" />
  <use
     xlink:href="#DejaVuSans-73"
     x="137.45703"
     id="use8422"
     y="0"
     width="100%"
     height="100%"
     transform="matrix(0.22,0,0,-0.22,825.78586,302.79656)"
     style="fill:#ffffff;fill-opacity:1" />
  <use
     xlink:href="#DejaVuSans-65"
     x="189.55664"
     id="use8424"
     y="0"
     width="100%"
     height="100%"
     transform="matrix(0.22,0,0,-0.22,825.78586,302.79656)"
     style="fill:#ffffff;fill-opacity:1" />
  <use
     xlink:href="#md40130f608"
     x="982.45959"
     y="270.57999"
     style="fill:#ffffff;fill-opacity:1;stroke:#bfbfbf;stroke-width:2.5;stroke-opacity:1"
     id="use8430"
     width="100%"
     height="100%"
     transform="translate(14.185701)" />
  <use
     xlink:href="#DejaVuSans-54"
     id="use8435"
     x="0"
     y="0"
     width="100%"
     height="100%"
     transform="matrix(0.22,0,0,-0.22,973.28747,302.79656)"
     style="fill:#ffffff;fill-opacity:1" />
  <use
     xlink:href="#DejaVuSans-72"
     x="46.333984"
     id="use8437"
     y="0"
     width="100%"
     height="100%"
     transform="matrix(0.22,0,0,-0.22,973.28747,302.79656)"
     style="fill:#ffffff;fill-opacity:1" />
  <use
     xlink:href="#DejaVuSans-75"
     x="87.447266"
     id="use8439"
     y="0"
     width="100%"
     height="100%"
     transform="matrix(0.22,0,0,-0.22,973.28747,302.79656)"
     style="fill:#ffffff;fill-opacity:1" />
  <use
     xlink:href="#DejaVuSans-65"
     x="150.82617"
     id="use8441"
     y="0"
     width="100%"
     height="100%"
     transform="matrix(0.22,0,0,-0.22,973.28747,302.79656)"
     style="fill:#ffffff;fill-opacity:1" />
  <use
     xlink:href="#DejaVuSans-73"
     id="use8447"
     x="0"
     y="0"
     width="100%"
     height="100%"
     transform="matrix(0.24,0,0,-0.24,875.45549,329.60812)"
     style="fill:#ffffff;fill-opacity:1" />
  <use
     xlink:href="#DejaVuSans-68"
     x="52.099609"
     id="use8449"
     y="0"
     width="100%"
     height="100%"
     transform="matrix(0.24,0,0,-0.24,875.45549,329.60812)"
     style="fill:#ffffff;fill-opacity:1" />
  <use
     xlink:href="#DejaVuSans-6f"
     x="115.47852"
     id="use8451"
     y="0"
     width="100%"
     height="100%"
     transform="matrix(0.24,0,0,-0.24,875.45549,329.60812)"
     style="fill:#ffffff;fill-opacity:1" />
  <use
     xlink:href="#DejaVuSans-77"
     x="176.66016"
     id="use8453"
     y="0"
     width="100%"
     height="100%"
     transform="matrix(0.24,0,0,-0.24,875.45549,329.60812)"
     style="fill:#ffffff;fill-opacity:1" />
  <use
     xlink:href="#DejaVuSans-69"
     x="258.44727"
     id="use8455"
     y="0"
     width="100%"
     height="100%"
     transform="matrix(0.24,0,0,-0.24,875.45549,329.60812)"
     style="fill:#ffffff;fill-opacity:1" />
  <use
     xlink:href="#DejaVuSans-6e"
     x="286.23047"
     id="use8457"
     y="0"
     width="100%"
     height="100%"
     transform="matrix(0.24,0,0,-0.24,875.45549,329.60812)"
     style="fill:#ffffff;fill-opacity:1" />
  <use
     xlink:href="#DejaVuSans-67"
     x="349.60938"
     id="use8459"
     y="0"
     width="100%"
     height="100%"
     transform="matrix(0.24,0,0,-0.24,875.45549,329.60812)"
     style="fill:#ffffff;fill-opacity:1" />
  <use
     xlink:href="#m5552ad1645"
     x="767.59833"
     y="270.57999"
     style="stroke:#bfbfbf;stroke-width:2.5;stroke-opacity:1"
     id="use8465"
     width="100%"
     height="100%"
     transform="translate(14.185701)" />
  <use
     xlink:href="#m5552ad1645"
     x="767.59833"
     y="195.7981"
     style="stroke:#bfbfbf;stroke-width:2.5;stroke-opacity:1"
     id="use8471"
     width="100%"
     height="100%"
     transform="translate(14.185701)" />
  <use
     xlink:href="#m5552ad1645"
     x="767.59833"
     y="121.0162"
     style="stroke:#bfbfbf;stroke-width:2.5;stroke-opacity:1"
     id="use8477"
     width="100%"
     height="100%"
     transform="translate(14.185701)" />
  <path
     d="M 839.21875,218.37377 V 178.86635"
     clip-path="url(#p3f70b32139)"
     style="fill:none;stroke:#bfbfbf;stroke-width:5.4;stroke-linecap:square;stroke-opacity:1"
     id="path8484"
     transform="translate(14.185701)" />
  <path
     d="M 982.45958,148.02077 V 99.204811"
     clip-path="url(#p3f70b32139)"
     style="fill:none;stroke:#bfbfbf;stroke-width:5.4;stroke-linecap:square;stroke-opacity:1"
     id="path8487"
     transform="translate(14.185701)" />
  <path
     d="M 781.78403,270.58 V 50.92"
     style="fill:none;stroke:#bfbfbf;stroke-width:2.5;stroke-linecap:square;stroke-linejoin:miter;stroke-opacity:1"
     id="path8490" />
  <path
     d="M 781.78403,270.58 H 1068.2657"
     style="opacity:0.963584;fill:none;stroke:#bfbfbf;stroke-width:2.5;stroke-linecap:square;stroke-linejoin:miter;stroke-opacity:1"
     id="path8493" />
  <use
     xlink:href="#DejaVuSans-67"
     id="use8499"
     x="0"
     y="0"
     width="100%"
     height="100%"
     transform="matrix(0.24,0,0,-0.24,853.41112,44.92)"
     style="fill:#ffffff;fill-opacity:1" />
  <use
     xlink:href="#DejaVuSans-72"
     x="63.476562"
     id="use8501"
     y="0"
     width="100%"
     height="100%"
     transform="matrix(0.24,0,0,-0.24,853.41112,44.92)"
     style="fill:#ffffff;fill-opacity:1" />
  <use
     xlink:href="#DejaVuSans-6f"
     x="102.33984"
     id="use8503"
     y="0"
     width="100%"
     height="100%"
     transform="matrix(0.24,0,0,-0.24,853.41112,44.92)"
     style="fill:#ffffff;fill-opacity:1" />
  <use
     xlink:href="#DejaVuSans-75"
     x="163.52148"
     id="use8505"
     y="0"
     width="100%"
     height="100%"
     transform="matrix(0.24,0,0,-0.24,853.41112,44.92)"
     style="fill:#ffffff;fill-opacity:1" />
  <use
     xlink:href="#DejaVuSans-70"
     x="226.90039"
     id="use8507"
     y="0"
     width="100%"
     height="100%"
     transform="matrix(0.24,0,0,-0.24,853.41112,44.92)"
     style="fill:#ffffff;fill-opacity:1" />
  <use
     xlink:href="#DejaVuSans-20"
     x="290.37695"
     id="use8509"
     y="0"
     width="100%"
     height="100%"
     transform="matrix(0.24,0,0,-0.24,853.41112,44.92)" />
  <use
     xlink:href="#DejaVuSans-3d"
     x="322.16406"
     id="use8511"
     y="0"
     width="100%"
     height="100%"
     transform="matrix(0.24,0,0,-0.24,853.41112,44.92)"
     style="fill:#ffffff;fill-opacity:1" />
  <use
     xlink:href="#DejaVuSans-20"
     x="405.95312"
     id="use8513"
     y="0"
     width="100%"
     height="100%"
     transform="matrix(0.24,0,0,-0.24,853.41112,44.92)" />
  <use
     xlink:href="#DejaVuSans-34"
     x="437.74023"
     id="use8515"
     y="0"
     width="100%"
     height="100%"
     transform="matrix(0.24,0,0,-0.24,853.41112,44.92)"
     style="fill:#ffffff;fill-opacity:1" />
  <use
     xlink:href="#DejaVuSans-2c"
     x="501.36328"
     id="use8517"
     y="0"
     width="100%"
     height="100%"
     transform="matrix(0.24,0,0,-0.24,853.41112,44.92)"
     style="fill:#ffffff;fill-opacity:1" />
  <use
     xlink:href="#DejaVuSans-35"
     x="533.15039"
     id="use8519"
     y="0"
     width="100%"
     height="100%"
     transform="matrix(0.24,0,0,-0.24,853.41112,44.92)"
     style="fill:#ffffff;fill-opacity:1" />
  <defs
     id="defs8535">
    <clipPath
       id="p4f1833ab72">
      <rect
         x="118.795"
         y="50.919998"
         width="286.48166"
         height="219.66"
         id="rect8526" />
    </clipPath>
    <clipPath
       id="p7b385eea65">
      <rect
         x="443.19666"
         y="50.919998"
         width="286.48166"
         height="219.66"
         id="rect8529" />
    </clipPath>
    <clipPath
       id="p3f70b32139">
      <rect
         x="767.59833"
         y="50.919998"
         width="286.48166"
         height="219.66"
         id="rect8532" />
    </clipPath>
  </defs>
  <g
     id="g15601"
     transform="translate(-190.91976,474.7463)">
    <path
       d="m 269.4011,-204.4808 h 286.48166 v -219.66 H 269.4011 Z"
       style="fill:none;stroke-linecap:butt;stroke-linejoin:round"
       id="path8286" />
    <path
       d="M 457.52075,270.58 H 572.11342 V 171.18634 H 457.52075 Z"
       clip-path="url(#p7b385eea65-6)"
       style="fill:#176d9c;stroke-linecap:butt;stroke-linejoin:round"
       id="path8289"
       transform="translate(-173.79557,-475.0608)" />
    <path
       d="M 600.76158,270.58 H 715.35425 V 126.13825 H 600.76158 Z"
       clip-path="url(#p7b385eea65-6)"
       style="fill:#c38820;stroke-linecap:butt;stroke-linejoin:round"
       id="path8292"
       transform="translate(-173.79557,-475.0608)" />
    <use
       xlink:href="#md40130f608"
       x="514.81708"
       y="270.57999"
       style="fill:#ffffff;fill-opacity:1;stroke:#bfbfbf;stroke-width:2.5;stroke-linecap:butt;stroke-linejoin:round;stroke-opacity:1"
       id="use8295"
       width="100%"
       height="100%"
       transform="translate(-173.79557,-475.0608)" />
    <use
       xlink:href="#DejaVuSans-46"
       id="use8300"
       x="0"
       y="0"
       width="100%"
       height="100%"
       transform="matrix(0.22,0,0,-0.22,313.40292,-172.26424)"
       style="fill:#ffffff;fill-opacity:1;stroke-linecap:butt;stroke-linejoin:round" />
    <use
       xlink:href="#DejaVuSans-61"
       x="48.394531"
       id="use8302"
       y="0"
       width="100%"
       height="100%"
       transform="matrix(0.22,0,0,-0.22,313.40292,-172.26424)"
       style="fill:#ffffff;fill-opacity:1;stroke-linecap:butt;stroke-linejoin:round" />
    <use
       xlink:href="#DejaVuSans-6c"
       x="109.67383"
       id="use8304"
       y="0"
       width="100%"
       height="100%"
       transform="matrix(0.22,0,0,-0.22,313.40292,-172.26424)"
       style="fill:#ffffff;fill-opacity:1;stroke-linecap:butt;stroke-linejoin:round" />
    <use
       xlink:href="#DejaVuSans-73"
       x="137.45703"
       id="use8306"
       y="0"
       width="100%"
       height="100%"
       transform="matrix(0.22,0,0,-0.22,313.40292,-172.26424)"
       style="fill:#ffffff;fill-opacity:1;stroke-linecap:butt;stroke-linejoin:round" />
    <use
       xlink:href="#DejaVuSans-65"
       x="189.55664"
       id="use8308"
       y="0"
       width="100%"
       height="100%"
       transform="matrix(0.22,0,0,-0.22,313.40292,-172.26424)"
       style="fill:#ffffff;fill-opacity:1;stroke-linecap:butt;stroke-linejoin:round" />
    <use
       xlink:href="#md40130f608"
       x="658.05792"
       y="270.57999"
       style="fill:#ffffff;fill-opacity:1;stroke:#bfbfbf;stroke-width:2.5;stroke-linecap:butt;stroke-linejoin:round;stroke-opacity:1"
       id="use8314"
       width="100%"
       height="100%"
       transform="translate(-173.79557,-475.0608)" />
    <use
       xlink:href="#DejaVuSans-54"
       id="use8319"
       x="0"
       y="0"
       width="100%"
       height="100%"
       transform="matrix(0.22,0,0,-0.22,460.90453,-172.26424)"
       style="fill:#ffffff;fill-opacity:1;stroke-linecap:butt;stroke-linejoin:round" />
    <use
       xlink:href="#DejaVuSans-72"
       x="46.333984"
       id="use8321"
       y="0"
       width="100%"
       height="100%"
       transform="matrix(0.22,0,0,-0.22,460.90453,-172.26424)"
       style="fill:#ffffff;fill-opacity:1;stroke-linecap:butt;stroke-linejoin:round" />
    <use
       xlink:href="#DejaVuSans-75"
       x="87.447266"
       id="use8323"
       y="0"
       width="100%"
       height="100%"
       transform="matrix(0.22,0,0,-0.22,460.90453,-172.26424)"
       style="fill:#ffffff;fill-opacity:1;stroke-linecap:butt;stroke-linejoin:round" />
    <use
       xlink:href="#DejaVuSans-65"
       x="150.82617"
       id="use8325"
       y="0"
       width="100%"
       height="100%"
       transform="matrix(0.22,0,0,-0.22,460.90453,-172.26424)"
       style="fill:#ffffff;fill-opacity:1;stroke-linecap:butt;stroke-linejoin:round" />
    <use
       xlink:href="#DejaVuSans-73"
       id="use8331"
       x="0"
       y="0"
       width="100%"
       height="100%"
       transform="matrix(0.24,0,0,-0.24,363.07255,-145.45268)"
       style="fill:#ffffff;fill-opacity:1;stroke-linecap:butt;stroke-linejoin:round" />
    <use
       xlink:href="#DejaVuSans-68"
       x="52.099609"
       id="use8333"
       y="0"
       width="100%"
       height="100%"
       transform="matrix(0.24,0,0,-0.24,363.07255,-145.45268)"
       style="fill:#ffffff;fill-opacity:1;stroke-linecap:butt;stroke-linejoin:round" />
    <use
       xlink:href="#DejaVuSans-6f"
       x="115.47852"
       id="use8335"
       y="0"
       width="100%"
       height="100%"
       transform="matrix(0.24,0,0,-0.24,363.07255,-145.45268)"
       style="fill:#ffffff;fill-opacity:1;stroke-linecap:butt;stroke-linejoin:round" />
    <use
       xlink:href="#DejaVuSans-77"
       x="176.66016"
       id="use8337"
       y="0"
       width="100%"
       height="100%"
       transform="matrix(0.24,0,0,-0.24,363.07255,-145.45268)"
       style="fill:#ffffff;fill-opacity:1;stroke-linecap:butt;stroke-linejoin:round" />
    <use
       xlink:href="#DejaVuSans-69"
       x="258.44727"
       id="use8339"
       y="0"
       width="100%"
       height="100%"
       transform="matrix(0.24,0,0,-0.24,363.07255,-145.45268)"
       style="fill:#ffffff;fill-opacity:1;stroke-linecap:butt;stroke-linejoin:round" />
    <use
       xlink:href="#DejaVuSans-6e"
       x="286.23047"
       id="use8341"
       y="0"
       width="100%"
       height="100%"
       transform="matrix(0.24,0,0,-0.24,363.07255,-145.45268)"
       style="fill:#ffffff;fill-opacity:1;stroke-linecap:butt;stroke-linejoin:round" />
    <use
       xlink:href="#DejaVuSans-67"
       x="349.60938"
       id="use8343"
       y="0"
       width="100%"
       height="100%"
       transform="matrix(0.24,0,0,-0.24,363.07255,-145.45268)"
       style="fill:#ffffff;fill-opacity:1;stroke-linecap:butt;stroke-linejoin:round" />
    <use
       xlink:href="#m5552ad1645"
       x="443.19666"
       y="270.57999"
       style="stroke:#bfbfbf;stroke-width:2.5;stroke-linecap:butt;stroke-linejoin:round;stroke-opacity:1"
       id="use8349"
       width="100%"
       height="100%"
       transform="translate(-173.79557,-475.0608)" />
    <use
       xlink:href="#m5552ad1645"
       x="443.19666"
       y="195.7981"
       style="stroke:#bfbfbf;stroke-width:2.5;stroke-linecap:butt;stroke-linejoin:round;stroke-opacity:1"
       id="use8355"
       width="100%"
       height="100%"
       transform="translate(-173.79557,-475.0608)" />
    <use
       xlink:href="#m5552ad1645"
       x="443.19666"
       y="121.0162"
       style="stroke:#bfbfbf;stroke-width:2.5;stroke-linecap:butt;stroke-linejoin:round;stroke-opacity:1"
       id="use8361"
       width="100%"
       height="100%"
       transform="translate(-173.79557,-475.0608)" />
    <path
       d="M 514.81708,188.22525 V 154.14742"
       clip-path="url(#p7b385eea65-6)"
       style="fill:none;stroke:#bfbfbf;stroke-width:5.4;stroke-linecap:square;stroke-linejoin:round;stroke-opacity:1"
       id="path8368"
       transform="translate(-173.79557,-475.0608)" />
    <path
       d="M 658.05792,165.11703 V 87.159462"
       clip-path="url(#p7b385eea65-6)"
       style="fill:none;stroke:#bfbfbf;stroke-width:5.4;stroke-linecap:square;stroke-linejoin:round;stroke-opacity:1"
       id="path8371"
       transform="translate(-173.79557,-475.0608)" />
    <path
       d="m 269.4011,-204.4808 v -219.66"
       style="fill:none;stroke:#bfbfbf;stroke-width:2.5;stroke-linecap:square;stroke-linejoin:miter;stroke-opacity:1"
       id="path8374" />
    <path
       d="M 269.4011,-204.4808 H 555.88276"
       style="fill:none;stroke:#bfbfbf;stroke-width:2.5;stroke-linecap:square;stroke-linejoin:miter;stroke-opacity:1"
       id="path8377" />
    <use
       xlink:href="#DejaVuSans-67"
       id="use8380"
       x="0"
       y="0"
       width="100%"
       height="100%"
       transform="matrix(0.24,0,0,-0.24,352.47693,-430.1408)"
       style="fill:#ffffff;fill-opacity:1;stroke-linecap:butt;stroke-linejoin:round" />
    <use
       xlink:href="#DejaVuSans-72"
       x="63.476562"
       id="use8382"
       y="0"
       width="100%"
       height="100%"
       transform="matrix(0.24,0,0,-0.24,352.47693,-430.1408)"
       style="fill:#ffffff;fill-opacity:1;stroke-linecap:butt;stroke-linejoin:round" />
    <use
       xlink:href="#DejaVuSans-6f"
       x="102.33984"
       id="use8384"
       y="0"
       width="100%"
       height="100%"
       transform="matrix(0.24,0,0,-0.24,352.47693,-430.1408)"
       style="fill:#ffffff;fill-opacity:1;stroke-linecap:butt;stroke-linejoin:round" />
    <use
       xlink:href="#DejaVuSans-75"
       x="163.52148"
       id="use8386"
       y="0"
       width="100%"
       height="100%"
       transform="matrix(0.24,0,0,-0.24,352.47693,-430.1408)"
       style="fill:#ffffff;fill-opacity:1;stroke-linecap:butt;stroke-linejoin:round" />
    <use
       xlink:href="#DejaVuSans-70"
       x="226.90039"
       id="use8388"
       y="0"
       width="100%"
       height="100%"
       transform="matrix(0.24,0,0,-0.24,352.47693,-430.1408)"
       style="fill:#ffffff;fill-opacity:1;stroke-linecap:butt;stroke-linejoin:round" />
    <use
       xlink:href="#DejaVuSans-3d"
       x="322.16406"
       id="use8392"
       y="0"
       width="100%"
       height="100%"
       transform="matrix(0.24,0,0,-0.24,352.47693,-430.1408)"
       style="fill:#ffffff;fill-opacity:1;stroke-linecap:butt;stroke-linejoin:round" />
    <use
       xlink:href="#DejaVuSans-31"
       x="437.74023"
       id="use8396"
       y="0"
       width="100%"
       height="100%"
       transform="matrix(0.24,0,0,-0.24,352.47693,-430.1408)"
       style="fill:#ffffff;fill-opacity:1;stroke-linecap:butt;stroke-linejoin:round" />
  </g>
  <g
     id="g16197"
     transform="translate(57.90575,24.701083)">
    <use
       xlink:href="#DejaVuSans-30"
       id="use8164"
       x="0"
       y="0"
       width="100%"
       height="100%"
       transform="matrix(0.22,0,0,-0.22,-31.10199,249.03863)"
       style="fill:#ffffff;fill-opacity:1;stroke-linecap:butt;stroke-linejoin:round" />
    <use
       xlink:href="#DejaVuSans-2e"
       x="63.623047"
       id="use8166"
       y="0"
       width="100%"
       height="100%"
       transform="matrix(0.22,0,0,-0.22,-31.10199,249.03863)"
       style="fill:#ffffff;fill-opacity:1;stroke-linecap:butt;stroke-linejoin:round" />
    <use
       xlink:href="#DejaVuSans-30"
       x="95.410156"
       id="use8168"
       y="0"
       width="100%"
       height="100%"
       transform="matrix(0.22,0,0,-0.22,-31.10199,249.03863)"
       style="fill:#ffffff;fill-opacity:1;stroke-linecap:butt;stroke-linejoin:round" />
    <use
       xlink:href="#DejaVuSans-30"
       id="use8182"
       x="0"
       y="0"
       width="100%"
       height="100%"
       transform="matrix(0.22,0,0,-0.22,-31.10199,174.25673)"
       style="fill:#ffffff;fill-opacity:1;stroke-linecap:butt;stroke-linejoin:round" />
    <use
       xlink:href="#DejaVuSans-2e"
       x="63.623047"
       id="use8184"
       y="0"
       width="100%"
       height="100%"
       transform="matrix(0.22,0,0,-0.22,-31.10199,174.25673)"
       style="fill:#ffffff;fill-opacity:1;stroke-linecap:butt;stroke-linejoin:round" />
    <use
       xlink:href="#DejaVuSans-31"
       x="95.410156"
       id="use8186"
       y="0"
       width="100%"
       height="100%"
       transform="matrix(0.22,0,0,-0.22,-31.10199,174.25673)"
       style="fill:#ffffff;fill-opacity:1;stroke:#bfbfbf;stroke-linecap:butt;stroke-linejoin:round;stroke-opacity:1" />
    <use
       xlink:href="#DejaVuSans-30"
       id="use8200"
       x="0"
       y="0"
       width="100%"
       height="100%"
       transform="matrix(0.22,0,0,-0.22,-31.10199,99.474825)"
       style="fill:#ffffff;fill-opacity:1;stroke-linecap:butt;stroke-linejoin:round" />
    <use
       xlink:href="#DejaVuSans-2e"
       x="63.623047"
       id="use8202"
       y="0"
       width="100%"
       height="100%"
       transform="matrix(0.22,0,0,-0.22,-31.10199,99.474825)"
       style="fill:#ffffff;fill-opacity:1;stroke-linecap:butt;stroke-linejoin:round" />
    <use
       xlink:href="#DejaVuSans-32"
       x="95.410156"
       id="use8204"
       y="0"
       width="100%"
       height="100%"
       transform="matrix(0.22,0,0,-0.22,-31.10199,99.474825)"
       style="fill:#ffffff;fill-opacity:1;stroke:#bfbfbf;stroke-linecap:butt;stroke-linejoin:round;stroke-opacity:1" />
    <use
       xlink:href="#DejaVuSans-73"
       id="use8216"
       x="0"
       y="0"
       width="100%"
       height="100%"
       transform="matrix(0,-0.24,-0.24,0,-40.09325,194.12971)"
       style="fill:#ffffff;fill-opacity:1;stroke-linecap:butt;stroke-linejoin:round" />
    <use
       xlink:href="#DejaVuSans-63"
       x="52.099609"
       id="use8218"
       y="0"
       width="100%"
       height="100%"
       transform="matrix(0,-0.24,-0.24,0,-40.09325,194.12971)"
       style="fill:#ffffff;fill-opacity:1;stroke-linecap:butt;stroke-linejoin:round" />
    <use
       xlink:href="#DejaVuSans-6f"
       x="107.08008"
       id="use8220"
       y="0"
       width="100%"
       height="100%"
       transform="matrix(0,-0.24,-0.24,0,-40.09325,194.12971)"
       style="fill:#ffffff;fill-opacity:1;stroke-linecap:butt;stroke-linejoin:round" />
    <use
       xlink:href="#DejaVuSans-72"
       x="168.26172"
       id="use8222"
       y="0"
       width="100%"
       height="100%"
       transform="matrix(0,-0.24,-0.24,0,-40.09325,194.12971)"
       style="fill:#ffffff;fill-opacity:1;stroke-linecap:butt;stroke-linejoin:round" />
    <use
       xlink:href="#DejaVuSans-65"
       x="207.125"
       id="use8224"
       y="0"
       width="100%"
       height="100%"
       transform="matrix(0,-0.24,-0.24,0,-40.09325,194.12971)"
       style="fill:#ffffff;fill-opacity:1;stroke-linecap:butt;stroke-linejoin:round" />
    <use
       xlink:href="#DejaVuSans-2d"
       x="300.43555"
       id="use8228"
       y="0"
       width="100%"
       height="100%"
       transform="matrix(0,-0.24,-0.24,0,-40.09325,194.12971)"
       style="fill:#ffffff;fill-opacity:1;stroke-linecap:butt;stroke-linejoin:round" />
    <use
       xlink:href="#DejaVuSans-30"
       x="368.30664"
       id="use8232"
       y="0"
       width="100%"
       height="100%"
       transform="matrix(0,-0.24,-0.24,0,-40.09325,194.12971)"
       style="fill:#ffffff;fill-opacity:1;stroke-linecap:butt;stroke-linejoin:round" />
    <use
       xlink:href="#DejaVuSans-2e"
       x="431.92969"
       id="use8234"
       y="0"
       width="100%"
       height="100%"
       transform="matrix(0,-0.24,-0.24,0,-40.09325,194.12971)"
       style="fill:#ffffff;fill-opacity:1;stroke-linecap:butt;stroke-linejoin:round" />
    <use
       xlink:href="#DejaVuSans-35"
       x="463.7168"
       id="use8236"
       y="0"
       width="100%"
       height="100%"
       transform="matrix(0,-0.24,-0.24,0,-40.09325,194.12971)"
       style="fill:#ffffff;fill-opacity:1;stroke-linecap:butt;stroke-linejoin:round" />
  </g>
</svg>
