<?xml version="1.0" encoding="UTF-8" standalone="no"?>
<svg
   width="1214.575pt"
   height="360pt"
   viewBox="0 0 1214.575 360"
   version="1.1"
   id="svg9169"
   sodipodi:docname="teaching_scores.svg"
   inkscape:version="1.1.2 (0a00cf5339, 2022-02-04, custom)"
   xmlns:inkscape="http://www.inkscape.org/namespaces/inkscape"
   xmlns:sodipodi="http://sodipodi.sourceforge.net/DTD/sodipodi-0.dtd"
   xmlns:xlink="http://www.w3.org/1999/xlink"
   xmlns="http://www.w3.org/2000/svg"
   xmlns:svg="http://www.w3.org/2000/svg"
   xmlns:rdf="http://www.w3.org/1999/02/22-rdf-syntax-ns#"
   xmlns:cc="http://creativecommons.org/ns#"
   xmlns:dc="http://purl.org/dc/elements/1.1/">
  <sodipodi:namedview
     id="namedview9171"
     pagecolor="#505050"
     bordercolor="#ffffff"
     borderopacity="1"
     inkscape:pageshadow="0"
     inkscape:pageopacity="0"
     inkscape:pagecheckerboard="1"
     inkscape:document-units="pt"
     showgrid="false"
     inkscape:zoom="0.85708996"
     inkscape:cx="406.02506"
     inkscape:cy="281.76739"
     inkscape:current-layer="svg9169" />
  <metadata
     id="metadata8541">
    <rdf:RDF>
      <cc:Work>
        <dc:type
           rdf:resource="http://purl.org/dc/dcmitype/StillImage" />
        <dc:date>2022-05-08T12:24:52.604861</dc:date>
        <dc:format>image/svg+xml</dc:format>
        <dc:creator>
          <cc:Agent>
            <dc:title>Matplotlib v3.5.1, https://matplotlib.org/</dc:title>
          </cc:Agent>
        </dc:creator>
      </cc:Work>
    </rdf:RDF>
  </metadata>
  <defs
     id="defs8545">
    <style
       type="text/css"
       id="style8543">*{stroke-linejoin: round; stroke-linecap: butt}</style>
    <defs
       id="defs9099">
      <path
         id="DejaVuSans-68"
         d="M 3513,2113 V 0 h -575 v 2094 q 0,497 -194,743 -194,247 -581,247 -466,0 -735,-297 -269,-296 -269,-809 V 0 H 581 v 4863 h 578 V 2956 q 207,316 486,472 280,156 646,156 603,0 912,-373 310,-373 310,-1098 z"
         transform="scale(0.015625)" />
      <path
         id="DejaVuSans-77"
         d="m 269,3500 h 575 l 719,-2731 715,2731 h 678 l 719,-2731 716,2731 h 575 L 4050,0 H 3372 L 2619,2869 1863,0 h -679 z"
         transform="scale(0.015625)" />
      <path
         id="DejaVuSans-69"
         d="m 603,3500 h 575 V 0 H 603 Z m 0,1363 h 575 V 4134 H 603 Z"
         transform="scale(0.015625)" />
    </defs>
    <defs
       id="defs9143">
      <path
         id="DejaVuSans-54"
         d="M -19,4666 H 3928 V 4134 H 2272 V 0 H 1638 V 4134 H -19 Z"
         transform="scale(0.015625)" />
    </defs>
    <defs
       id="defs9124">
      <path
         id="DejaVuSans-46"
         d="M 628,4666 H 3309 V 4134 H 1259 V 2759 H 3109 V 2228 H 1259 V 0 H 628 Z"
         transform="scale(0.015625)" />
      <path
         id="DejaVuSans-61"
         d="m 2194,1759 q -697,0 -966,-159 -269,-159 -269,-544 0,-306 202,-486 202,-179 548,-179 479,0 768,339 289,339 289,901 v 128 z m 1147,238 V 0 H 2766 V 531 Q 2569,213 2275,61 1981,-91 1556,-91 q -537,0 -855,302 -317,302 -317,808 0,590 395,890 396,300 1180,300 h 807 v 57 q 0,397 -261,614 -261,217 -733,217 -300,0 -585,-72 -284,-72 -546,-216 v 532 q 315,122 612,182 297,61 578,61 760,0 1135,-394 375,-393 375,-1193 z"
         transform="scale(0.015625)" />
      <path
         id="DejaVuSans-6c"
         d="m 603,4863 h 575 V 0 H 603 Z"
         transform="scale(0.015625)" />
    </defs>
    <defs
       id="defs8762">
      <path
         id="DejaVuSans-67"
         d="m 2906,1791 q 0,625 -258,968 -257,344 -723,344 -462,0 -720,-344 -258,-343 -258,-968 0,-622 258,-966 258,-344 720,-344 466,0 723,344 258,344 258,966 z M 3481,434 q 0,-893 -397,-1329 -396,-436 -1215,-436 -303,0 -572,45 -269,45 -522,139 v 559 q 253,-137 500,-202 247,-66 503,-66 566,0 847,295 281,295 281,892 V 616 Q 2728,306 2450,153 2172,0 1784,0 1141,0 747,490 353,981 353,1791 q 0,812 394,1302 394,491 1037,491 388,0 666,-153 278,-153 456,-462 v 531 h 575 z"
         transform="scale(0.015625)" />
      <path
         id="DejaVuSans-70"
         d="M 1159,525 V -1331 H 581 v 4831 h 578 v -531 q 182,312 458,463 277,152 661,152 638,0 1036,-506 399,-506 399,-1331 0,-825 -399,-1332 -398,-506 -1036,-506 -384,0 -661,152 -276,152 -458,464 z m 1957,1222 q 0,634 -261,995 -261,361 -717,361 -457,0 -718,-361 -261,-361 -261,-995 0,-634 261,-995 261,-361 718,-361 456,0 717,361 261,361 261,995 z"
         transform="scale(0.015625)" />
      <path
         id="DejaVuSans-20"
         transform="scale(0.015625)"
         d="" />
      <path
         id="DejaVuSans-3d"
         d="M 678,2906 H 4684 V 2381 H 678 Z m 0,-1275 H 4684 V 1100 H 678 Z"
         transform="scale(0.015625)" />
      <path
         id="DejaVuSans-2c"
         d="m 750,794 h 659 V 256 L 897,-744 H 494 L 750,256 Z"
         transform="scale(0.015625)" />
      <path
         id="DejaVuSans-33"
         d="m 2597,2516 q 453,-97 707,-404 255,-306 255,-756 0,-690 -475,-1069 -475,-378 -1350,-378 -293,0 -604,58 -311,58 -642,174 v 609 q 262,-153 574,-231 313,-78 654,-78 593,0 904,234 311,234 311,681 0,413 -289,645 -289,233 -804,233 h -544 v 519 h 569 q 465,0 712,186 247,186 247,536 0,359 -255,551 -254,193 -729,193 -260,0 -557,-57 -297,-56 -653,-174 v 562 q 360,100 674,150 314,50 592,50 719,0 1137,-327 419,-326 419,-882 0,-388 -222,-655 -222,-267 -631,-370 z"
         transform="scale(0.015625)" />
    </defs>
    <defs
       id="defs8590">
      <path
         id="m1d0204809a"
         d="M 0,0 V 12"
         style="stroke:#000000;stroke-width:2.5" />
    </defs>
    <defs
       id="defs8652">
      <path
         id="DejaVuSans-73"
         d="m 2834,3397 v -544 q -243,125 -506,187 -262,63 -544,63 -428,0 -642,-131 -214,-131 -214,-394 0,-200 153,-314 153,-114 616,-217 l 197,-44 q 612,-131 870,-370 258,-239 258,-667 0,-488 -386,-773 Q 2250,-91 1575,-91 1294,-91 989,-36 684,19 347,128 v 594 q 319,-166 628,-249 309,-82 613,-82 406,0 624,139 219,139 219,392 0,234 -158,359 -157,125 -692,241 l -200,47 q -534,112 -772,345 -237,233 -237,639 0,494 350,762 350,269 994,269 318,0 599,-47 282,-46 519,-140 z"
         transform="scale(0.015625)" />
      <path
         id="DejaVuSans-63"
         d="m 3122,3366 v -538 q -244,135 -489,202 -245,67 -495,67 -560,0 -870,-355 -309,-354 -309,-995 0,-641 309,-996 310,-354 870,-354 250,0 495,67 245,67 489,202 V 134 Q 2881,22 2623,-34 2366,-91 2075,-91 1284,-91 818,406 353,903 353,1747 q 0,856 470,1346 471,491 1290,491 265,0 518,-55 253,-54 491,-163 z"
         transform="scale(0.015625)" />
      <path
         id="DejaVuSans-6f"
         d="m 1959,3097 q -462,0 -731,-361 -269,-361 -269,-989 0,-628 267,-989 268,-361 733,-361 460,0 728,362 269,363 269,988 0,622 -269,986 -268,364 -728,364 z m 0,487 q 750,0 1178,-488 429,-487 429,-1349 Q 3566,888 3137,398 2709,-91 1959,-91 1206,-91 779,398 353,888 353,1747 q 0,862 426,1349 427,488 1180,488 z"
         transform="scale(0.015625)" />
      <path
         id="DejaVuSans-72"
         d="m 2631,2963 q -97,56 -211,82 -114,27 -251,27 -488,0 -749,-317 -261,-317 -261,-911 V 0 H 581 v 3500 h 578 v -544 q 182,319 472,473 291,155 707,155 59,0 131,-8 72,-7 159,-23 z"
         transform="scale(0.015625)" />
      <path
         id="DejaVuSans-65"
         d="M 3597,1894 V 1613 H 953 q 38,-594 358,-905 320,-311 892,-311 331,0 642,81 311,81 618,244 V 178 Q 3153,47 2828,-22 2503,-91 2169,-91 1331,-91 842,396 353,884 353,1716 q 0,859 464,1363 464,505 1252,505 706,0 1117,-455 411,-454 411,-1235 z m -575,169 q -6,471 -264,752 -258,282 -683,282 -481,0 -770,-272 -289,-272 -333,-766 z"
         transform="scale(0.015625)" />
    </defs>
    <defs
       id="defs8734">
      <path
         id="DejaVuSans-43"
         d="m 4122,4306 v -665 q -319,297 -680,443 -361,147 -767,147 -800,0 -1225,-489 -425,-489 -425,-1414 0,-922 425,-1411 425,-489 1225,-489 406,0 767,147 361,147 680,444 V 359 Q 3791,134 3420,21 3050,-91 2638,-91 1578,-91 968,557 359,1206 359,2328 q 0,1125 609,1773 610,649 1670,649 418,0 788,-111 371,-111 696,-333 z"
         transform="scale(0.015625)" />
      <path
         id="DejaVuSans-75"
         d="m 544,1381 v 2119 h 575 V 1403 q 0,-497 193,-746 194,-248 582,-248 465,0 735,297 271,297 271,810 v 1984 h 575 V 0 H 2900 V 538 Q 2691,219 2414,64 2138,-91 1772,-91 1169,-91 856,284 544,659 544,1381 Z m 1447,2203 z"
         transform="scale(0.015625)" />
      <path
         id="DejaVuSans-6e"
         d="M 3513,2113 V 0 h -575 v 2094 q 0,497 -194,743 -194,247 -581,247 -466,0 -735,-297 -269,-296 -269,-809 V 0 H 581 v 3500 h 578 v -544 q 207,316 486,472 280,156 646,156 603,0 912,-373 310,-373 310,-1098 z"
         transform="scale(0.015625)" />
      <path
         id="DejaVuSans-74"
         d="M 1172,4494 V 3500 H 2356 V 3053 H 1172 V 1153 q 0,-428 117,-550 117,-122 477,-122 h 590 V 0 H 1766 Q 1100,0 847,248 594,497 594,1153 V 3053 H 172 v 447 h 422 v 994 z"
         transform="scale(0.015625)" />
    </defs>
    <defs
       id="defs8669">
      <path
         id="m1367edd116"
         d="M 0,0 H -12"
         style="stroke:#000000;stroke-width:2.5" />
    </defs>
    <defs
       id="defs8635">
      <path
         id="DejaVuSans-31"
         d="M 794,531 H 1825 V 4091 L 703,3866 v 575 l 1116,225 h 631 V 531 H 3481 V 0 H 794 Z"
         transform="scale(0.015625)" />
    </defs>
    <defs
       id="defs8599">
      <path
         id="DejaVuSans-30"
         d="m 2034,4250 q -487,0 -733,-480 -245,-479 -245,-1442 0,-959 245,-1439 246,-480 733,-480 491,0 736,480 246,480 246,1439 0,963 -246,1442 -245,480 -736,480 z m 0,500 q 785,0 1199,-621 414,-620 414,-1801 0,-1178 -414,-1799 -414,-620 -1199,-620 -784,0 -1198,620 -414,621 -414,1799 0,1181 414,1801 414,621 1198,621 z"
         transform="scale(0.015625)" />
      <path
         id="DejaVuSans-2e"
         d="m 684,794 h 660 V 0 H 684 Z"
         transform="scale(0.015625)" />
    </defs>
    <defs
       id="defs8617">
      <path
         id="DejaVuSans-35"
         d="M 691,4666 H 3169 V 4134 H 1269 V 2991 q 137,47 274,70 138,23 276,23 781,0 1237,-428 457,-428 457,-1159 Q 3513,744 3044,326 2575,-91 1722,-91 1428,-91 1123,-41 819,9 494,109 v 635 q 281,-153 581,-228 300,-75 634,-75 541,0 856,284 316,284 316,772 0,487 -316,771 -315,285 -856,285 -253,0 -505,-56 -251,-56 -513,-175 z"
         transform="scale(0.015625)" />
    </defs>
    <defs
       id="defs8688">
      <path
         id="DejaVuSans-32"
         d="M 1228,531 H 3431 V 0 H 469 v 531 q 359,372 979,998 621,627 780,809 303,340 423,576 121,236 121,464 0,372 -261,606 -261,235 -680,235 -297,0 -627,-103 -329,-103 -704,-313 v 638 q 381,153 712,231 332,78 607,78 725,0 1156,-363 431,-362 431,-968 0,-288 -108,-546 -107,-257 -392,-607 -78,-91 -497,-524 Q 1991,1309 1228,531 Z"
         transform="scale(0.015625)" />
    </defs>
    <defs
       id="defs8704">
      <path
         id="DejaVuSans-34"
         d="M 2419,4116 825,1625 h 1594 z m -166,550 h 794 V 1625 h 666 V 1100 H 3047 V 0 H 2419 V 1100 H 313 v 609 z"
         transform="scale(0.015625)" />
    </defs>
    <defs
       id="defs8720">
      <path
         id="DejaVuSans-36"
         d="m 2113,2584 q -425,0 -674,-291 -248,-290 -248,-796 0,-503 248,-796 249,-292 674,-292 425,0 673,292 248,293 248,796 0,506 -248,796 -248,291 -673,291 z m 1253,1979 v -575 q -238,112 -480,171 -242,60 -480,60 -625,0 -955,-422 -329,-422 -376,-1275 184,272 462,417 279,145 613,145 703,0 1111,-427 408,-426 408,-1160 0,-719 -425,-1154 -425,-434 -1131,-434 -810,0 -1238,620 -428,621 -428,1799 0,1106 525,1764 525,658 1409,658 238,0 480,-47 242,-47 505,-140 z"
         transform="scale(0.015625)" />
    </defs>
  </defs>
  <path
     d="M 0,360 H 1214.575 V 0 H 0 Z"
     style="fill:none"
     id="path8547" />
  <path
     d="M 97.545,270.58 H 382.47834 V 50.92 H 97.545 Z"
     style="fill:none"
     id="path8550" />
  <path
     d="m 110.49652,270.58 h 43.17171 v -2.82703 h -43.17171 z"
     clip-path="url(#pc7575c40fb)"
     style="fill:#de8f05;fill-opacity:0.25;stroke:#bebebe;stroke-width:2;stroke-linejoin:miter;stroke-opacity:1"
     id="path8553" />
  <path
     d="m 153.66823,270.58 h 43.17172 v -8.48108 h -43.17172 z"
     clip-path="url(#pc7575c40fb)"
     style="fill:#de8f05;fill-opacity:0.25;stroke:#bebebe;stroke-width:2;stroke-linejoin:miter;stroke-opacity:1"
     id="path8556" />
  <path
     d="m 196.83995,270.58 h 43.17172 v -42.40541 h -43.17172 z"
     clip-path="url(#pc7575c40fb)"
     style="fill:#de8f05;fill-opacity:0.25;stroke:#bebebe;stroke-width:2;stroke-linejoin:miter;stroke-opacity:1"
     id="path8559" />
  <path
     d="m 240.01167,270.58 h 43.17172 V 149.01784 h -43.17172 z"
     clip-path="url(#pc7575c40fb)"
     style="fill:#de8f05;fill-opacity:0.25;stroke:#bebebe;stroke-width:2;stroke-linejoin:miter;stroke-opacity:1"
     id="path8562" />
  <path
     d="m 283.18339,270.58 h 43.17172 V 100.95838 h -43.17172 z"
     clip-path="url(#pc7575c40fb)"
     style="fill:#de8f05;fill-opacity:0.25;stroke:#bebebe;stroke-width:2;stroke-linejoin:miter;stroke-opacity:1"
     id="path8565" />
  <path
     d="m 326.35511,270.58 h 43.17172 v -62.1946 h -43.17172 z"
     clip-path="url(#pc7575c40fb)"
     style="fill:#de8f05;fill-opacity:0.25;stroke:#bebebe;stroke-width:2;stroke-linejoin:miter;stroke-opacity:1"
     id="path8568" />
  <path
     d="m 110.49652,270.58 h 43.17171 v 0 z"
     clip-path="url(#pc7575c40fb)"
     style="fill:#0173b2;fill-opacity:0.25;stroke:#bebebe;stroke-width:2;stroke-linejoin:miter;stroke-opacity:1"
     id="path8571" />
  <path
     d="m 153.66823,270.58 h 43.17172 v -14.13514 h -43.17172 z"
     clip-path="url(#pc7575c40fb)"
     style="fill:#0173b2;fill-opacity:0.25;stroke:#bebebe;stroke-width:2;stroke-linejoin:miter;stroke-opacity:1"
     id="path8574" />
  <path
     d="m 196.83995,270.58 h 43.17172 v -22.61622 h -43.17172 z"
     clip-path="url(#pc7575c40fb)"
     style="fill:#0173b2;fill-opacity:0.25;stroke:#bebebe;stroke-width:2;stroke-linejoin:miter;stroke-opacity:1"
     id="path8577" />
  <path
     d="m 240.01167,270.58 h 43.17172 V 154.67189 h -43.17172 z"
     clip-path="url(#pc7575c40fb)"
     style="fill:#0173b2;fill-opacity:0.25;stroke:#bebebe;stroke-width:2;stroke-linejoin:miter;stroke-opacity:1"
     id="path8580" />
  <path
     d="m 283.18339,270.58 h 43.17172 V 69.861081 h -43.17172 z"
     clip-path="url(#pc7575c40fb)"
     style="fill:#0173b2;fill-opacity:0.25;stroke:#bebebe;stroke-width:2;stroke-linejoin:miter;stroke-opacity:1"
     id="path8583" />
  <path
     d="m 326.35511,270.58 h 43.17172 v -93.29189 h -43.17172 z"
     clip-path="url(#pc7575c40fb)"
     style="fill:#0173b2;fill-opacity:0.25;stroke:#bebebe;stroke-width:2;stroke-linejoin:miter;stroke-opacity:1"
     id="path8586" />
  <use
     xlink:href="#m1d0204809a"
     x="110.49651"
     y="270.57999"
     style="stroke:#bebebe;stroke-width:2.5;stroke-opacity:1"
     id="use8592"
     width="100%"
     height="100%" />
  <use
     xlink:href="#DejaVuSans-30"
     id="use8601"
     x="0"
     y="0"
     width="100%"
     height="100%"
     transform="matrix(0.22,0,0,-0.22,93.003078,302.79656)"
     style="fill:#cbcbcb;fill-opacity:1" />
  <use
     xlink:href="#DejaVuSans-2e"
     x="63.623047"
     id="use8603"
     y="0"
     width="100%"
     height="100%"
     transform="matrix(0.22,0,0,-0.22,93.003078,302.79656)"
     style="fill:#cbcbcb;fill-opacity:1" />
  <use
     xlink:href="#DejaVuSans-30"
     x="95.410156"
     id="use8605"
     y="0"
     width="100%"
     height="100%"
     transform="matrix(0.22,0,0,-0.22,93.003078,302.79656)"
     style="fill:#cbcbcb;fill-opacity:1" />
  <use
     xlink:href="#m1d0204809a"
     x="240.01167"
     y="270.57999"
     style="stroke:#bebebe;stroke-width:2.5;stroke-opacity:1"
     id="use8611"
     width="100%"
     height="100%" />
  <use
     xlink:href="#DejaVuSans-30"
     id="use8619"
     x="0"
     y="0"
     width="100%"
     height="100%"
     transform="matrix(0.22,0,0,-0.22,222.51823,302.79656)"
     style="fill:#cbcbcb;fill-opacity:1" />
  <use
     xlink:href="#DejaVuSans-2e"
     x="63.623047"
     id="use8621"
     y="0"
     width="100%"
     height="100%"
     transform="matrix(0.22,0,0,-0.22,222.51823,302.79656)"
     style="fill:#cbcbcb;fill-opacity:1" />
  <use
     xlink:href="#DejaVuSans-35"
     x="95.410156"
     id="use8623"
     y="0"
     width="100%"
     height="100%"
     transform="matrix(0.22,0,0,-0.22,222.51823,302.79656)"
     style="fill:#cbcbcb;fill-opacity:1" />
  <use
     xlink:href="#m1d0204809a"
     x="369.52682"
     y="270.57999"
     style="stroke:#bebebe;stroke-width:2.5;stroke-opacity:1"
     id="use8629"
     width="100%"
     height="100%" />
  <use
     xlink:href="#DejaVuSans-31"
     id="use8637"
     x="0"
     y="0"
     width="100%"
     height="100%"
     transform="matrix(0.22,0,0,-0.22,352.03339,302.79656)"
     style="fill:#cbcbcb;fill-opacity:1" />
  <use
     xlink:href="#DejaVuSans-2e"
     x="63.623047"
     id="use8639"
     y="0"
     width="100%"
     height="100%"
     transform="matrix(0.22,0,0,-0.22,352.03339,302.79656)"
     style="fill:#cbcbcb;fill-opacity:1" />
  <use
     xlink:href="#DejaVuSans-30"
     x="95.410156"
     id="use8641"
     y="0"
     width="100%"
     height="100%"
     transform="matrix(0.22,0,0,-0.22,352.03339,302.79656)"
     style="fill:#cbcbcb;fill-opacity:1" />
  <use
     xlink:href="#DejaVuSans-73"
     id="use8654"
     x="0"
     y="0"
     width="100%"
     height="100%"
     transform="matrix(0.24,0,0,-0.24,207.77292,329.60812)"
     style="fill:#cbcbcb;fill-opacity:1" />
  <use
     xlink:href="#DejaVuSans-63"
     x="52.099609"
     id="use8656"
     y="0"
     width="100%"
     height="100%"
     transform="matrix(0.24,0,0,-0.24,207.77292,329.60812)"
     style="fill:#cbcbcb;fill-opacity:1" />
  <use
     xlink:href="#DejaVuSans-6f"
     x="107.08008"
     id="use8658"
     y="0"
     width="100%"
     height="100%"
     transform="matrix(0.24,0,0,-0.24,207.77292,329.60812)"
     style="fill:#cbcbcb;fill-opacity:1" />
  <use
     xlink:href="#DejaVuSans-72"
     x="168.26172"
     id="use8660"
     y="0"
     width="100%"
     height="100%"
     transform="matrix(0.24,0,0,-0.24,207.77292,329.60812)"
     style="fill:#cbcbcb;fill-opacity:1" />
  <use
     xlink:href="#DejaVuSans-65"
     x="207.125"
     id="use8662"
     y="0"
     width="100%"
     height="100%"
     transform="matrix(0.24,0,0,-0.24,207.77292,329.60812)"
     style="fill:#cbcbcb;fill-opacity:1" />
  <use
     xlink:href="#m1367edd116"
     x="97.544998"
     y="270.57999"
     style="stroke:#bebebe;stroke-width:2.5;stroke-opacity:1"
     id="use8671"
     width="100%"
     height="100%" />
  <use
     xlink:href="#DejaVuSans-30"
     id="use8676"
     x="0"
     y="0"
     width="100%"
     height="100%"
     transform="matrix(0.22,0,0,-0.22,68.0475,278.93828)"
     style="fill:#cbcbcb;fill-opacity:1;stroke:#bebebe;stroke-opacity:1" />
  <use
     xlink:href="#m1367edd116"
     x="97.544998"
     y="214.03946"
     style="stroke:#bebebe;stroke-width:2.5;stroke-opacity:1"
     id="use8682"
     width="100%"
     height="100%" />
  <use
     xlink:href="#DejaVuSans-32"
     id="use8690"
     x="0"
     y="0"
     width="100%"
     height="100%"
     transform="matrix(0.22,0,0,-0.22,54.05,222.39774)"
     style="fill:#cbcbcb;fill-opacity:1" />
  <use
     xlink:href="#DejaVuSans-30"
     x="63.623047"
     id="use8692"
     y="0"
     width="100%"
     height="100%"
     transform="matrix(0.22,0,0,-0.22,54.05,222.39774)"
     style="fill:#cbcbcb;fill-opacity:1" />
  <use
     xlink:href="#m1367edd116"
     x="97.544998"
     y="157.49892"
     style="stroke:#bebebe;stroke-width:2.5;stroke-opacity:1"
     id="use8698"
     width="100%"
     height="100%" />
  <use
     xlink:href="#DejaVuSans-34"
     id="use8706"
     x="0"
     y="0"
     width="100%"
     height="100%"
     transform="matrix(0.22,0,0,-0.22,54.05,165.8572)"
     style="fill:#cbcbcb;fill-opacity:1" />
  <use
     xlink:href="#DejaVuSans-30"
     x="63.623047"
     id="use8708"
     y="0"
     width="100%"
     height="100%"
     transform="matrix(0.22,0,0,-0.22,54.05,165.8572)"
     style="fill:#cbcbcb;fill-opacity:1" />
  <use
     xlink:href="#m1367edd116"
     x="97.544998"
     y="100.95838"
     style="stroke:#bebebe;stroke-width:2.5;stroke-opacity:1"
     id="use8714"
     width="100%"
     height="100%" />
  <use
     xlink:href="#DejaVuSans-36"
     id="use8722"
     x="0"
     y="0"
     width="100%"
     height="100%"
     transform="matrix(0.22,0,0,-0.22,54.05,109.31666)"
     style="fill:#cbcbcb;fill-opacity:1" />
  <use
     xlink:href="#DejaVuSans-30"
     x="63.623047"
     id="use8724"
     y="0"
     width="100%"
     height="100%"
     transform="matrix(0.22,0,0,-0.22,54.05,109.31666)"
     style="fill:#cbcbcb;fill-opacity:1" />
  <use
     xlink:href="#DejaVuSans-43"
     id="use8736"
     x="0"
     y="0"
     width="100%"
     height="100%"
     transform="matrix(0,-0.24,-0.24,0,45.05875,196.38625)"
     style="fill:#cbcbcb;fill-opacity:1" />
  <use
     xlink:href="#DejaVuSans-6f"
     x="69.824219"
     id="use8738"
     y="0"
     width="100%"
     height="100%"
     transform="matrix(0,-0.24,-0.24,0,45.05875,196.38625)"
     style="fill:#cbcbcb;fill-opacity:1" />
  <use
     xlink:href="#DejaVuSans-75"
     x="131.00586"
     id="use8740"
     y="0"
     width="100%"
     height="100%"
     transform="matrix(0,-0.24,-0.24,0,45.05875,196.38625)"
     style="fill:#cbcbcb;fill-opacity:1" />
  <use
     xlink:href="#DejaVuSans-6e"
     x="194.38477"
     id="use8742"
     y="0"
     width="100%"
     height="100%"
     transform="matrix(0,-0.24,-0.24,0,45.05875,196.38625)"
     style="fill:#cbcbcb;fill-opacity:1" />
  <use
     xlink:href="#DejaVuSans-74"
     x="257.76367"
     id="use8744"
     y="0"
     width="100%"
     height="100%"
     transform="matrix(0,-0.24,-0.24,0,45.05875,196.38625)"
     style="fill:#cbcbcb;fill-opacity:1" />
  <path
     d="M 97.545,270.58 V 50.92"
     style="fill:none;stroke:#bebebe;stroke-width:2.5;stroke-linecap:square;stroke-linejoin:miter;stroke-opacity:1"
     id="path8750" />
  <path
     d="M 97.545,270.58 H 382.47834"
     style="fill:none;stroke:#bebebe;stroke-width:2.5;stroke-linecap:square;stroke-linejoin:miter;stroke-opacity:1"
     id="path8753" />
  <use
     xlink:href="#DejaVuSans-67"
     id="use8764"
     x="0"
     y="0"
     width="100%"
     height="100%"
     transform="matrix(0.24,0,0,-0.24,168.39792,44.92)"
     style="fill:#cbcbcb;fill-opacity:1" />
  <use
     xlink:href="#DejaVuSans-72"
     x="63.476562"
     id="use8766"
     y="0"
     width="100%"
     height="100%"
     transform="matrix(0.24,0,0,-0.24,168.39792,44.92)"
     style="fill:#cbcbcb;fill-opacity:1" />
  <use
     xlink:href="#DejaVuSans-6f"
     x="102.33984"
     id="use8768"
     y="0"
     width="100%"
     height="100%"
     transform="matrix(0.24,0,0,-0.24,168.39792,44.92)"
     style="fill:#cbcbcb;fill-opacity:1" />
  <use
     xlink:href="#DejaVuSans-75"
     x="163.52148"
     id="use8770"
     y="0"
     width="100%"
     height="100%"
     transform="matrix(0.24,0,0,-0.24,168.39792,44.92)"
     style="fill:#cbcbcb;fill-opacity:1" />
  <use
     xlink:href="#DejaVuSans-70"
     x="226.90039"
     id="use8772"
     y="0"
     width="100%"
     height="100%"
     transform="matrix(0.24,0,0,-0.24,168.39792,44.92)"
     style="fill:#cbcbcb;fill-opacity:1" />
  <use
     xlink:href="#DejaVuSans-20"
     x="290.37695"
     id="use8774"
     y="0"
     width="100%"
     height="100%"
     transform="matrix(0.24,0,0,-0.24,168.39792,44.92)" />
  <use
     xlink:href="#DejaVuSans-3d"
     x="322.16406"
     id="use8776"
     y="0"
     width="100%"
     height="100%"
     transform="matrix(0.24,0,0,-0.24,168.39792,44.92)"
     style="fill:#cbcbcb;fill-opacity:1" />
  <use
     xlink:href="#DejaVuSans-20"
     x="405.95312"
     id="use8778"
     y="0"
     width="100%"
     height="100%"
     transform="matrix(0.24,0,0,-0.24,168.39792,44.92)" />
  <use
     xlink:href="#DejaVuSans-32"
     x="437.74023"
     id="use8780"
     y="0"
     width="100%"
     height="100%"
     transform="matrix(0.24,0,0,-0.24,168.39792,44.92)"
     style="fill:#cbcbcb;fill-opacity:1" />
  <use
     xlink:href="#DejaVuSans-2c"
     x="501.36328"
     id="use8782"
     y="0"
     width="100%"
     height="100%"
     transform="matrix(0.24,0,0,-0.24,168.39792,44.92)"
     style="fill:#cbcbcb;fill-opacity:1" />
  <use
     xlink:href="#DejaVuSans-33"
     x="533.15039"
     id="use8784"
     y="0"
     width="100%"
     height="100%"
     transform="matrix(0.24,0,0,-0.24,168.39792,44.92)"
     style="fill:#cbcbcb;fill-opacity:1" />
  <path
     d="M 424.98142,270.58 H 709.91476 V 50.92 H 424.98142 Z"
     style="fill:none"
     id="path8790" />
  <path
     d="m 437.93293,270.58 h 43.17172 v 0 z"
     clip-path="url(#pc23e4f310f)"
     style="fill:#de8f05;fill-opacity:0.25;stroke:#bebebe;stroke-width:2;stroke-linejoin:miter;stroke-opacity:1"
     id="path8793" />
  <path
     d="m 481.10465,270.58 h 43.17172 v -2.82703 h -43.17172 z"
     clip-path="url(#pc23e4f310f)"
     style="fill:#de8f05;fill-opacity:0.25;stroke:#bebebe;stroke-width:2;stroke-linejoin:miter;stroke-opacity:1"
     id="path8796" />
  <path
     d="m 524.27637,270.58 h 43.17172 v -48.05946 h -43.17172 z"
     clip-path="url(#pc23e4f310f)"
     style="fill:#de8f05;fill-opacity:0.25;stroke:#bebebe;stroke-width:2;stroke-linejoin:miter;stroke-opacity:1"
     id="path8799" />
  <path
     d="m 567.44809,270.58 h 43.17172 v -50.88649 h -43.17172 z"
     clip-path="url(#pc23e4f310f)"
     style="fill:#de8f05;fill-opacity:0.25;stroke:#bebebe;stroke-width:2;stroke-linejoin:miter;stroke-opacity:1"
     id="path8802" />
  <path
     d="m 610.61981,270.58 h 43.17171 v -59.36757 h -43.17171 z"
     clip-path="url(#pc23e4f310f)"
     style="fill:#de8f05;fill-opacity:0.25;stroke:#bebebe;stroke-width:2;stroke-linejoin:miter;stroke-opacity:1"
     id="path8805" />
  <path
     d="m 653.79152,270.58 h 43.17172 v -45.23243 h -43.17172 z"
     clip-path="url(#pc23e4f310f)"
     style="fill:#de8f05;fill-opacity:0.25;stroke:#bebebe;stroke-width:2;stroke-linejoin:miter;stroke-opacity:1"
     id="path8808" />
  <path
     d="m 437.93293,270.58 h 43.17172 v 0 z"
     clip-path="url(#pc23e4f310f)"
     style="fill:#0173b2;fill-opacity:0.25;stroke:#bebebe;stroke-width:2;stroke-linejoin:miter;stroke-opacity:1"
     id="path8811" />
  <path
     d="m 481.10465,270.58 h 43.17172 v 0 z"
     clip-path="url(#pc23e4f310f)"
     style="fill:#0173b2;fill-opacity:0.25;stroke:#bebebe;stroke-width:2;stroke-linejoin:miter;stroke-opacity:1"
     id="path8814" />
  <path
     d="m 524.27637,270.58 h 43.17172 v -11.30811 h -43.17172 z"
     clip-path="url(#pc23e4f310f)"
     style="fill:#0173b2;fill-opacity:0.25;stroke:#bebebe;stroke-width:2;stroke-linejoin:miter;stroke-opacity:1"
     id="path8817" />
  <path
     d="m 567.44809,270.58 h 43.17172 V 106.61243 h -43.17172 z"
     clip-path="url(#pc23e4f310f)"
     style="fill:#0173b2;fill-opacity:0.25;stroke:#bebebe;stroke-width:2;stroke-linejoin:miter;stroke-opacity:1"
     id="path8820" />
  <path
     d="m 610.61981,270.58 h 43.17171 v -48.05946 h -43.17171 z"
     clip-path="url(#pc23e4f310f)"
     style="fill:#0173b2;fill-opacity:0.25;stroke:#bebebe;stroke-width:2;stroke-linejoin:miter;stroke-opacity:1"
     id="path8823" />
  <path
     d="m 653.79152,270.58 h 43.17172 v 0 z"
     clip-path="url(#pc23e4f310f)"
     style="fill:#0173b2;fill-opacity:0.25;stroke:#bebebe;stroke-width:2;stroke-linejoin:miter;stroke-opacity:1"
     id="path8826" />
  <use
     xlink:href="#m1d0204809a"
     x="437.93292"
     y="270.57999"
     style="stroke:#bebebe;stroke-width:2.5;stroke-opacity:1"
     id="use8829"
     width="100%"
     height="100%" />
  <use
     xlink:href="#DejaVuSans-30"
     id="use8834"
     x="0"
     y="0"
     width="100%"
     height="100%"
     transform="matrix(0.22,0,0,-0.22,420.4395,302.79656)"
     style="fill:#cbcbcb;fill-opacity:1" />
  <use
     xlink:href="#DejaVuSans-2e"
     x="63.623047"
     id="use8836"
     y="0"
     width="100%"
     height="100%"
     transform="matrix(0.22,0,0,-0.22,420.4395,302.79656)"
     style="fill:#cbcbcb;fill-opacity:1" />
  <use
     xlink:href="#DejaVuSans-30"
     x="95.410156"
     id="use8838"
     y="0"
     width="100%"
     height="100%"
     transform="matrix(0.22,0,0,-0.22,420.4395,302.79656)"
     style="fill:#cbcbcb;fill-opacity:1" />
  <use
     xlink:href="#m1d0204809a"
     x="567.44806"
     y="270.57999"
     style="stroke:#bebebe;stroke-width:2.5;stroke-opacity:1"
     id="use8844"
     width="100%"
     height="100%" />
  <use
     xlink:href="#DejaVuSans-30"
     id="use8849"
     x="0"
     y="0"
     width="100%"
     height="100%"
     transform="matrix(0.22,0,0,-0.22,549.95465,302.79656)"
     style="fill:#cbcbcb;fill-opacity:1" />
  <use
     xlink:href="#DejaVuSans-2e"
     x="63.623047"
     id="use8851"
     y="0"
     width="100%"
     height="100%"
     transform="matrix(0.22,0,0,-0.22,549.95465,302.79656)"
     style="fill:#cbcbcb;fill-opacity:1" />
  <use
     xlink:href="#DejaVuSans-35"
     x="95.410156"
     id="use8853"
     y="0"
     width="100%"
     height="100%"
     transform="matrix(0.22,0,0,-0.22,549.95465,302.79656)"
     style="fill:#cbcbcb;fill-opacity:1" />
  <use
     xlink:href="#m1d0204809a"
     x="696.96326"
     y="270.57999"
     style="stroke:#bebebe;stroke-width:2.5;stroke-opacity:1"
     id="use8859"
     width="100%"
     height="100%" />
  <use
     xlink:href="#DejaVuSans-31"
     id="use8864"
     x="0"
     y="0"
     width="100%"
     height="100%"
     transform="matrix(0.22,0,0,-0.22,679.46981,302.79656)"
     style="fill:#cbcbcb;fill-opacity:1" />
  <use
     xlink:href="#DejaVuSans-2e"
     x="63.623047"
     id="use8866"
     y="0"
     width="100%"
     height="100%"
     transform="matrix(0.22,0,0,-0.22,679.46981,302.79656)"
     style="fill:#cbcbcb;fill-opacity:1" />
  <use
     xlink:href="#DejaVuSans-30"
     x="95.410156"
     id="use8868"
     y="0"
     width="100%"
     height="100%"
     transform="matrix(0.22,0,0,-0.22,679.46981,302.79656)"
     style="fill:#cbcbcb;fill-opacity:1" />
  <use
     xlink:href="#DejaVuSans-73"
     id="use8874"
     x="0"
     y="0"
     width="100%"
     height="100%"
     transform="matrix(0.24,0,0,-0.24,535.20934,329.60812)"
     style="fill:#cbcbcb;fill-opacity:1" />
  <use
     xlink:href="#DejaVuSans-63"
     x="52.099609"
     id="use8876"
     y="0"
     width="100%"
     height="100%"
     transform="matrix(0.24,0,0,-0.24,535.20934,329.60812)"
     style="fill:#cbcbcb;fill-opacity:1" />
  <use
     xlink:href="#DejaVuSans-6f"
     x="107.08008"
     id="use8878"
     y="0"
     width="100%"
     height="100%"
     transform="matrix(0.24,0,0,-0.24,535.20934,329.60812)"
     style="fill:#cbcbcb;fill-opacity:1" />
  <use
     xlink:href="#DejaVuSans-72"
     x="168.26172"
     id="use8880"
     y="0"
     width="100%"
     height="100%"
     transform="matrix(0.24,0,0,-0.24,535.20934,329.60812)"
     style="fill:#cbcbcb;fill-opacity:1" />
  <use
     xlink:href="#DejaVuSans-65"
     x="207.125"
     id="use8882"
     y="0"
     width="100%"
     height="100%"
     transform="matrix(0.24,0,0,-0.24,535.20934,329.60812)"
     style="fill:#cbcbcb;fill-opacity:1" />
  <use
     xlink:href="#m1367edd116"
     x="424.98141"
     y="270.57999"
     style="stroke:#bebebe;stroke-width:2.5;stroke-opacity:1"
     id="use8888"
     width="100%"
     height="100%" />
  <use
     xlink:href="#m1367edd116"
     x="424.98141"
     y="214.03946"
     style="stroke:#bebebe;stroke-width:2.5;stroke-opacity:1"
     id="use8894"
     width="100%"
     height="100%" />
  <use
     xlink:href="#m1367edd116"
     x="424.98141"
     y="157.49892"
     style="stroke:#bebebe;stroke-width:2.5;stroke-opacity:1"
     id="use8900"
     width="100%"
     height="100%" />
  <use
     xlink:href="#m1367edd116"
     x="424.98141"
     y="100.95838"
     style="stroke:#bebebe;stroke-width:2.5;stroke-opacity:1"
     id="use8906"
     width="100%"
     height="100%" />
  <path
     d="M 424.98142,270.58 V 50.92"
     style="fill:none;stroke:#bebebe;stroke-width:2.5;stroke-linecap:square;stroke-linejoin:miter;stroke-opacity:1"
     id="path8913" />
  <path
     d="M 424.98142,270.58 H 709.91476"
     style="fill:none;stroke:#bebebe;stroke-width:2.5;stroke-linecap:square;stroke-linejoin:miter;stroke-opacity:1"
     id="path8916" />
  <use
     xlink:href="#DejaVuSans-67"
     id="use8919"
     x="0"
     y="0"
     width="100%"
     height="100%"
     transform="matrix(0.24,0,0,-0.24,507.28309,44.92)"
     style="fill:#cbcbcb;fill-opacity:1" />
  <use
     xlink:href="#DejaVuSans-72"
     x="63.476562"
     id="use8921"
     y="0"
     width="100%"
     height="100%"
     transform="matrix(0.24,0,0,-0.24,507.28309,44.92)"
     style="fill:#cbcbcb;fill-opacity:1" />
  <use
     xlink:href="#DejaVuSans-6f"
     x="102.33984"
     id="use8923"
     y="0"
     width="100%"
     height="100%"
     transform="matrix(0.24,0,0,-0.24,507.28309,44.92)"
     style="fill:#cbcbcb;fill-opacity:1" />
  <use
     xlink:href="#DejaVuSans-75"
     x="163.52148"
     id="use8925"
     y="0"
     width="100%"
     height="100%"
     transform="matrix(0.24,0,0,-0.24,507.28309,44.92)"
     style="fill:#cbcbcb;fill-opacity:1" />
  <use
     xlink:href="#DejaVuSans-70"
     x="226.90039"
     id="use8927"
     y="0"
     width="100%"
     height="100%"
     transform="matrix(0.24,0,0,-0.24,507.28309,44.92)"
     style="fill:#cbcbcb;fill-opacity:1" />
  <use
     xlink:href="#DejaVuSans-20"
     x="290.37695"
     id="use8929"
     y="0"
     width="100%"
     height="100%"
     transform="matrix(0.24,0,0,-0.24,507.28309,44.92)" />
  <use
     xlink:href="#DejaVuSans-3d"
     x="322.16406"
     id="use8931"
     y="0"
     width="100%"
     height="100%"
     transform="matrix(0.24,0,0,-0.24,507.28309,44.92)"
     style="fill:#cbcbcb;fill-opacity:1" />
  <use
     xlink:href="#DejaVuSans-20"
     x="405.95312"
     id="use8933"
     y="0"
     width="100%"
     height="100%"
     transform="matrix(0.24,0,0,-0.24,507.28309,44.92)" />
  <use
     xlink:href="#DejaVuSans-31"
     x="437.74023"
     id="use8935"
     y="0"
     width="100%"
     height="100%"
     transform="matrix(0.24,0,0,-0.24,507.28309,44.92)"
     style="fill:#cbcbcb;fill-opacity:1" />
  <path
     d="M 752.41783,270.58 H 1037.3512 V 50.92 H 752.41783 Z"
     style="fill:none"
     id="path8941" />
  <path
     d="m 765.36935,270.58 h 43.17172 v 0 z"
     clip-path="url(#p8c30eaed45)"
     style="fill:#de8f05;fill-opacity:0.25;stroke:#bebebe;stroke-width:2;stroke-linejoin:miter;stroke-opacity:1"
     id="path8944" />
  <path
     d="m 808.54107,270.58 h 43.17172 v -8.48108 h -43.17172 z"
     clip-path="url(#p8c30eaed45)"
     style="fill:#de8f05;fill-opacity:0.25;stroke:#bebebe;stroke-width:2;stroke-linejoin:miter;stroke-opacity:1"
     id="path8947" />
  <path
     d="M 851.71279,270.58 H 894.8845 V 211.21243 H 851.71279 Z"
     clip-path="url(#p8c30eaed45)"
     style="fill:#de8f05;fill-opacity:0.25;stroke:#bebebe;stroke-width:2;stroke-linejoin:miter;stroke-opacity:1"
     id="path8950" />
  <path
     d="m 894.8845,270.58 h 43.17172 V 126.40162 H 894.8845 Z"
     clip-path="url(#p8c30eaed45)"
     style="fill:#de8f05;fill-opacity:0.25;stroke:#bebebe;stroke-width:2;stroke-linejoin:miter;stroke-opacity:1"
     id="path8953" />
  <path
     d="m 938.05622,270.58 h 43.17172 V 149.01784 h -43.17172 z"
     clip-path="url(#p8c30eaed45)"
     style="fill:#de8f05;fill-opacity:0.25;stroke:#bebebe;stroke-width:2;stroke-linejoin:miter;stroke-opacity:1"
     id="path8956" />
  <path
     d="m 981.22794,270.58 h 43.17176 v -73.5027 h -43.17176 z"
     clip-path="url(#p8c30eaed45)"
     style="fill:#de8f05;fill-opacity:0.25;stroke:#bebebe;stroke-width:2;stroke-linejoin:miter;stroke-opacity:1"
     id="path8959" />
  <path
     d="m 765.36935,270.58 h 43.17172 v 0 z"
     clip-path="url(#p8c30eaed45)"
     style="fill:#0173b2;fill-opacity:0.25;stroke:#bebebe;stroke-width:2;stroke-linejoin:miter;stroke-opacity:1"
     id="path8962" />
  <path
     d="m 808.54107,270.58 h 43.17172 v -8.48108 h -43.17172 z"
     clip-path="url(#p8c30eaed45)"
     style="fill:#0173b2;fill-opacity:0.25;stroke:#bebebe;stroke-width:2;stroke-linejoin:miter;stroke-opacity:1"
     id="path8965" />
  <path
     d="M 851.71279,270.58 H 894.8845 V 151.84486 h -43.17171 z"
     clip-path="url(#p8c30eaed45)"
     style="fill:#0173b2;fill-opacity:0.25;stroke:#bebebe;stroke-width:2;stroke-linejoin:miter;stroke-opacity:1"
     id="path8968" />
  <path
     d="m 894.8845,270.58 h 43.17172 V 61.38 H 894.8845 Z"
     clip-path="url(#p8c30eaed45)"
     style="fill:#0173b2;fill-opacity:0.25;stroke:#bebebe;stroke-width:2;stroke-linejoin:miter;stroke-opacity:1"
     id="path8971" />
  <path
     d="m 938.05622,270.58 h 43.17172 v -98.94595 h -43.17172 z"
     clip-path="url(#p8c30eaed45)"
     style="fill:#0173b2;fill-opacity:0.25;stroke:#bebebe;stroke-width:2;stroke-linejoin:miter;stroke-opacity:1"
     id="path8974" />
  <path
     d="m 981.22794,270.58 h 43.17176 v -14.13514 h -43.17176 z"
     clip-path="url(#p8c30eaed45)"
     style="fill:#0173b2;fill-opacity:0.25;stroke:#bebebe;stroke-width:2;stroke-linejoin:miter;stroke-opacity:1"
     id="path8977" />
  <use
     xlink:href="#m1d0204809a"
     x="765.36932"
     y="270.57999"
     style="stroke:#bebebe;stroke-width:2.5;stroke-opacity:1"
     id="use8980"
     width="100%"
     height="100%" />
  <use
     xlink:href="#DejaVuSans-30"
     id="use8985"
     x="0"
     y="0"
     width="100%"
     height="100%"
     transform="matrix(0.22,0,0,-0.22,747.87591,302.79656)"
     style="fill:#cbcbcb;fill-opacity:1" />
  <use
     xlink:href="#DejaVuSans-2e"
     x="63.623047"
     id="use8987"
     y="0"
     width="100%"
     height="100%"
     transform="matrix(0.22,0,0,-0.22,747.87591,302.79656)"
     style="fill:#cbcbcb;fill-opacity:1" />
  <use
     xlink:href="#DejaVuSans-30"
     x="95.410156"
     id="use8989"
     y="0"
     width="100%"
     height="100%"
     transform="matrix(0.22,0,0,-0.22,747.87591,302.79656)"
     style="fill:#cbcbcb;fill-opacity:1" />
  <use
     xlink:href="#m1d0204809a"
     x="894.88452"
     y="270.57999"
     style="stroke:#bebebe;stroke-width:2.5;stroke-opacity:1"
     id="use8995"
     width="100%"
     height="100%" />
  <use
     xlink:href="#DejaVuSans-30"
     id="use9000"
     x="0"
     y="0"
     width="100%"
     height="100%"
     transform="matrix(0.22,0,0,-0.22,877.39107,302.79656)"
     style="fill:#cbcbcb;fill-opacity:1" />
  <use
     xlink:href="#DejaVuSans-2e"
     x="63.623047"
     id="use9002"
     y="0"
     width="100%"
     height="100%"
     transform="matrix(0.22,0,0,-0.22,877.39107,302.79656)"
     style="fill:#cbcbcb;fill-opacity:1" />
  <use
     xlink:href="#DejaVuSans-35"
     x="95.410156"
     id="use9004"
     y="0"
     width="100%"
     height="100%"
     transform="matrix(0.22,0,0,-0.22,877.39107,302.79656)"
     style="fill:#cbcbcb;fill-opacity:1" />
  <use
     xlink:href="#m1d0204809a"
     x="1024.3997"
     y="270.57999"
     style="stroke:#bebebe;stroke-width:2.5;stroke-opacity:1"
     id="use9010"
     width="100%"
     height="100%" />
  <use
     xlink:href="#DejaVuSans-31"
     id="use9015"
     x="0"
     y="0"
     width="100%"
     height="100%"
     transform="matrix(0.22,0,0,-0.22,1006.9062,302.79656)"
     style="fill:#cbcbcb;fill-opacity:1" />
  <use
     xlink:href="#DejaVuSans-2e"
     x="63.623047"
     id="use9017"
     y="0"
     width="100%"
     height="100%"
     transform="matrix(0.22,0,0,-0.22,1006.9062,302.79656)"
     style="fill:#cbcbcb;fill-opacity:1" />
  <use
     xlink:href="#DejaVuSans-30"
     x="95.410156"
     id="use9019"
     y="0"
     width="100%"
     height="100%"
     transform="matrix(0.22,0,0,-0.22,1006.9062,302.79656)"
     style="fill:#cbcbcb;fill-opacity:1" />
  <use
     xlink:href="#DejaVuSans-73"
     id="use9025"
     x="0"
     y="0"
     width="100%"
     height="100%"
     transform="matrix(0.24,0,0,-0.24,862.64575,329.60812)"
     style="fill:#cbcbcb;fill-opacity:1" />
  <use
     xlink:href="#DejaVuSans-63"
     x="52.099609"
     id="use9027"
     y="0"
     width="100%"
     height="100%"
     transform="matrix(0.24,0,0,-0.24,862.64575,329.60812)"
     style="fill:#cbcbcb;fill-opacity:1" />
  <use
     xlink:href="#DejaVuSans-6f"
     x="107.08008"
     id="use9029"
     y="0"
     width="100%"
     height="100%"
     transform="matrix(0.24,0,0,-0.24,862.64575,329.60812)"
     style="fill:#cbcbcb;fill-opacity:1" />
  <use
     xlink:href="#DejaVuSans-72"
     x="168.26172"
     id="use9031"
     y="0"
     width="100%"
     height="100%"
     transform="matrix(0.24,0,0,-0.24,862.64575,329.60812)"
     style="fill:#cbcbcb;fill-opacity:1" />
  <use
     xlink:href="#DejaVuSans-65"
     x="207.125"
     id="use9033"
     y="0"
     width="100%"
     height="100%"
     transform="matrix(0.24,0,0,-0.24,862.64575,329.60812)"
     style="fill:#cbcbcb;fill-opacity:1" />
  <use
     xlink:href="#m1367edd116"
     x="752.41785"
     y="270.57999"
     style="stroke:#bebebe;stroke-width:2.5;stroke-opacity:1"
     id="use9039"
     width="100%"
     height="100%" />
  <use
     xlink:href="#m1367edd116"
     x="752.41785"
     y="214.03946"
     style="stroke:#bebebe;stroke-width:2.5;stroke-opacity:1"
     id="use9045"
     width="100%"
     height="100%" />
  <use
     xlink:href="#m1367edd116"
     x="752.41785"
     y="157.49892"
     style="stroke:#bebebe;stroke-width:2.5;stroke-opacity:1"
     id="use9051"
     width="100%"
     height="100%" />
  <use
     xlink:href="#m1367edd116"
     x="752.41785"
     y="100.95838"
     style="stroke:#bebebe;stroke-width:2.5;stroke-opacity:1"
     id="use9057"
     width="100%"
     height="100%" />
  <path
     d="M 752.41783,270.58 V 50.92"
     style="fill:none;stroke:#bebebe;stroke-width:2.5;stroke-linecap:square;stroke-linejoin:miter;stroke-opacity:1"
     id="path9064" />
  <path
     d="M 752.41783,270.58 H 1037.3512"
     style="fill:none;stroke:#bebebe;stroke-width:2.5;stroke-linecap:square;stroke-linejoin:miter;stroke-opacity:1"
     id="path9067" />
  <use
     xlink:href="#DejaVuSans-67"
     id="use9070"
     x="0"
     y="0"
     width="100%"
     height="100%"
     transform="matrix(0.24,0,0,-0.24,823.27075,44.92)"
     style="fill:#cbcbcb;fill-opacity:1" />
  <use
     xlink:href="#DejaVuSans-72"
     x="63.476562"
     id="use9072"
     y="0"
     width="100%"
     height="100%"
     transform="matrix(0.24,0,0,-0.24,823.27075,44.92)"
     style="fill:#cbcbcb;fill-opacity:1" />
  <use
     xlink:href="#DejaVuSans-6f"
     x="102.33984"
     id="use9074"
     y="0"
     width="100%"
     height="100%"
     transform="matrix(0.24,0,0,-0.24,823.27075,44.92)"
     style="fill:#cbcbcb;fill-opacity:1" />
  <use
     xlink:href="#DejaVuSans-75"
     x="163.52148"
     id="use9076"
     y="0"
     width="100%"
     height="100%"
     transform="matrix(0.24,0,0,-0.24,823.27075,44.92)"
     style="fill:#cbcbcb;fill-opacity:1" />
  <use
     xlink:href="#DejaVuSans-70"
     x="226.90039"
     id="use9078"
     y="0"
     width="100%"
     height="100%"
     transform="matrix(0.24,0,0,-0.24,823.27075,44.92)"
     style="fill:#cbcbcb;fill-opacity:1" />
  <use
     xlink:href="#DejaVuSans-20"
     x="290.37695"
     id="use9080"
     y="0"
     width="100%"
     height="100%"
     transform="matrix(0.24,0,0,-0.24,823.27075,44.92)" />
  <use
     xlink:href="#DejaVuSans-3d"
     x="322.16406"
     id="use9082"
     y="0"
     width="100%"
     height="100%"
     transform="matrix(0.24,0,0,-0.24,823.27075,44.92)"
     style="fill:#cbcbcb;fill-opacity:1" />
  <use
     xlink:href="#DejaVuSans-20"
     x="405.95312"
     id="use9084"
     y="0"
     width="100%"
     height="100%"
     transform="matrix(0.24,0,0,-0.24,823.27075,44.92)" />
  <use
     xlink:href="#DejaVuSans-34"
     x="437.74023"
     id="use9086"
     y="0"
     width="100%"
     height="100%"
     transform="matrix(0.24,0,0,-0.24,823.27075,44.92)"
     style="fill:#cbcbcb;fill-opacity:1" />
  <use
     xlink:href="#DejaVuSans-2c"
     x="501.36328"
     id="use9088"
     y="0"
     width="100%"
     height="100%"
     transform="matrix(0.24,0,0,-0.24,823.27075,44.92)"
     style="fill:#cbcbcb;fill-opacity:1" />
  <use
     xlink:href="#DejaVuSans-35"
     x="533.15039"
     id="use9090"
     y="0"
     width="100%"
     height="100%"
     transform="matrix(0.24,0,0,-0.24,823.27075,44.92)"
     style="fill:#cbcbcb;fill-opacity:1" />
  <use
     xlink:href="#DejaVuSans-73"
     id="use9101"
     x="0"
     y="0"
     width="100%"
     height="100%"
     transform="matrix(0.24,0,0,-0.24,1086.787,154.33062)"
     style="fill:#cbcbcb;fill-opacity:1" />
  <use
     xlink:href="#DejaVuSans-68"
     x="52.099609"
     id="use9103"
     y="0"
     width="100%"
     height="100%"
     transform="matrix(0.24,0,0,-0.24,1086.787,154.33062)"
     style="fill:#cbcbcb;fill-opacity:1" />
  <use
     xlink:href="#DejaVuSans-6f"
     x="115.47852"
     id="use9105"
     y="0"
     width="100%"
     height="100%"
     transform="matrix(0.24,0,0,-0.24,1086.787,154.33062)"
     style="fill:#cbcbcb;fill-opacity:1" />
  <use
     xlink:href="#DejaVuSans-77"
     x="176.66016"
     id="use9107"
     y="0"
     width="100%"
     height="100%"
     transform="matrix(0.24,0,0,-0.24,1086.787,154.33062)"
     style="fill:#cbcbcb;fill-opacity:1" />
  <use
     xlink:href="#DejaVuSans-69"
     x="258.44727"
     id="use9109"
     y="0"
     width="100%"
     height="100%"
     transform="matrix(0.24,0,0,-0.24,1086.787,154.33062)"
     style="fill:#cbcbcb;fill-opacity:1" />
  <use
     xlink:href="#DejaVuSans-6e"
     x="286.23047"
     id="use9111"
     y="0"
     width="100%"
     height="100%"
     transform="matrix(0.24,0,0,-0.24,1086.787,154.33062)"
     style="fill:#cbcbcb;fill-opacity:1" />
  <use
     xlink:href="#DejaVuSans-67"
     x="349.60938"
     id="use9113"
     y="0"
     width="100%"
     height="100%"
     transform="matrix(0.24,0,0,-0.24,1086.787,154.33062)"
     style="fill:#cbcbcb;fill-opacity:1" />
  <path
     d="m 1077.9378,187.03844 h 44 v -15.4 h -44 z"
     style="fill:#0173b2;fill-opacity:0.25;stroke:#bfbfbf;stroke-width:2;stroke-linejoin:miter;stroke-opacity:1"
     id="path9118" />
  <use
     xlink:href="#DejaVuSans-46"
     id="use9126"
     x="0"
     y="0"
     width="100%"
     height="100%"
     transform="matrix(0.22,0,0,-0.22,1139.5378,187.03844)"
     style="fill:#cbcbcb;fill-opacity:1" />
  <use
     xlink:href="#DejaVuSans-61"
     x="48.394531"
     id="use9128"
     y="0"
     width="100%"
     height="100%"
     transform="matrix(0.22,0,0,-0.22,1139.5378,187.03844)"
     style="fill:#cbcbcb;fill-opacity:1" />
  <use
     xlink:href="#DejaVuSans-6c"
     x="109.67383"
     id="use9130"
     y="0"
     width="100%"
     height="100%"
     transform="matrix(0.22,0,0,-0.22,1139.5378,187.03844)"
     style="fill:#cbcbcb;fill-opacity:1" />
  <use
     xlink:href="#DejaVuSans-73"
     x="137.45703"
     id="use9132"
     y="0"
     width="100%"
     height="100%"
     transform="matrix(0.22,0,0,-0.22,1139.5378,187.03844)"
     style="fill:#cbcbcb;fill-opacity:1" />
  <use
     xlink:href="#DejaVuSans-65"
     x="189.55664"
     id="use9134"
     y="0"
     width="100%"
     height="100%"
     transform="matrix(0.22,0,0,-0.22,1139.5378,187.03844)"
     style="fill:#cbcbcb;fill-opacity:1" />
  <path
     d="m 1077.9378,219.33031 h 44 v -15.4 h -44 z"
     style="fill:#de8f05;fill-opacity:0.25;stroke:#bfbfbf;stroke-width:2;stroke-linejoin:miter;stroke-opacity:1"
     id="path9139" />
  <use
     xlink:href="#DejaVuSans-54"
     id="use9145"
     x="0"
     y="0"
     width="100%"
     height="100%"
     transform="matrix(0.22,0,0,-0.22,1139.5378,219.33031)"
     style="fill:#cbcbcb;fill-opacity:1" />
  <use
     xlink:href="#DejaVuSans-72"
     x="46.333984"
     id="use9147"
     y="0"
     width="100%"
     height="100%"
     transform="matrix(0.22,0,0,-0.22,1139.5378,219.33031)"
     style="fill:#cbcbcb;fill-opacity:1" />
  <use
     xlink:href="#DejaVuSans-75"
     x="87.447266"
     id="use9149"
     y="0"
     width="100%"
     height="100%"
     transform="matrix(0.22,0,0,-0.22,1139.5378,219.33031)"
     style="fill:#cbcbcb;fill-opacity:1" />
  <use
     xlink:href="#DejaVuSans-65"
     x="150.82617"
     id="use9151"
     y="0"
     width="100%"
     height="100%"
     transform="matrix(0.22,0,0,-0.22,1139.5378,219.33031)"
     style="fill:#cbcbcb;fill-opacity:1" />
  <defs
     id="defs9167">
    <clipPath
       id="pc7575c40fb">
      <rect
         x="97.545"
         y="50.92"
         width="284.933342"
         height="219.66"
         id="rect9158" />
    </clipPath>
    <clipPath
       id="pc23e4f310f">
      <rect
         x="424.981417"
         y="50.92"
         width="284.933342"
         height="219.66"
         id="rect9161" />
    </clipPath>
    <clipPath
       id="p8c30eaed45">
      <rect
         x="752.417833"
         y="50.92"
         width="284.933342"
         height="219.66"
         id="rect9164" />
    </clipPath>
  </defs>
</svg>
